<!DOCTYPE svg PUBLIC "-//W3C//DTD SVG 20010904//EN" "http://www.w3.org/TR/2001/REC-SVG-20010904/DTD/svg10.dtd">
<svg version="1.0" xmlns="http://www.w3.org/2000/svg" width="807px" height="807px" viewBox="0 0 8070 8070" preserveAspectRatio="xMidYMid meet">
<g id="layer101" fill="#01205f" stroke="none">
<path d="M3775 7984 c-326 -31 -454 -51 -670 -104 -575 -139 -1144 -424 -1594 -800 -802 -668 -1294 -1580 -1418 -2625 -24 -209 -24 -662 1 -865 24 -204 51 -352 92 -520 322 -1312 1299 -2376 2580 -2809 435 -147 796 -205 1274 -205 385 0 607 26 965 114 1225 301 2253 1200 2723 2381 308 773 364 1631 161 2444 -163 653 -508 1274 -983 1772 -119 125 -342 324 -469 421 -459 349 -1026 605 -1595 721 -270 56 -429 72 -742 76 -157 1 -303 1 -325 -1z m1687 -384 c151 -56 223 -236 154 -386 -27 -58 -187 -230 -473 -507 -151 -145 -193 -170 -291 -172 l-63 -1 -84 -84 c-47 -47 -85 -89 -85 -94 0 -5 22 -43 49 -85 82 -128 116 -208 162 -381 30 -109 37 -370 15 -500 -27 -151 -89 -318 -164 -434 -212 -330 -529 -533 -910 -582 -290 -38 -579 30 -832 194 -103 67 -277 239 -342 337 -203 312 -264 665 -173 1010 117 448 493 804 944 895 202 40 380 36 571 -16 147 -39 252 -88 417 -194 22 -14 27 -11 112 74 l89 89 4 71 c2 41 12 88 23 111 20 44 556 591 614 627 82 52 175 61 263 28z"/>
</g>
<g id="layer102" fill="#0070c0" stroke="none">
<path d="M3775 7984 c-320 -31 -453 -51 -655 -100 -79 -19 -188 -48 -242 -65 l-97 -30 -1 -629 c0 -417 3 -630 10 -630 5 0 45 26 88 58 145 107 323 188 491 222 202 40 380 36 571 -16 147 -39 252 -88 417 -194 22 -14 27 -11 112 74 l89 89 4 71 c2 41 12 88 23 111 28 61 574 607 641 642 57 30 64 42 64 118 0 93 4 89 -158 134 -365 102 -638 141 -1032 146 -157 1 -303 1 -325 -1z"/>
<path d="M5641 7547 c-18 -76 -20 -99 -11 -123 7 -16 12 -57 12 -91 -1 -72 -25 -135 -77 -198 -32 -40 -40 -67 -145 -501 -60 -253 -114 -472 -119 -489 -6 -19 -10 98 -10 328 -1 266 -4 357 -13 357 -6 0 -69 -56 -139 -125 -146 -143 -188 -168 -287 -170 l-63 -1 -84 -84 c-47 -47 -85 -89 -85 -94 0 -5 22 -43 49 -85 82 -128 116 -208 162 -381 30 -109 37 -370 15 -500 -27 -151 -89 -318 -164 -434 -212 -330 -529 -533 -910 -582 -290 -38 -579 30 -832 194 -103 67 -277 239 -342 337 -25 39 -64 107 -86 150 -215 430 -156 951 151 1327 25 31 44 58 42 60 -4 3 -111 441 -263 1075 -22 92 -30 113 -45 113 -29 0 -333 -160 -472 -249 -128 -82 -298 -202 -364 -258 l-34 -29 66 -280 c37 -153 141 -596 232 -984 91 -388 175 -738 185 -778 40 -146 99 -236 220 -332 181 -144 386 -267 600 -362 333 -146 850 -257 1207 -258 205 0 753 75 887 121 358 124 659 279 895 458 109 83 144 123 191 216 37 73 61 169 285 1120 134 572 247 1050 250 1062 4 18 -8 32 -65 78 -89 71 -318 226 -434 294 -93 55 -360 191 -374 191 -4 0 -18 -42 -31 -93z"/>
<path d="M3470 6580 c-131 -21 -299 -90 -418 -172 -118 -81 -241 -225 -309 -363 -242 -485 -43 -1080 442 -1322 155 -78 310 -109 499 -100 484 22 869 388 926 880 21 177 -14 369 -96 534 -131 264 -350 441 -649 525 -80 22 -305 32 -395 18z m113 -329 c8 -9 70 -162 137 -341 68 -179 126 -328 129 -332 15 -18 31 19 75 172 36 127 53 170 72 188 47 42 66 33 196 -103 l121 -125 103 0 104 0 0 -85 0 -85 -127 0 -128 0 -88 90 c-88 91 -111 105 -121 73 -10 -36 -108 -379 -113 -398 -17 -62 -94 -87 -130 -42 -10 13 -69 159 -132 325 -68 181 -119 302 -127 302 -15 0 -11 15 -105 -484 -39 -209 -75 -388 -80 -399 -22 -41 -89 -41 -116 0 -9 13 -54 134 -99 269 -46 135 -86 249 -89 255 -4 5 -76 9 -166 9 l-159 0 0 85 0 85 184 0 c106 0 196 -5 214 -11 34 -12 40 -25 103 -216 19 -60 39 -103 46 -103 7 0 13 3 13 8 0 4 11 66 25 137 31 167 80 429 106 570 11 61 25 122 31 137 17 45 89 56 121 19z"/>
<path d="M3895 3839 c-138 -18 -293 -77 -415 -158 -75 -49 -203 -173 -255 -246 -101 -141 -170 -327 -183 -492 -25 -308 76 -587 288 -801 122 -122 287 -217 460 -263 122 -33 366 -34 489 -1 562 148 879 721 706 1277 -75 240 -252 453 -478 575 -183 99 -401 138 -612 109z"/>
</g>


</svg>