<!DOCTYPE svg PUBLIC "-//W3C//DTD SVG 20010904//EN" "http://www.w3.org/TR/2001/REC-SVG-20010904/DTD/svg10.dtd">
<svg version="1.0" xmlns="http://www.w3.org/2000/svg" width="882px" height="882px" viewBox="0 0 8820 8820" preserveAspectRatio="xMidYMid meet">
<g id="layer101" fill="#be6200" stroke="none">
<path d="M4095 8759 c-1415 -101 -2702 -892 -3440 -2114 -455 -754 -676 -1667 -614 -2547 69 -1000 455 -1903 1134 -2659 526 -585 1265 -1044 2025 -1259 275 -77 626 -140 872 -156 59 -4 105 -11 102 -15 -3 -5 98 -9 226 -9 127 0 229 4 226 9 -3 4 47 11 112 15 152 9 430 49 606 87 757 166 1429 515 2024 1051 305 275 642 695 844 1053 486 860 670 1824 532 2795 -126 891 -508 1688 -1131 2365 -221 241 -489 468 -778 659 -243 161 -467 283 -716 389 -622 265 -1340 384 -2024 336z m2439 -1054 c234 -44 500 -191 740 -408 96 -88 120 -125 113 -178 -5 -39 -22 -64 -106 -154 -169 -181 -416 -355 -601 -424 -205 -76 -418 -82 -616 -15 -199 67 -427 218 -616 411 -183 186 -183 212 0 376 227 205 475 341 712 391 86 19 280 20 374 1z"/>
<path d="M6270 7509 c-71 -14 -165 -67 -218 -123 -233 -247 -99 -634 241 -697 209 -39 429 126 468 350 22 123 -29 268 -126 360 -104 98 -230 136 -365 110z m173 -169 c128 -48 195 -189 152 -320 -34 -103 -140 -180 -245 -180 -64 0 -143 36 -188 84 -125 135 -76 349 94 416 64 25 120 25 187 0z"/>
<path d="M6758 7424 c144 -181 148 -424 11 -632 l-22 -33 38 21 c115 65 348 254 397 322 l22 31 -65 59 c-107 97 -320 241 -390 263 -20 7 -19 4 9 -31z"/>
<path d="M5875 7417 c-111 -60 -299 -199 -359 -265 -18 -20 -17 -22 15 -62 69 -84 325 -288 392 -313 23 -8 23 -9 -18 59 -20 33 -43 82 -51 109 -22 68 -29 189 -15 256 13 64 59 164 97 214 34 44 18 45 -61 2z"/>
</g>
<g id="layer102" fill="#bf5a11" stroke="none">
<path d="M4095 8759 c-1415 -101 -2702 -892 -3440 -2114 -455 -754 -676 -1667 -614 -2547 69 -1000 455 -1903 1134 -2659 120 -133 278 -283 436 -416 870 -728 2012 -1091 3139 -998 993 81 1868 461 2618 1137 305 275 642 695 844 1053 486 860 670 1824 532 2795 -126 891 -508 1688 -1131 2365 -221 241 -489 468 -778 659 -243 161 -467 283 -716 389 -622 265 -1340 384 -2024 336z m2439 -1054 c234 -44 500 -191 740 -408 96 -88 120 -125 113 -178 -5 -39 -22 -64 -106 -154 -169 -181 -416 -355 -601 -424 -205 -76 -418 -82 -616 -15 -199 67 -427 218 -616 411 -183 186 -183 212 0 376 227 205 475 341 712 391 86 19 280 20 374 1z m-5057 -772 c-4 -3 -7 0 -7 7 0 7 3 10 7 7 3 -4 3 -10 0 -14z m3937 3 c6 -2 -874 -5 -1956 -5 -1083 -1 -1968 2 -1968 6 0 8 3906 7 3924 -1z m1891 -2814 c38 -7 42 -24 5 -20 l-35 3 -5 1413 c-3 778 -3 1416 0 1419 3 2 7 -629 10 -1404 5 -1398 5 -1408 25 -1411z m-5845 1393 l0 -1415 -71 0 c-47 0 -68 3 -64 11 4 6 21 9 39 8 17 -1 43 -1 59 0 l27 1 0 1405 c0 773 2 1405 5 1405 3 0 5 -637 5 -1415z m3200 1108 c0 -13 -3 -15 -8 -5 -7 9 -71 12 -288 10 l-279 -3 -3 -506 -2 -506 37 -5 c31 -4 500 -3 525 1 4 0 9 225 11 499 l2 497 3 -507 2 -508 -295 0 -295 0 0 525 0 525 295 0 c274 0 295 -1 295 -17z m-2452 -505 l-3 -223 -222 -3 -223 -2 0 225 0 225 225 0 225 0 -2 -222z m742 -3 l0 -225 -222 2 c-214 3 -223 4 -227 23 -3 19 -3 19 16 2 18 -16 40 -17 219 -15 l199 3 3 213 2 212 -206 0 c-185 0 -208 -2 -220 -17 -12 -17 -13 -16 -14 5 l0 22 225 0 225 0 0 -225z m749 179 c1 -30 -2 -44 -8 -39 -6 3 -11 22 -11 41 l0 34 -207 -2 -208 -3 -3 -204 c-2 -149 1 -207 9 -212 7 -4 98 -8 203 -8 187 -2 191 -1 209 21 l18 23 -3 -25 -3 -25 -222 -3 -223 -2 0 225 0 225 223 0 223 0 3 -46z m1781 -179 l0 -225 -220 0 -220 0 0 23 c1 20 2 20 11 5 9 -16 30 -18 214 -18 l205 0 0 215 0 215 -209 0 -210 0 -4 -42 -4 -43 -1 48 -2 47 220 0 220 0 0 -225z m750 0 l0 -225 -225 0 -225 0 0 225 0 225 225 0 225 0 0 -225z m740 0 l0 -225 -219 0 c-218 0 -219 0 -225 23 -8 29 -8 221 0 335 l7 92 218 0 219 0 0 -225z m-4760 -746 l0 -219 -225 0 -225 0 0 220 0 220 208 -2 207 -3 -202 -2 -203 -3 0 -210 0 -210 210 0 c161 0 210 3 210 13 1 6 0 106 0 220 0 142 3 207 10 202 6 -4 10 -85 10 -226z m740 4 l0 -223 -225 0 c-225 0 -225 0 -225 22 0 20 1 20 13 5 11 -16 33 -17 217 -15 l205 3 2 208 2 207 -209 0 c-189 0 -210 -2 -219 -17 -9 -16 -10 -16 -11 4 0 23 0 23 213 25 116 2 218 3 225 4 9 0 12 -50 12 -223z m746 183 c1 -20 -2 -33 -7 -30 -5 3 -9 16 -9 30 l0 24 -207 -2 -208 -3 0 -205 0 -205 199 -3 c126 -1 203 1 210 8 14 14 23 12 23 -5 0 -13 -32 -15 -224 -15 l-223 0 0 223 0 222 222 -2 223 -2 1 -35z m1764 34 c0 -6 -73 -9 -202 -8 l-203 2 200 6 c110 3 201 7 203 8 1 1 2 -2 2 -8z m17 -102 c-2 -24 -4 -7 -4 37 0 44 2 63 4 43 2 -21 2 -57 0 -80z m1268 92 l-200 -5 -5 -165 c-4 -138 -6 -156 -13 -110 -5 30 -6 100 -3 155 3 55 5 109 6 120 0 20 5 20 207 15 l208 -5 -200 -5z m-1698 -22 c-3 -7 -5 -2 -5 12 0 14 2 19 5 13 2 -7 2 -19 0 -25z m956 -396 l212 3 3 199 c1 136 -1 203 -9 212 -9 11 -8 14 5 14 14 0 16 -24 16 -220 l0 -220 -225 0 -225 0 2 223 3 222 2 -218 3 -217 213 2z m-140 421 c-13 -2 -33 -2 -45 0 -13 2 -3 4 22 4 25 0 35 -2 23 -4z m250 0 c-40 -2 -107 -2 -150 0 -43 1 -10 3 72 3 83 0 118 -2 78 -3z m857 -213 l0 -220 -219 0 -219 0 -3 44 c-2 24 -1 42 4 39 4 -2 7 -20 7 -39 l0 -34 208 2 207 3 0 213 c0 116 3 212 8 212 4 0 7 -99 7 -220z m-4450 145 c0 -8 -4 -17 -10 -20 -6 -4 -10 5 -10 20 0 15 4 24 10 20 6 -3 10 -12 10 -20z m2527 -57 c-2 -18 -4 -6 -4 27 0 33 2 48 4 33 2 -15 2 -42 0 -60z m-1347 6 c0 -26 -4 -43 -9 -39 -6 3 -8 22 -6 43 3 42 3 42 10 42 3 0 5 -21 5 -46z m1777 -166 c-2 -29 -3 -8 -3 47 0 55 1 79 3 53 2 -26 2 -71 0 -100z m-2966 -71 c-8 -8 -11 -3 -11 19 1 25 2 27 11 11 8 -14 8 -22 0 -30z m1186 -4 c-4 -17 -4 -17 -12 0 -4 9 -4 25 0 35 8 16 8 16 12 0 3 -10 3 -26 0 -35z m1783 -33 l0 -40 -220 0 -220 0 1 33 c2 30 2 30 6 5 l4 -28 210 0 209 0 0 35 c0 19 2 35 5 35 3 0 5 -18 5 -40z m-3272 -562 c-2 -178 -6 -222 -17 -226 -9 -3 -11 0 -6 9 5 7 8 101 7 208 -1 108 -2 202 -2 209 0 9 -49 12 -210 12 l-210 0 0 -215 0 -215 173 -3 172 -3 -177 -2 -178 -2 0 225 0 225 225 0 225 0 -2 -222z m742 -3 l0 -225 -222 2 c-214 3 -223 4 -226 23 -3 19 -2 19 11 2 13 -16 33 -17 218 -15 l204 3 0 210 0 210 -204 3 c-142 2 -208 -1 -217 -9 -11 -9 -14 -8 -14 5 0 14 24 16 225 16 l225 0 0 -225z m749 200 c3 -19 3 -19 -16 -2 -18 16 -40 17 -219 15 l-199 -3 -3 -202 c-2 -173 0 -203 14 -217 14 -15 14 -16 -5 -16 -21 0 -21 4 -21 225 l0 225 222 -2 c214 -3 223 -4 227 -23z m1781 -200 c0 -208 -1 -225 -17 -224 -11 0 -13 3 -5 6 9 3 12 57 12 219 l0 214 -207 -2 -207 -3 -7 -25 c-6 -23 -7 -22 -8 8 l-1 32 220 0 220 0 0 -225z m750 0 l0 -225 -187 2 -188 3 177 2 177 3 6 33 c3 17 5 113 3 212 l-3 180 -210 0 -210 0 -5 -195 -6 -195 -2 203 -2 202 225 0 225 0 0 -225z m740 0 l0 -225 -22 0 c-21 1 -21 2 -5 11 15 9 17 30 17 213 0 203 0 204 -22 210 -13 3 -107 6 -210 6 l-188 0 0 -215 0 -215 188 -3 187 -2 -191 -3 -191 -2 -8 82 c-7 82 -5 318 3 351 4 16 23 17 223 17 l219 0 0 -225z m-3274 -211 c-4 -11 -41 -14 -198 -12 l-193 3 179 2 c111 2 185 8 193 14 7 7 10 21 7 35 -3 12 -2 29 3 36 9 15 18 -55 9 -78z m806 54 c3 -7 6 -53 7 -102 2 -61 -1 -86 -8 -81 -7 3 -11 43 -11 96 l0 89 -125 0 -124 0 -4 -87 -3 -88 -2 93 -2 92 134 0 c98 0 135 -3 138 -12z m571 -61 c18 -4 17 -5 -5 -6 -24 -1 -28 3 -27 27 1 22 2 23 6 5 2 -13 13 -24 26 -26z m750 0 c31 -4 31 -4 -5 -5 -34 -2 -38 1 -37 21 1 15 3 17 6 5 2 -10 17 -18 36 -21z m-460 -4 c-45 -2 -122 -2 -170 0 -48 1 -11 3 82 3 94 0 133 -2 88 -3z m-1226 -160 c-2 -2 -37 15 -76 38 -40 23 -73 40 -75 38 -2 -2 -18 -30 -36 -61 -17 -32 -37 -61 -43 -65 -8 -5 24 58 66 128 9 14 20 10 89 -29 43 -24 77 -46 75 -49z m681 -26 c34 -60 62 -113 62 -117 0 -5 -49 -37 -109 -71 -76 -43 -108 -66 -104 -76 3 -8 30 -28 60 -45 30 -17 52 -32 50 -35 -2 -2 -35 14 -73 36 -38 23 -64 41 -57 41 7 0 10 6 8 13 -5 11 41 40 168 107 26 13 47 27 47 30 0 15 -123 220 -131 220 -6 0 -7 5 -3 11 9 15 12 10 82 -114z m-98 93 c0 -5 -5 -10 -10 -10 -6 0 -40 -18 -76 -40 -36 -22 -71 -40 -77 -40 -9 0 150 99 161 100 1 0 2 -4 2 -10z m-480 -67 c0 -24 -3 -33 -9 -25 -7 12 -4 62 5 62 2 0 4 -17 4 -37z m268 2 c-4 -19 -1 -25 13 -25 22 0 25 -15 5 -23 -15 -6 -29 16 -29 46 1 23 2 27 9 27 4 0 4 -11 2 -25z m-308 -35 c8 -5 10 -10 4 -10 -7 0 -22 9 -35 21 -19 16 -20 18 -4 10 11 -6 27 -15 35 -21z m-320 -70 l-20 -39 22 -14 c68 -40 127 -74 161 -92 21 -11 34 -21 29 -23 -9 -3 -222 116 -222 124 0 9 41 84 45 84 3 0 -4 -18 -15 -40z m3539 -34 c8 -9 11 -58 8 -152 l-3 -139 -2 143 -2 142 -31 0 c-17 0 -28 4 -24 10 9 15 41 12 54 -4z m-5026 -294 l1077 -2 0 -113 0 -112 448 -450 c246 -247 444 -447 440 -445 -4 3 -208 205 -453 449 l-445 445 0 102 c0 86 -3 103 -17 108 -9 4 -487 6 -1062 6 -575 0 -1054 0 -1063 0 -16 0 -18 13 -16 153 l2 152 6 -145 5 -145 1078 -3z m1672 122 c-11 -9 -37 -24 -58 -35 -21 -11 -63 -36 -93 -55 -57 -37 -58 -42 -17 -94 13 -17 35 -70 28 -70 -11 0 -76 133 -69 140 11 11 217 130 224 130 3 0 -4 -8 -15 -16z m810 -114 c6 -10 -108 -225 -126 -236 -8 -5 -239 122 -239 132 0 8 39 -12 134 -69 92 -54 100 -57 110 -41 6 10 25 43 42 74 17 30 41 71 52 90 12 19 22 38 22 42 0 4 -18 17 -40 28 -22 11 -40 23 -40 25 0 8 78 -33 85 -45z m2545 -17 c0 -5 -483 -8 -1072 -8 l-1073 0 -3 -108 -3 -108 -445 -446 c-244 -245 -447 -444 -449 -441 -2 2 196 204 440 448 l445 445 0 112 0 113 1080 0 c594 0 1080 -3 1080 -7z m-3315 -158 c-60 -35 -114 -63 -119 -62 -4 2 -19 23 -33 47 -13 25 -16 34 -6 21 49 -67 42 -65 103 -26 30 19 69 42 87 50 17 8 34 19 38 25 3 5 14 10 23 10 9 0 -32 -29 -93 -65z m148 -197 c8 -5 7 -8 -5 -8 -16 0 -18 12 -16 138 l2 137 3 -130 c3 -88 8 -132 16 -137z m257 206 c0 -27 -4 -43 -10 -39 -17 11 -11 85 7 85 2 0 3 -21 3 -46z m-12 -215 c-6 -4 -16 -5 -21 -2 -5 3 -3 9 4 14 8 5 14 25 15 46 2 86 8 103 11 29 3 -56 0 -82 -9 -87z m1050 -132 c50 -48 96 -95 103 -105 7 -9 -34 29 -92 85 l-104 103 -535 -535 c-294 -294 -540 -537 -547 -539 -11 -4 -1088 1063 -1080 1070 2 2 242 -235 533 -526 291 -291 533 -530 538 -530 9 0 177 166 824 812 141 142 260 257 264 255 4 -1 47 -42 96 -90z m-2278 80 c0 -1 -46 -47 -102 -102 l-103 -100 100 103 c93 95 105 107 105 99z m1745 -865 c-470 -468 -511 -507 -148 -142 276 278 566 570 645 650 79 80 145 144 148 142 2 -1 -288 -294 -645 -650z m-1293 6 c580 -583 644 -648 635 -648 -1 0 -292 290 -647 645 -355 355 -641 645 -635 645 5 0 296 -289 647 -642z"/>
<path d="M6270 7509 c-71 -14 -165 -67 -218 -123 -233 -247 -99 -634 241 -697 80 -15 149 -3 244 43 63 30 142 104 173 162 12 24 12 29 0 38 -12 8 -12 9 3 4 21 -7 34 21 49 107 21 119 -31 265 -127 356 -104 98 -230 136 -365 110z m173 -169 c132 -49 199 -197 148 -329 -20 -54 -20 -78 1 -65 6 4 8 2 4 -4 -3 -6 -15 -9 -25 -7 -11 2 -30 -9 -47 -26 -33 -35 -120 -69 -174 -69 -64 0 -143 36 -188 84 -125 135 -76 349 94 416 64 25 120 25 187 0z m-338 -401 c14 -5 0 -8 -42 -8 -34 -1 -65 3 -68 9 -7 11 81 11 110 -1z m520 1 c3 -5 1 -10 -4 -10 -6 0 -11 5 -11 10 0 6 2 10 4 10 3 0 8 -4 11 -10z m60 0 c-3 -5 -15 -10 -26 -10 -11 0 -17 5 -14 10 3 6 15 10 26 10 11 0 17 -4 14 -10z"/>
<path d="M6758 7424 c144 -181 148 -424 11 -632 l-22 -33 38 21 c46 26 153 97 177 118 14 12 15 18 7 29 -16 18 -3 29 15 14 12 -10 29 1 95 59 44 40 91 86 103 103 l22 30 -65 59 c-107 97 -320 241 -390 263 -20 7 -19 4 9 -31z m192 -491 c0 -2 -20 -3 -44 -2 -25 2 -43 5 -41 9 4 6 85 0 85 -7z"/>
<path d="M5875 7417 c-111 -60 -299 -199 -359 -265 -18 -20 -17 -22 15 -62 69 -84 325 -288 392 -313 23 -8 23 -9 -18 59 -20 33 -43 82 -51 109 -22 68 -29 189 -15 256 13 64 59 164 97 214 34 44 18 45 -61 2z m-121 -476 c3 -5 -3 -11 -14 -14 -20 -5 -26 3 -13 16 9 10 21 9 27 -2z m81 -1 c4 -6 -7 -10 -27 -10 -25 0 -29 3 -18 10 19 13 37 13 45 0z"/>
<path d="M1770 6114 l0 -215 205 2 c113 1 208 5 210 8 3 6 9 376 6 409 -1 9 -50 12 -211 12 l-210 0 0 -216z"/>
<path d="M5790 6116 l0 -214 203 0 c122 0 207 4 215 10 9 8 12 59 12 192 0 99 -3 191 -6 204 -6 22 -7 22 -215 22 l-209 0 0 -214z"/>
<path d="M6542 6118 l3 -213 205 0 205 0 3 213 2 212 -210 0 -210 0 2 -212z"/>
</g>
<g id="layer103" fill="#c4581a" stroke="none">
<path d="M4095 8759 c-1415 -101 -2702 -892 -3440 -2114 -455 -754 -676 -1667 -614 -2547 69 -1000 455 -1903 1134 -2659 120 -133 278 -283 436 -416 870 -728 2012 -1091 3139 -998 993 81 1868 461 2618 1137 305 275 642 695 844 1053 486 860 670 1824 532 2795 -126 891 -508 1688 -1131 2365 -221 241 -489 468 -778 659 -243 161 -467 283 -716 389 -622 265 -1340 384 -2024 336z m-240 -89 c3 -5 1 -10 -4 -10 -6 0 -11 5 -11 10 0 6 2 10 4 10 3 0 8 -4 11 -10z m-528 -67 c-4 -3 -10 -3 -14 0 -3 4 0 7 7 7 7 0 10 -3 7 -7z m-292 -83 c3 -5 4 -10 1 -10 -3 0 -8 5 -11 10 -3 6 -4 10 -1 10 3 0 8 -4 11 -10z m3303 -245 c-3 -3 -9 2 -12 12 -6 14 -5 15 5 6 7 -7 10 -15 7 -18z m-3923 -15 c3 -5 4 -10 1 -10 -3 0 -8 5 -11 10 -3 6 -4 10 -1 10 3 0 8 -4 11 -10z m4100 -50 c3 -5 4 -10 1 -10 -3 0 -8 5 -11 10 -3 6 -4 10 -1 10 3 0 8 -4 11 -10z m152 -107 c-4 -3 -10 -3 -14 0 -3 4 0 7 7 7 7 0 10 -3 7 -7z m-4497 -17 c0 -3 -5 -8 -12 -12 -7 -4 -8 -3 -4 4 7 12 16 16 16 8z m4537 -43 c-4 -3 -7 0 -7 7 0 7 3 10 7 7 3 -4 3 -10 0 -14z m28 -3 c3 -5 1 -10 -4 -10 -6 0 -11 5 -11 10 0 6 2 10 4 10 3 0 8 -4 11 -10z m70 -30 c3 -5 -1 -10 -10 -10 -9 0 -13 5 -10 10 3 6 8 10 10 10 2 0 7 -4 10 -10z m132 -67 c-4 -3 -10 -3 -14 0 -3 4 0 7 7 7 7 0 10 -3 7 -7z m-37 -33 c0 -5 -4 -10 -10 -10 -5 0 -10 5 -10 10 0 6 5 10 10 10 6 0 10 -4 10 -10z m120 -36 c0 -8 -19 -13 -24 -6 -3 5 1 9 9 9 8 0 15 -2 15 -3z m110 -88 c0 -3 -5 -8 -12 -12 -7 -4 -8 -3 -4 4 7 12 16 16 16 8z m-970 -30 c0 -3 -5 -8 -12 -12 -7 -4 -8 -3 -4 4 7 12 16 16 16 8z m374 -51 c234 -44 500 -191 740 -408 96 -88 120 -125 113 -178 -5 -39 -22 -64 -106 -154 -169 -181 -416 -355 -601 -424 -205 -76 -418 -82 -616 -15 -176 59 -387 192 -550 346 l-61 58 -1996 3 -1997 2 0 -1417 0 -1417 -72 -3 -73 -3 0 -140 0 -140 1078 -3 1077 -2 0 -113 0 -112 442 -442 c244 -244 447 -443 453 -443 5 0 209 199 452 442 l443 443 0 112 0 113 1080 0 1080 0 0 145 0 145 -69 0 c-39 0 -72 4 -75 9 -3 5 -6 643 -6 1417 0 1131 2 1410 12 1412 11 2 12 -271 10 -1402 l-2 -1405 32 -6 c18 -3 49 -5 68 -3 l35 3 3 -150 c1 -82 1 -159 -2 -170 -5 -20 -12 -20 -1081 -17 l-1076 2 2 -109 c1 -90 -2 -113 -15 -126 -9 -9 -14 -21 -11 -26 4 -5 0 -6 -8 -3 -8 3 -20 -2 -27 -11 -7 -8 -10 -15 -7 -15 7 0 -56 -64 -64 -65 -8 0 -104 -95 -96 -95 7 0 -56 -64 -64 -65 -8 0 -104 -95 -96 -95 7 0 -56 -64 -64 -65 -8 0 -104 -95 -96 -95 7 0 -56 -64 -64 -65 -8 0 -104 -95 -96 -95 7 0 -56 -64 -64 -65 -13 0 -58 -59 -52 -68 4 -6 0 -8 -9 -4 -19 7 -38 -11 -38 -34 0 -26 -56 -7 -90 31 -15 16 -30 27 -35 22 -4 -4 -5 -2 -2 4 6 11 -61 81 -75 77 -4 -2 -7 3 -5 10 1 6 -4 11 -10 10 -7 -2 -13 3 -13 10 0 17 -46 57 -56 49 -4 -4 -4 -2 -1 4 6 11 -61 81 -75 77 -4 -2 -7 3 -5 10 1 6 -4 11 -10 10 -7 -2 -13 3 -13 10 0 17 -46 57 -56 49 -4 -4 -4 -2 -1 4 6 11 -61 81 -75 77 -4 -2 -7 3 -5 10 1 6 -4 11 -10 10 -7 -2 -13 3 -13 10 0 17 -46 57 -56 49 -4 -4 -4 -2 -1 4 6 11 -61 81 -75 77 -4 -2 -7 3 -5 10 1 6 -4 11 -10 10 -7 -2 -13 3 -13 10 0 17 -46 57 -56 49 -4 -4 -4 -2 -1 4 6 11 -61 81 -75 77 -4 -2 -7 3 -5 10 1 6 -4 11 -10 10 -7 -2 -13 3 -13 10 0 16 -57 67 -65 58 -4 -3 -6 -1 -5 4 1 6 1 12 0 15 -11 30 -15 153 -5 170 4 6 3 19 0 30 -6 20 -15 20 -1069 20 -585 0 -1071 2 -1080 6 -14 5 -16 26 -16 153 0 80 5 153 10 161 7 11 28 15 77 15 l68 0 2 1403 c2 772 5 1408 8 1413 4 5 775 9 1993 9 l1986 0 -36 38 c-55 57 -88 112 -88 146 0 43 32 85 138 179 227 205 475 341 712 391 86 19 280 20 374 1z m-4774 -15 c0 -5 -4 -10 -10 -10 -5 0 -10 5 -10 10 0 6 5 10 10 10 6 0 10 -4 10 -10z m5120 -14 c0 -3 -5 -8 -12 -12 -7 -4 -8 -3 -4 4 7 12 16 16 16 8z m500 -116 c-6 -11 -13 -20 -16 -20 -2 0 0 9 6 20 6 11 13 20 16 20 2 0 0 -9 -6 -20z m-1670 -14 c0 -3 -5 -8 -12 -12 -7 -4 -8 -3 -4 4 7 12 16 16 16 8z m1699 -9 c8 -10 7 -14 -2 -14 -8 0 -14 6 -14 14 0 7 1 13 2 13 2 0 8 -6 14 -13z m-309 -43 c0 -8 -19 -13 -24 -6 -3 5 1 9 9 9 8 0 15 -2 15 -3z m378 -6 c16 -16 15 -25 -3 -25 -8 0 -13 3 -10 5 3 3 0 11 -6 19 -14 16 3 17 19 1z m-1968 -48 c0 -5 -2 -10 -4 -10 -3 0 -8 5 -11 10 -3 6 -1 10 4 10 6 0 11 -4 11 -10z m2017 -47 c-4 -3 -10 -3 -14 0 -3 4 0 7 7 7 7 0 10 -3 7 -7z m37 -1 c3 -5 -1 -9 -9 -9 -8 0 -12 4 -9 9 3 4 7 8 9 8 2 0 6 -4 9 -8z m-288 -44 c3 -4 -1 -5 -10 -4 -8 1 -18 5 -22 8 -3 4 1 5 10 4 8 -1 18 -5 22 -8z m59 -18 c3 -5 1 -10 -4 -10 -6 0 -11 5 -11 10 0 6 2 10 4 10 3 0 8 -4 11 -10z m-6145 -14 c0 -3 -5 -8 -12 -12 -7 -4 -8 -3 -4 4 7 12 16 16 16 8z m6165 -56 c3 -5 4 -10 1 -10 -3 0 -8 5 -11 10 -3 6 -4 10 -1 10 3 0 8 -4 11 -10z m312 -57 c-4 -3 -7 0 -7 7 0 7 3 10 7 7 3 -4 3 -10 0 -14z m-250 -60 c-4 -3 -7 0 -7 7 0 7 3 10 7 7 3 -4 3 -10 0 -14z m-2130 -10 c-4 -3 -7 0 -7 7 0 7 3 10 7 7 3 -4 3 -10 0 -14z m-4210 -30 c-4 -3 -10 -3 -14 0 -3 4 0 7 7 7 7 0 10 -3 7 -7z m6410 -35 c-3 -8 -6 -5 -6 6 -1 11 2 17 5 13 3 -3 4 -12 1 -19z m-6487 -12 c0 -3 -5 -8 -12 -12 -7 -4 -8 -3 -4 4 7 12 16 16 16 8z m-70 -60 c0 -3 -5 -8 -12 -12 -7 -4 -8 -3 -4 4 7 12 16 16 16 8z m4410 -16 c8 -5 11 -10 5 -10 -5 0 -17 5 -25 10 -8 5 -10 10 -5 10 6 0 17 -5 25 -10z m2565 -10 c3 -5 4 -10 1 -10 -3 0 -8 5 -11 10 -3 6 -4 10 -1 10 3 0 8 -4 11 -10z m106 -183 c-10 -9 -11 -8 -5 6 3 10 9 15 12 12 3 -3 0 -11 -7 -18z m-3351 -672 l0 -525 -295 0 -295 0 0 525 0 525 295 0 295 0 0 -525z m-3920 485 c0 -5 -4 -10 -10 -10 -5 0 -10 5 -10 10 0 6 5 10 10 10 6 0 10 -4 10 -10z m-25 -30 c3 -5 4 -10 1 -10 -3 0 -8 5 -11 10 -3 6 -4 10 -1 10 3 0 8 -4 11 -10z m-105 -74 c0 -3 -5 -8 -12 -12 -7 -4 -8 -3 -4 4 7 12 16 16 16 8z m-65 -106 c3 -5 4 -10 1 -10 -3 0 -8 5 -11 10 -3 6 -4 10 -1 10 3 0 8 -4 11 -10z m1663 -272 l-3 -223 -222 -3 -223 -2 0 225 0 225 225 0 225 0 -2 -222z m742 -3 l0 -225 -222 2 -223 3 -3 223 -2 222 225 0 225 0 0 -225z m747 3 l-2 -223 -222 -3 -223 -2 0 225 0 225 224 0 225 0 -2 -222z m1783 -3 l0 -225 -220 0 -220 0 0 225 0 225 220 0 220 0 0 -225z m750 0 l0 -225 -225 0 -225 0 0 225 0 225 225 0 225 0 0 -225z m740 0 l0 -225 -219 0 c-218 0 -219 0 -225 23 -8 29 -8 221 0 335 l7 92 218 0 219 0 0 -225z m1270 183 c0 -19 -2 -20 -10 -8 -13 19 -13 30 0 30 6 0 10 -10 10 -22z m-7843 -305 c-4 -3 -10 -3 -14 0 -3 4 0 7 7 7 7 0 10 -3 7 -7z m-77 -137 c0 -3 -5 -8 -12 -12 -7 -4 -8 -3 -4 4 7 12 16 16 16 8z m8167 -83 c-4 -3 -7 0 -7 7 0 7 3 10 7 7 3 -4 3 -10 0 -14z m-8202 -3 c3 -5 4 -10 1 -10 -3 0 -8 5 -11 10 -3 6 -4 10 -1 10 3 0 8 -4 11 -10z m1925 -401 l0 -219 -225 0 -225 0 0 220 0 220 218 2 c119 2 220 2 225 0 4 -2 7 -102 7 -223z m740 4 l0 -223 -225 0 -225 0 0 220 0 220 213 2 c116 2 218 3 225 4 9 0 12 -50 12 -223z m747 -3 l3 -220 -225 0 -225 0 0 223 0 222 222 -2 223 -2 2 -221z m1783 3 l0 -223 -220 0 -220 0 0 220 0 220 208 2 c114 2 213 3 220 4 9 0 12 -50 12 -223z m1490 -3 l0 -220 -220 0 -220 0 -1 43 c-4 98 -4 354 -1 377 l4 25 219 -3 219 -3 0 -219z m-740 0 l0 -220 -225 0 -225 0 0 220 0 220 225 0 225 0 0 -220z m2447 -117 c-4 -3 -7 0 -7 7 0 7 3 10 7 7 3 -4 3 -10 0 -14z m-8537 -308 c0 -8 -2 -15 -4 -15 -2 0 -6 7 -10 15 -3 8 -1 15 4 15 6 0 10 -7 10 -15z m2068 -317 l-3 -223 -222 -3 -223 -2 0 225 0 225 225 0 225 0 -2 -222z m742 -3 l0 -225 -222 2 -223 3 -3 223 -2 222 225 0 225 0 0 -225z m745 0 l0 -220 -222 -3 -223 -2 0 225 0 225 223 -2 222 -3 0 -220z m1785 0 c0 -200 -2 -225 -16 -225 -12 0 -14 5 -8 18 5 9 10 106 12 215 l3 197 -208 -2 -208 -3 0 -200 0 -200 180 -1 c211 -2 205 -1 205 -14 0 -6 -73 -10 -200 -10 l-200 0 0 225 0 225 220 0 220 0 0 -225z m750 0 l0 -225 -225 0 -225 0 0 225 0 225 225 0 225 0 0 -225z m740 0 l0 -225 -219 0 -218 0 -8 82 c-7 82 -5 318 3 351 4 16 23 17 223 17 l219 0 0 -225z m-2467 -157 c2 -7 4 -66 3 -130 -1 -144 -4 -143 141 -59 l102 59 66 -116 c36 -63 64 -120 63 -124 -2 -5 -48 -35 -103 -67 -70 -40 -100 -63 -100 -76 0 -13 28 -34 94 -71 52 -29 98 -57 104 -63 6 -6 -12 -47 -53 -120 -34 -61 -66 -114 -71 -117 -5 -3 -56 21 -112 54 -56 32 -110 62 -119 65 -20 7 -24 27 -5 26 6 0 32 -14 57 -30 25 -16 57 -35 73 -41 15 -7 27 -16 27 -20 0 -4 7 -5 15 -2 9 4 15 0 15 -9 0 -23 36 -27 54 -6 19 22 21 33 4 23 -7 -4 -8 -3 -4 4 4 7 14 12 22 12 8 0 14 6 14 14 0 17 39 87 55 99 6 4 5 10 -5 17 -12 8 -10 10 10 10 25 1 25 1 -5 17 -16 9 -32 19 -35 23 -6 8 -117 65 -142 73 -9 3 -19 1 -22 -6 -3 -7 -3 -2 -1 10 3 12 2 24 -4 27 -18 12 1 43 35 55 19 7 34 17 34 22 0 5 3 8 8 7 11 -4 72 26 72 34 0 5 6 8 14 8 7 0 19 7 26 15 7 8 17 12 22 9 16 -10 -1 36 -35 93 -27 46 -32 50 -43 35 -12 -15 -13 -15 -14 -2 0 9 5 21 11 27 7 7 6 15 -5 26 -9 9 -16 20 -16 26 0 16 -18 13 -48 -7 -15 -10 -39 -24 -54 -31 -15 -8 -37 -22 -47 -33 -11 -10 -27 -18 -35 -18 -8 0 -21 -8 -28 -17 -20 -27 -41 -28 -33 -2 5 15 4 19 -4 15 -8 -5 -11 30 -12 121 -1 70 -1 130 -1 133 0 3 -53 4 -119 2 l-119 -3 -1 -82 c-2 -133 -1 -161 6 -182 l8 -20 -19 20 c-18 18 -19 33 -16 153 l4 132 133 0 c97 0 134 -3 138 -12z m-288 -269 c5 -5 1 -9 -13 -9 -12 0 -26 9 -32 20 -6 11 -20 20 -31 20 -11 0 -32 11 -47 25 -15 14 -38 28 -52 32 -14 3 -28 11 -33 17 -5 7 -11 5 -17 -6 -6 -9 -16 -23 -24 -30 -7 -8 -16 -23 -20 -35 -4 -11 -18 -33 -32 -49 -15 -18 -23 -38 -21 -51 3 -15 0 -20 -10 -16 -7 3 -13 2 -13 -2 0 -12 44 -44 61 -45 9 0 24 -9 34 -20 10 -11 24 -20 32 -20 7 0 13 -3 13 -7 0 -9 49 -33 67 -33 7 0 13 -3 14 -7 0 -5 2 -15 4 -24 2 -11 -18 -27 -64 -52 -36 -20 -75 -44 -86 -55 -12 -10 -33 -22 -48 -26 -28 -7 -35 -20 -17 -31 6 -3 10 -15 10 -25 0 -10 6 -23 13 -27 6 -4 28 -38 46 -75 19 -38 37 -68 39 -68 7 0 98 53 121 71 13 10 29 19 36 19 7 0 18 7 26 16 7 9 22 14 36 11 13 -2 20 0 16 6 -3 5 0 8 8 5 11 -4 15 -35 17 -141 l3 -137 120 0 120 0 -3 134 c-2 103 0 132 9 124 15 -12 18 -265 3 -270 -5 -2 -68 -2 -140 0 l-130 3 0 130 c0 111 -2 129 -16 129 -8 0 -63 -28 -121 -62 -123 -71 -101 -80 -190 75 -66 116 -74 96 74 180 51 29 93 57 93 62 0 6 -49 39 -110 74 -60 34 -110 65 -110 69 0 3 30 58 66 123 l67 117 111 -65 c61 -35 115 -68 121 -74z m58 76 c-3 -9 -8 -14 -10 -11 -3 3 -2 9 2 15 9 16 15 13 8 -4z m424 -12 c-4 -3 -7 0 -7 7 0 7 3 10 7 7 3 -4 3 -10 0 -14z m-410 -20 c-4 -3 -7 0 -7 7 0 7 3 10 7 7 3 -4 3 -10 0 -14z m-80 -70 c-4 -3 -10 -3 -14 0 -3 4 0 7 7 7 7 0 10 -3 7 -7z m-2830 -30 c-4 -3 -7 0 -7 7 0 7 3 10 7 7 3 -4 3 -10 0 -14z m2618 -13 c3 -5 -1 -10 -9 -10 -9 0 -16 5 -16 10 0 6 4 10 9 10 6 0 13 -4 16 -10z m162 -197 c-4 -3 -10 -3 -14 0 -3 4 0 7 7 7 7 0 10 -3 7 -7z m-177 -159 c0 -8 -4 -14 -10 -14 -5 0 -10 9 -10 21 0 11 5 17 10 14 6 -3 10 -13 10 -21z m587 -31 c-4 -3 -7 0 -7 7 0 7 3 10 7 7 3 -4 3 -10 0 -14z m73 -13 c0 -5 -4 -10 -10 -10 -5 0 -10 5 -10 10 0 6 5 10 10 10 6 0 10 -4 10 -10z m-3283 -17 c-4 -3 -7 0 -7 7 0 7 3 10 7 7 3 -4 3 -10 0 -14z m2063 3 c0 -3 -4 -8 -10 -11 -5 -3 -10 -1 -10 4 0 6 5 11 10 11 6 0 10 -2 10 -4z m3997 -13 c-4 -3 -10 -3 -14 0 -3 4 0 7 7 7 7 0 10 -3 7 -7z m-3450 -20 c-4 -3 -7 0 -7 7 0 7 3 10 7 7 3 -4 3 -10 0 -14z m770 -30 c-4 -3 -7 0 -7 7 0 7 3 10 7 7 3 -4 3 -10 0 -14z m-1345 -15 c-7 -7 -12 -8 -12 -2 0 6 3 14 7 17 3 4 9 5 12 2 2 -3 -1 -11 -7 -17z m2093 -138 c3 -5 1 -10 -4 -10 -6 0 -11 5 -11 10 0 6 2 10 4 10 3 0 8 -4 11 -10z m-2230 -20 c3 -5 1 -10 -4 -10 -6 0 -11 5 -11 10 0 6 2 10 4 10 3 0 8 -4 11 -10z m65 0 c0 -5 -5 -10 -11 -10 -5 0 -7 5 -4 10 3 6 8 10 11 10 2 0 4 -4 4 -10z m40 -34 c0 -3 -5 -8 -12 -12 -7 -4 -8 -3 -4 4 7 12 16 16 16 8z m2145 -16 c3 -5 4 -10 1 -10 -3 0 -8 5 -11 10 -3 6 -4 10 -1 10 3 0 8 -4 11 -10z m-2155 -84 c61 -60 66 -64 86 -51 28 18 39 7 17 -17 -16 -18 -14 -22 52 -88 65 -64 71 -68 91 -55 28 18 39 7 17 -17 -16 -18 -14 -22 52 -88 65 -64 71 -68 91 -55 28 18 39 7 17 -17 -16 -18 -14 -22 52 -88 65 -64 71 -68 91 -55 28 18 39 7 17 -17 -16 -18 -14 -22 52 -88 65 -64 71 -68 91 -55 28 18 39 7 17 -17 -16 -18 -14 -22 52 -88 65 -64 71 -68 91 -55 28 18 39 7 17 -17 -15 -17 -13 -22 46 -83 l63 -65 236 235 c131 129 240 238 245 242 4 5 38 40 76 78 38 39 74 75 80 80 6 6 42 42 80 80 38 39 74 75 80 80 6 6 42 42 80 80 37 39 74 75 82 81 8 6 36 36 63 67 26 32 55 57 63 57 8 0 29 -15 47 -33 17 -19 39 -37 49 -40 10 -4 15 -11 12 -17 -3 -5 1 -10 10 -10 9 0 14 -3 12 -7 -6 -10 49 -64 56 -57 3 3 8 -4 12 -15 3 -12 11 -21 16 -21 21 0 7 -51 -21 -77 -19 -17 -30 -35 -28 -47 2 -14 -2 -20 -12 -18 -8 2 -20 -5 -27 -14 -7 -10 -13 -14 -13 -9 0 5 -13 -4 -29 -20 -17 -17 -44 -43 -60 -60 -17 -16 -31 -33 -31 -37 0 -11 -38 -48 -50 -48 -5 0 -13 -6 -17 -12 -4 -7 -33 -36 -64 -65 -31 -29 -54 -55 -50 -59 3 -4 0 -3 -8 1 -11 6 -13 4 -8 -9 4 -9 3 -15 -2 -12 -10 7 -150 -131 -142 -140 3 -4 0 -3 -8 1 -11 6 -13 4 -8 -9 4 -9 3 -15 -2 -12 -10 7 -150 -131 -142 -140 3 -4 0 -3 -8 1 -11 6 -13 4 -8 -9 4 -9 3 -15 -2 -12 -10 7 -150 -131 -142 -140 3 -4 0 -3 -8 1 -11 6 -13 4 -8 -9 4 -9 3 -15 -2 -12 -10 7 -150 -131 -142 -140 3 -4 0 -3 -8 1 -11 6 -13 4 -8 -9 4 -9 3 -15 -1 -12 -12 7 -164 -143 -157 -155 4 -5 1 -8 -6 -7 -7 2 -18 -7 -23 -19 -12 -25 -44 -37 -61 -23 -7 6 -15 7 -18 3 -4 -3 -7 -2 -7 4 0 12 -990 1006 -991 995 0 -4 -4 3 -10 16 -5 13 -12 21 -17 18 -4 -2 -16 7 -26 22 -10 15 -32 36 -50 48 -17 11 -31 25 -30 30 0 5 -13 22 -29 38 -15 17 -27 26 -25 20 2 -5 -1 -9 -7 -9 -5 0 -9 4 -7 9 1 4 -12 22 -30 39 -49 47 -59 76 -34 101 12 12 24 20 28 19 14 -5 20 39 7 48 -7 4 -10 11 -6 16 5 4 12 1 16 -6 9 -13 53 -7 48 8 -1 4 16 22 38 41 22 19 47 43 55 52 8 10 17 18 20 18 3 0 34 -29 70 -64z m190 24 c0 -5 -4 -10 -10 -10 -5 0 -10 5 -10 10 0 6 5 10 10 10 6 0 10 -4 10 -10z m1580 6 c0 -3 -5 -8 -12 -12 -7 -4 -8 -3 -4 4 7 12 16 16 16 8z m-1623 -23 c-4 -3 -10 -3 -14 0 -3 4 0 7 7 7 7 0 10 -3 7 -7z m2193 -87 c-13 -13 -35 7 -25 24 5 8 11 8 21 -1 10 -8 12 -15 4 -23z m-5465 -56 c3 -5 4 -10 1 -10 -3 0 -8 5 -11 10 -3 6 -4 10 -1 10 3 0 8 -4 11 -10z m3475 0 c0 -5 -4 -10 -10 -10 -5 0 -10 5 -10 10 0 6 5 10 10 10 6 0 10 -4 10 -10z m1260 6 c0 -3 -5 -8 -12 -12 -7 -4 -8 -3 -4 4 7 12 16 16 16 8z m-1303 -23 c-4 -3 -10 -3 -14 0 -3 4 0 7 7 7 7 0 10 -3 7 -7z m2103 -23 c0 -5 -4 -10 -10 -10 -5 0 -10 5 -10 10 0 6 5 10 10 10 6 0 10 -4 10 -10z m-80 -94 c0 -3 -4 -8 -10 -11 -5 -3 -10 -1 -10 4 0 6 5 11 10 11 6 0 10 -2 10 -4z m-2633 -33 c-4 -3 -7 0 -7 7 0 7 3 10 7 7 3 -4 3 -10 0 -14z m813 7 c0 -5 -4 -10 -10 -10 -5 0 -10 5 -10 10 0 6 5 10 10 10 6 0 10 -4 10 -10z m940 6 c0 -3 -5 -8 -12 -12 -7 -4 -8 -3 -4 4 7 12 16 16 16 8z m-983 -23 c-4 -3 -10 -3 -14 0 -3 4 0 7 7 7 7 0 10 -3 7 -7z m1740 -80 c-4 -3 -10 -3 -14 0 -3 4 0 7 7 7 7 0 10 -3 7 -7z m-1537 -63 c0 -5 -4 -10 -10 -10 -5 0 -10 5 -10 10 0 6 5 10 10 10 6 0 10 -4 10 -10z m620 6 c0 -3 -5 -8 -12 -12 -7 -4 -8 -3 -4 4 7 12 16 16 16 8z m-663 -23 c-4 -3 -10 -3 -14 0 -3 4 0 7 7 7 7 0 10 -3 7 -7z m-594 -78 c-3 -9 -8 -14 -10 -11 -3 3 -2 9 2 15 9 16 15 13 8 -4z m5062 -25 c3 -5 4 -10 1 -10 -3 0 -8 5 -11 10 -3 6 -4 10 -1 10 3 0 8 -4 11 -10z m-5008 -37 c-4 -3 -10 -3 -14 0 -3 4 0 7 7 7 7 0 10 -3 7 -7z m743 -3 c0 -5 -4 -10 -10 -10 -5 0 -10 5 -10 10 0 6 5 10 10 10 6 0 10 -4 10 -10z m-43 -17 c-4 -3 -10 -3 -14 0 -3 4 0 7 7 7 7 0 10 -3 7 -7z m560 0 c-4 -3 -10 -3 -14 0 -3 4 0 7 7 7 7 0 10 -3 7 -7z m-1154 -78 c-3 -9 -8 -14 -10 -11 -3 3 -2 9 2 15 9 16 15 13 8 -4z m54 -62 c-4 -3 -10 -3 -14 0 -3 4 0 7 7 7 7 0 10 -3 7 -7z m700 -20 c-4 -3 -10 -3 -14 0 -3 4 0 7 7 7 7 0 10 -3 7 -7z m240 0 c-4 -3 -10 -3 -14 0 -3 4 0 7 7 7 7 0 10 -3 7 -7z m-4000 -10 c-4 -3 -10 -3 -14 0 -3 4 0 7 7 7 7 0 10 -3 7 -7z m3166 -68 c-3 -9 -8 -14 -10 -11 -3 3 -2 9 2 15 9 16 15 13 8 -4z m54 -62 c-4 -3 -10 -3 -14 0 -3 4 0 7 7 7 7 0 10 -3 7 -7z m623 -39 c0 -8 -19 -13 -24 -6 -3 5 1 9 9 9 8 0 15 -2 15 -3z m-517 -59 c-3 -9 -8 -14 -10 -11 -3 3 -2 9 2 15 9 16 15 13 8 -4z m-3268 -25 c3 -5 4 -10 1 -10 -3 0 -8 5 -11 10 -3 6 -4 10 -1 10 3 0 8 -4 11 -10z m3322 -37 c-4 -3 -10 -3 -14 0 -3 4 0 7 7 7 7 0 10 -3 7 -7z m106 -98 c-3 -9 -8 -14 -10 -11 -3 3 -2 9 2 15 9 16 15 13 8 -4z m4127 1 c0 -3 -5 -8 -12 -12 -7 -4 -8 -3 -4 4 7 12 16 16 16 8z m-4073 -63 c-4 -3 -10 -3 -14 0 -3 4 0 7 7 7 7 0 10 -3 7 -7z m4040 0 c-4 -3 -10 -3 -14 0 -3 4 0 7 7 7 7 0 10 -3 7 -7z m-7347 -17 c0 -2 -7 -7 -16 -10 -8 -3 -12 -2 -9 4 6 10 25 14 25 6z m25 -66 c3 -5 4 -10 1 -10 -3 0 -8 5 -11 10 -3 6 -4 10 -1 10 3 0 8 -4 11 -10z m3388 -15 c-3 -9 -8 -14 -10 -11 -3 3 -2 9 2 15 9 16 15 13 8 -4z m54 -62 c-4 -3 -10 -3 -14 0 -3 4 0 7 7 7 7 0 10 -3 7 -7z m3723 -43 c0 -5 -2 -10 -4 -10 -3 0 -8 5 -11 10 -3 6 -1 10 4 10 6 0 11 -4 11 -10z m-3605 -30 c4 -6 -1 -7 -11 -3 -13 5 -15 3 -9 -7 5 -9 4 -11 -4 -6 -6 4 -9 12 -6 17 8 12 22 12 30 -1z m3525 -10 c0 -5 -4 -10 -10 -10 -5 0 -10 5 -10 10 0 6 5 10 10 10 6 0 10 -4 10 -10z m-6955 -40 c3 -5 4 -10 1 -10 -3 0 -8 5 -11 10 -3 6 -4 10 -1 10 3 0 8 -4 11 -10z m6945 -58 c0 -5 -7 -9 -15 -9 -8 0 -12 4 -9 9 3 4 9 8 15 8 5 0 9 -4 9 -8z m-6810 -52 c0 -5 -5 -10 -11 -10 -5 0 -7 5 -4 10 3 6 8 10 11 10 2 0 4 -4 4 -10z m6510 -110 c0 -5 -7 -10 -15 -10 -8 0 -15 5 -15 10 0 6 7 10 15 10 8 0 15 -4 15 -10z m-6435 -50 c3 -5 1 -10 -4 -10 -6 0 -11 5 -11 10 0 6 2 10 4 10 3 0 8 -4 11 -10z m6455 -25 c-7 -8 -17 -15 -22 -15 -6 0 -5 7 2 15 7 8 17 15 22 15 6 0 5 -7 -2 -15z m37 -67 c-3 -8 -6 -5 -6 6 -1 11 2 17 5 13 3 -3 4 -12 1 -19z m-6347 -59 c0 -6 -4 -7 -10 -4 -5 3 -10 11 -10 16 0 6 5 7 10 4 6 -3 10 -11 10 -16z m6164 -24 c-4 -8 -13 -15 -21 -15 -13 0 -13 3 -3 15 7 8 16 15 21 15 5 0 6 -7 3 -15z m-6114 -40 c7 -9 8 -15 2 -15 -5 0 -12 7 -16 15 -3 8 -4 15 -2 15 2 0 9 -7 16 -15z m5890 -80 c0 -8 -4 -15 -10 -15 -5 0 -10 7 -10 15 0 8 5 15 10 15 6 0 10 -7 10 -15z m-5810 1 c0 -3 -5 -8 -12 -12 -7 -4 -8 -3 -4 4 7 12 16 16 16 8z m150 -6 c0 -5 -7 -7 -15 -4 -8 4 -15 8 -15 10 0 2 7 4 15 4 8 0 15 -4 15 -10z m5740 -10 c0 -5 -2 -10 -4 -10 -3 0 -8 5 -11 10 -3 6 -1 10 4 10 6 0 11 -4 11 -10z m-5813 -7 c-4 -3 -10 -3 -14 0 -3 4 0 7 7 7 7 0 10 -3 7 -7z m5876 -38 c-3 -9 -8 -14 -10 -11 -3 3 -2 9 2 15 9 16 15 13 8 -4z m-115 -95 c-7 -11 -17 -20 -22 -20 -5 0 -1 9 9 20 10 11 20 20 22 20 2 0 -2 -9 -9 -20z m-188 -10 c0 -5 -2 -10 -4 -10 -3 0 -8 5 -11 10 -3 6 -1 10 4 10 6 0 11 -4 11 -10z m10 -134 c0 -3 -5 -8 -12 -12 -7 -4 -8 -3 -4 4 7 12 16 16 16 8z m-110 -16 c0 -5 -4 -10 -10 -10 -5 0 -10 5 -10 10 0 6 5 10 10 10 6 0 10 -4 10 -10z m17 -37 c-4 -3 -10 -3 -14 0 -3 4 0 7 7 7 7 0 10 -3 7 -7z m-77 -67 c0 -3 -5 -8 -12 -12 -7 -4 -8 -3 -4 4 7 12 16 16 16 8z m-4753 -153 c-4 -3 -10 -3 -14 0 -3 4 0 7 7 7 7 0 10 -3 7 -7z m4513 -7 c0 -3 -5 -8 -12 -12 -7 -4 -8 -3 -4 4 7 12 16 16 16 8z m-185 -116 c3 -5 4 -10 1 -10 -3 0 -8 5 -11 10 -3 6 -4 10 -1 10 3 0 8 -4 11 -10z m-438 -197 c-4 -3 -10 -3 -14 0 -3 4 0 7 7 7 7 0 10 -3 7 -7z m-3007 -43 c8 -5 11 -10 5 -10 -5 0 -17 5 -25 10 -8 5 -10 10 -5 10 6 0 17 -5 25 -10z m837 -237 c-4 -3 -10 -3 -14 0 -3 4 0 7 7 7 7 0 10 -3 7 -7z"/>
<path d="M6270 7509 c-161 -31 -303 -179 -330 -345 -14 -80 9 -232 32 -217 6 3 44 5 84 4 41 -1 74 0 74 1 0 2 -9 28 -21 58 -51 133 16 280 148 330 68 25 118 25 186 0 135 -51 200 -200 145 -335 l-24 -60 48 3 c26 2 48 8 48 13 0 5 5 9 11 9 5 0 7 -4 4 -10 -4 -6 5 -10 19 -10 14 0 26 -4 26 -9 0 -5 -38 -8 -85 -7 -81 2 -86 1 -112 -26 -32 -34 -119 -68 -173 -68 -57 0 -141 35 -180 75 -26 26 -37 32 -47 24 -8 -7 -39 -10 -78 -7 -76 5 -80 -2 -36 -66 90 -131 267 -208 408 -177 182 41 313 174 344 350 22 123 -29 268 -126 360 -104 98 -230 136 -365 110z m315 -89 c3 -5 4 -10 1 -10 -3 0 -8 5 -11 10 -3 6 -4 10 -1 10 3 0 8 -4 11 -10z m-468 -37 c-4 -3 -10 -3 -14 0 -3 4 0 7 7 7 7 0 10 -3 7 -7z m40 -10 c-4 -3 -10 -3 -14 0 -3 4 0 7 7 7 7 0 10 -3 7 -7z m533 -67 c0 -3 -5 -8 -12 -12 -7 -4 -8 -3 -4 4 7 12 16 16 16 8z m-590 -40 c0 -3 -5 -8 -12 -12 -7 -4 -8 -3 -4 4 7 12 16 16 16 8z m537 -93 c-4 -3 -7 0 -7 7 0 7 3 10 7 7 3 -4 3 -10 0 -14z m23 -158 c0 -8 -4 -15 -10 -15 -5 0 -10 7 -10 15 0 8 5 15 10 15 6 0 10 -7 10 -15z"/>
<path d="M6759 7423 c143 -180 147 -423 10 -631 l-22 -33 38 21 c54 30 183 118 189 129 10 16 -15 24 -71 23 -30 0 -51 4 -47 9 3 5 37 9 75 9 49 0 68 -3 63 -11 -4 -8 -1 -8 12 -1 29 16 194 177 194 190 0 16 -149 142 -249 210 -82 57 -197 122 -214 122 -4 0 5 -17 22 -37z"/>
<path d="M5875 7417 c-111 -60 -299 -199 -359 -265 -18 -20 -17 -22 15 -62 69 -84 325 -288 392 -313 23 -8 23 -9 -18 59 -20 33 -43 82 -51 109 -22 68 -29 189 -15 256 13 64 59 164 97 214 34 44 18 45 -61 2z m-118 -124 c-4 -3 -7 0 -7 7 0 7 3 10 7 7 3 -4 3 -10 0 -14z m-17 3 c0 -3 -5 -8 -12 -12 -7 -4 -8 -3 -4 4 7 12 16 16 16 8z m104 -355 c4 -5 -23 -11 -59 -13 -45 -2 -66 1 -70 10 -5 14 120 18 129 3z"/>
<path d="M4090 6115 l0 -505 280 0 281 0 -3 503 -3 502 -230 1 c-126 0 -238 -3 -247 -8 -10 -5 -19 -4 -23 2 -3 5 -17 10 -31 10 l-24 0 0 -505z m17 448 c-4 -3 -7 0 -7 7 0 7 3 10 7 7 3 -4 3 -10 0 -14z"/>
<path d="M1770 6120 l0 -210 208 2 207 3 3 207 2 206 -210 1 -210 2 0 -211z"/>
<path d="M2527 6263 c-4 -38 -7 -132 -7 -210 l0 -143 205 0 205 0 0 204 c0 203 0 204 -22 210 -13 3 -102 6 -199 6 l-176 0 -6 -67z m380 -20 c-4 -3 -7 0 -7 7 0 7 3 10 7 7 3 -4 3 -10 0 -14z"/>
<path d="M3281 6316 c-8 -9 -11 -73 -9 -207 l3 -194 197 -3 197 -2 3 172 c2 95 1 190 -1 211 l-3 37 -188 0 c-147 0 -190 -3 -199 -14z"/>
<path d="M5057 6324 c-4 -4 -7 -99 -7 -211 l0 -203 210 0 210 0 -2 208 -3 207 -201 3 c-110 1 -203 -1 -207 -4z"/>
<path d="M5790 6122 l0 -210 210 -1 211 -2 -1 209 -1 209 -210 2 -209 2 0 -209z m30 147 c0 -6 -4 -7 -10 -4 -5 3 -10 11 -10 16 0 6 5 7 10 4 6 -3 10 -11 10 -16z"/>
<path d="M6550 6120 l0 -210 200 0 200 0 0 210 0 210 -200 0 -200 0 0 -210z"/>
<path d="M1968 5572 l-198 -2 0 -200 0 -200 210 0 210 0 0 199 c0 151 -3 200 -12 202 -7 2 -102 3 -210 1z"/>
<path d="M2719 5572 l-197 -2 2 -200 c0 -110 4 -200 9 -200 4 0 95 0 202 0 l195 0 0 174 c0 130 -3 176 -12 179 -10 4 -10 6 0 6 13 1 17 38 5 43 -5 2 -96 2 -204 0z m178 -319 c-4 -3 -10 -3 -14 0 -3 4 0 7 7 7 7 0 10 -3 7 -7z"/>
<path d="M3271 5370 l0 -200 200 2 201 3 -1 175 c0 96 -1 185 -1 198 l0 22 -200 0 -199 0 0 -200z"/>
<path d="M5050 5370 l0 -199 200 -3 c110 -2 205 -1 210 0 6 2 10 81 10 204 0 177 -2 199 -15 188 -10 -9 -15 -9 -15 -1 0 8 -57 11 -195 11 l-195 0 0 -200z"/>
<path d="M6555 5560 c-3 -5 -6 -94 -7 -197 l-1 -188 201 -3 202 -2 0 200 0 200 -194 0 c-117 0 -197 -4 -201 -10z m380 -30 c3 -5 -1 -10 -9 -10 -9 0 -16 5 -16 10 0 6 4 10 9 10 6 0 13 -4 16 -10z m-7 -279 c10 -6 10 -10 -3 -21 -8 -7 -15 -10 -15 -7 0 3 -3 12 -6 21 -7 17 3 20 24 7z m-11 -68 c-4 -3 -10 -3 -14 0 -3 4 0 7 7 7 7 0 10 -3 7 -7z"/>
<path d="M5795 5569 c-2 -8 -4 -101 -2 -207 l2 -194 205 0 205 0 3 201 2 201 -189 0 c-104 0 -196 3 -205 6 -9 3 -18 0 -21 -7z m364 -370 c-13 -26 -23 -18 -14 10 3 12 11 19 16 16 5 -4 5 -14 -2 -26z m-315 -4 c-4 -8 -7 -15 -9 -15 -2 0 -5 7 -9 15 -3 9 0 15 9 15 9 0 12 -6 9 -15z"/>
<path d="M1772 4628 l3 -202 208 -1 207 -1 0 203 0 203 -210 0 -210 0 2 -202z m345 175 c-4 -3 -7 0 -7 7 0 7 3 10 7 7 3 -4 3 -10 0 -14z"/>
<path d="M2525 4813 c-3 -10 -5 -100 -4 -200 3 -177 4 -183 23 -184 12 -1 103 -2 204 -3 l182 -1 -2 200 -3 200 -196 3 c-180 2 -197 1 -204 -15z"/>
<path d="M3272 4628 l3 -203 197 0 c109 0 198 3 198 8 1 9 1 374 0 387 0 6 -74 10 -200 10 l-200 0 2 -202z"/>
<path d="M5795 4807 c-3 -12 -5 -103 -3 -202 l3 -180 205 0 205 0 3 203 2 203 -205 -1 c-202 -1 -205 -2 -210 -23z m22 -354 c-4 -3 -10 -3 -14 0 -3 4 0 7 7 7 7 0 10 -3 7 -7z"/>
<path d="M6547 4634 c1 -108 5 -199 8 -202 11 -11 309 -9 324 2 10 8 15 8 18 -1 3 -7 16 -13 29 -13 l24 0 0 204 0 205 -202 1 -203 1 2 -197z"/>
<path d="M3172 3287 l-102 -104 648 -651 647 -651 637 637 c351 350 641 645 644 656 5 14 -16 41 -87 112 -52 52 -100 93 -106 92 -7 -2 -253 -243 -548 -537 l-535 -534 -52 50 c-29 27 -267 263 -528 524 -261 261 -484 482 -496 491 -20 17 -23 16 -122 -85z"/>
</g>
<g id="layer104" fill="#9f5e39" stroke="none">
<path d="M4165 8760 c-27 -4 83 -7 245 -7 175 0 273 3 240 7 -67 10 -416 9 -485 0z"/>
<path d="M4716 8751 c5 -5 50 -11 99 -15 53 -4 84 -3 75 3 -20 11 -186 23 -174 12z"/>
<path d="M3792 8726 c-84 -13 -156 -27 -160 -31 -7 -7 43 -3 163 15 33 5 93 12 133 16 40 4 75 11 78 15 8 13 -46 9 -214 -15z"/>
<path d="M4960 8725 c6 -7 41 -15 78 -19 37 -3 92 -11 122 -16 30 -6 80 -14 110 -19 52 -8 177 -37 210 -49 8 -3 26 -7 40 -8 14 -2 34 -8 45 -13 11 -5 45 -15 75 -22 30 -7 62 -15 70 -20 8 -4 38 -14 65 -23 128 -39 295 -103 430 -165 113 -52 257 -124 295 -147 19 -11 55 -32 80 -46 25 -14 62 -35 83 -47 48 -27 220 -142 227 -151 3 -4 14 -10 25 -14 12 -3 38 -22 58 -41 20 -19 39 -35 42 -35 4 0 182 -137 195 -150 27 -28 132 -112 135 -108 3 2 -32 37 -78 76 -548 476 -1234 816 -1947 966 -190 40 -372 66 -360 51z"/>
<path d="M3460 8666 c-175 -40 -267 -66 -425 -117 -125 -41 -165 -59 -132 -59 9 0 25 4 35 9 9 5 78 28 152 51 74 23 155 48 181 56 25 8 67 19 95 23 27 5 74 16 104 25 30 9 69 16 86 16 16 0 39 7 50 15 26 19 21 19 -146 -19z"/>
<path d="M2804 8466 c-227 -88 -623 -292 -763 -393 -2 -2 -2 -6 1 -9 3 -3 28 11 56 30 27 20 52 36 56 36 3 0 34 17 68 38 91 55 298 162 314 162 8 0 14 5 14 10 0 6 9 10 21 10 11 0 26 6 34 13 7 7 68 35 136 62 114 44 159 66 134 65 -6 -1 -37 -12 -71 -24z"/>
<path d="M1990 8042 c-14 -10 -71 -51 -127 -91 -677 -481 -1207 -1158 -1527 -1950 -14 -36 -26 -69 -26 -75 0 -20 17 10 39 69 29 76 33 86 70 166 17 37 31 72 31 78 0 6 5 11 10 11 6 0 10 7 10 15 0 15 39 96 51 105 3 3 10 16 14 29 4 14 32 68 63 120 30 53 64 112 75 132 11 21 30 49 43 65 13 15 24 30 24 35 0 6 118 183 142 214 5 6 22 28 39 50 69 89 87 113 168 209 99 118 355 376 456 460 215 178 263 216 378 294 59 40 107 75 107 78 0 8 -15 3 -40 -14z"/>
<path d="M6150 7718 c-19 -5 -53 -14 -75 -20 -74 -19 -272 -102 -285 -119 -3 -3 -23 -15 -45 -27 -61 -31 -271 -191 -346 -263 -107 -104 -123 -154 -73 -233 16 -25 32 -46 36 -46 4 0 -6 21 -22 47 -55 87 -40 124 108 256 218 197 463 335 677 382 44 10 94 21 110 25 28 8 28 8 -10 8 -22 0 -56 -4 -75 -10z"/>
<path d="M6451 7725 c3 -2 40 -11 82 -19 235 -45 500 -192 741 -409 96 -88 120 -125 113 -178 -5 -39 -22 -64 -106 -154 -169 -181 -416 -355 -601 -424 -205 -76 -418 -82 -616 -15 -176 59 -387 192 -550 346 l-61 58 -1984 0 c-1091 0 -1990 0 -1996 0 -10 0 -13 -290 -13 -1415 l0 -1414 -72 -3 -73 -3 0 -140 0 -140 1078 -3 1077 -2 0 -113 0 -112 443 -443 c243 -243 447 -442 452 -442 6 0 209 199 453 443 l442 442 0 113 0 112 1080 0 1080 0 0 145 0 144 -72 3 -73 3 -5 1411 -5 1412 58 63 c74 81 92 121 78 171 -26 86 -290 309 -496 418 -44 23 -89 48 -101 55 -11 7 -52 23 -90 34 -38 12 -78 25 -89 30 -44 19 -188 41 -174 26z m-1791 -1610 l0 -525 -295 0 -295 0 0 525 0 525 295 0 295 0 0 -525z m-2452 3 l-3 -223 -222 -3 -223 -2 0 225 0 225 225 0 225 0 -2 -222z m742 -3 l0 -225 -222 2 -223 3 -3 223 -2 222 225 0 225 0 0 -225z m747 3 l-2 -223 -222 -3 -223 -2 0 225 0 225 224 0 225 0 -2 -222z m1783 -3 l0 -225 -220 0 -220 0 0 225 0 225 220 0 220 0 0 -225z m750 0 l0 -225 -225 0 -225 0 0 225 0 225 225 0 225 0 0 -225z m740 0 l0 -225 -219 0 c-218 0 -219 0 -225 23 -8 29 -8 221 0 335 l7 92 218 0 219 0 0 -225z m-4760 -746 l0 -219 -225 0 -225 0 0 220 0 220 218 2 c119 2 220 2 225 0 4 -2 7 -102 7 -223z m740 4 l0 -223 -225 0 -225 0 0 220 0 220 213 2 c116 2 218 3 225 4 9 0 12 -50 12 -223z m747 -3 l3 -220 -225 0 -225 0 0 223 0 222 222 -2 223 -2 2 -221z m1783 3 l0 -223 -220 0 -220 0 0 220 0 220 208 2 c114 2 213 3 220 4 9 0 12 -50 12 -223z m1490 -3 l0 -220 -220 0 -220 0 -1 43 c-4 98 -4 354 -1 377 l4 25 219 -3 219 -3 0 -219z m-740 0 l0 -220 -225 0 -225 0 0 220 0 220 225 0 225 0 0 -220z m-4022 -742 l-3 -223 -222 -3 -223 -2 0 225 0 225 225 0 225 0 -2 -222z m742 -3 l0 -225 -222 2 -223 3 -3 223 -2 222 225 0 225 0 0 -225z m745 0 l0 -220 -222 -3 -223 -2 0 225 0 225 223 -2 222 -3 0 -220z m1785 0 l0 -225 -220 0 -220 0 0 225 0 225 220 0 220 0 0 -225z m750 0 l0 -225 -225 0 -225 0 0 225 0 225 225 0 225 0 0 -225z m740 0 l0 -225 -219 0 -218 0 -8 82 c-7 82 -5 318 3 351 4 16 23 17 223 17 l219 0 0 -225z m-2467 -157 c2 -7 4 -66 3 -130 -1 -144 -4 -143 141 -59 l102 59 66 -116 c36 -63 64 -120 63 -124 -2 -5 -48 -35 -103 -67 -70 -40 -100 -63 -100 -76 0 -13 28 -34 94 -71 52 -29 98 -57 104 -63 6 -6 -12 -47 -53 -120 -34 -61 -66 -114 -71 -117 -5 -3 -56 22 -113 55 -58 34 -109 61 -115 61 -11 0 -13 -35 -11 -174 1 -43 -3 -82 -8 -85 -6 -3 -69 -5 -141 -3 l-131 3 0 130 c0 111 -2 129 -16 129 -8 0 -63 -28 -121 -62 -123 -71 -101 -80 -190 75 -66 116 -74 96 74 180 51 29 93 57 93 62 0 6 -49 39 -110 74 -60 34 -110 65 -110 69 0 3 30 58 66 123 l67 117 110 -64 c60 -35 113 -64 117 -64 14 0 20 45 20 158 l0 112 134 0 c98 0 135 -3 139 -12z"/>
<path d="M6270 7509 c-116 -23 -239 -119 -294 -230 -33 -69 -51 -173 -37 -220 8 -30 9 -27 10 36 1 39 8 93 16 120 15 50 100 185 116 185 4 0 23 13 41 28 57 50 120 67 238 66 99 0 108 -2 165 -33 147 -80 223 -202 226 -361 1 -67 2 -72 11 -42 28 84 -36 255 -127 341 -104 98 -230 136 -365 110z"/>
<path d="M6759 7423 c143 -180 147 -423 10 -631 l-22 -33 38 21 c54 30 183 118 189 129 10 16 -15 24 -71 23 -40 0 -52 3 -45 11 10 12 19 50 29 122 5 38 -11 161 -26 200 -5 11 -22 49 -40 84 -17 35 -29 66 -27 69 3 2 17 -5 32 -17 15 -11 30 -21 35 -21 13 0 137 -89 141 -101 2 -6 12 -10 23 -8 14 3 -5 20 -71 65 -85 58 -200 124 -217 124 -4 0 5 -17 22 -37z"/>
<path d="M5875 7417 c-85 -46 -177 -110 -270 -187 -100 -84 -112 -97 -97 -112 9 -9 12 -8 12 3 0 16 52 68 120 120 25 19 47 36 50 39 12 12 129 90 178 119 47 28 71 29 39 3 -7 -6 -19 -27 -27 -47 -7 -19 -17 -35 -22 -35 -4 0 -8 -11 -8 -24 0 -14 -4 -28 -10 -31 -5 -3 -10 -18 -9 -33 l0 -27 11 25 c45 104 71 155 94 185 34 44 18 45 -61 2z"/>
<path d="M6225 7340 c-47 -24 -68 -42 -96 -85 -42 -63 -69 -171 -51 -208 5 -12 16 -38 23 -57 7 -19 17 -38 23 -42 19 -13 -23 -20 -84 -16 -71 5 -74 -2 -31 -66 65 -95 162 -155 285 -177 163 -30 351 72 428 232 33 69 44 104 29 95 -6 -4 -15 -24 -21 -45 l-10 -38 -79 1 -78 1 22 30 c12 16 28 56 35 88 14 59 9 93 -26 172 -29 66 -142 145 -208 145 -24 0 -16 -6 37 -24 109 -37 173 -114 184 -221 15 -147 -110 -285 -257 -285 -147 0 -272 138 -257 285 11 104 73 181 178 220 41 15 55 24 39 24 -14 0 -52 -13 -85 -29z"/>
<path d="M7108 7204 c89 -78 89 -74 -24 -182 -55 -52 -92 -91 -84 -87 28 16 161 138 182 168 l22 30 -65 59 c-35 32 -68 58 -74 58 -5 0 14 -21 43 -46z"/>
<path d="M5826 7191 c-12 -18 -19 -100 -10 -118 5 -12 10 4 14 52 6 73 6 83 -4 66z"/>
<path d="M7768 7184 c13 -25 42 -50 42 -37 0 5 -12 20 -26 34 -24 21 -26 22 -16 3z"/>
<path d="M7820 7122 c0 -5 16 -27 35 -49 19 -23 35 -47 35 -55 0 -7 9 -19 19 -25 21 -13 227 -320 284 -423 20 -36 54 -99 75 -140 22 -41 48 -93 60 -115 12 -22 31 -62 43 -90 12 -27 32 -72 44 -100 72 -157 175 -443 175 -485 0 -15 4 -30 9 -35 13 -15 91 -321 91 -359 0 -20 19 -70 25 -64 6 6 -56 281 -95 419 -141 496 -393 1000 -715 1428 -74 98 -85 110 -85 93z"/>
<path d="M281 5855 c-39 -103 -100 -314 -136 -471 -55 -238 -112 -631 -86 -594 6 8 11 32 11 54 0 21 5 68 10 105 6 36 15 95 21 131 13 85 25 149 44 235 9 39 20 92 25 119 5 28 16 70 24 95 8 26 33 107 56 181 23 74 46 145 52 157 6 11 8 27 6 35 -3 7 -15 -14 -27 -47z"/>
<path d="M8716 5120 c3 -30 10 -82 15 -115 4 -33 11 -95 15 -138 4 -43 11 -80 15 -83 13 -8 11 32 -11 194 -21 146 -47 258 -34 142z"/>
<path d="M8773 4395 c0 -175 3 -270 7 -240 5 28 8 136 8 240 0 105 -3 213 -8 240 -4 30 -7 -65 -7 -240z"/>
<path d="M36 4609 c-8 -82 -6 -390 4 -459 4 -34 8 54 9 233 0 158 -1 287 -3 287 -2 0 -6 -28 -10 -61z"/>
<path d="M47 4009 c3 -46 10 -91 14 -99 6 -9 7 22 3 75 -4 50 -10 94 -15 99 -5 6 -6 -27 -2 -75z"/>
<path d="M8766 4082 c-2 -4 -7 -50 -10 -102 -4 -57 -3 -87 2 -75 9 21 24 185 17 185 -2 0 -6 -3 -9 -8z"/>
<path d="M8742 3848 c-7 -7 -12 -33 -12 -60 0 -26 -5 -71 -10 -100 -6 -29 -15 -75 -20 -103 -37 -192 -61 -289 -112 -460 -27 -92 -92 -280 -113 -330 -40 -94 -48 -113 -69 -160 -13 -27 -33 -76 -46 -107 -12 -32 -28 -62 -36 -69 -8 -6 -14 -19 -15 -28 -1 -9 -15 -42 -32 -73 -18 -31 -50 -90 -72 -130 -50 -92 -252 -397 -277 -419 -10 -9 -18 -20 -18 -24 0 -4 -14 -25 -31 -47 -17 -21 -29 -41 -26 -44 13 -13 256 341 359 521 229 403 397 849 487 1294 29 138 62 343 57 348 -1 2 -8 -3 -14 -9z"/>
<path d="M81 3728 c116 -773 453 -1526 953 -2126 43 -52 80 -91 84 -88 3 4 -8 21 -25 39 -34 35 -183 225 -183 232 0 3 -16 22 -35 42 -19 20 -38 46 -41 58 -4 11 -10 22 -14 25 -4 3 -38 53 -76 111 -73 111 -81 125 -122 198 -14 25 -35 62 -47 81 -49 81 -165 330 -225 485 -23 61 -46 119 -50 130 -15 39 -29 81 -60 185 -17 58 -36 115 -41 128 -5 13 -9 34 -9 48 0 13 -4 32 -9 42 -12 23 -41 145 -52 212 -4 30 -13 80 -19 110 -6 30 -14 86 -19 124 -5 38 -14 73 -19 78 -5 5 -1 -46 9 -114z"/>
<path d="M1131 1494 c9 -25 190 -212 317 -327 591 -537 1249 -881 2016 -1053 82 -18 152 -31 154 -29 6 6 -45 25 -67 25 -10 0 -31 4 -47 9 -16 5 -56 14 -89 21 -56 12 -182 45 -215 58 -8 3 -25 7 -38 8 -55 7 -353 116 -490 180 -40 19 -92 42 -115 51 -23 9 -67 30 -97 46 -30 17 -82 44 -115 60 -33 16 -62 32 -65 36 -3 3 -34 22 -70 40 -114 60 -410 263 -410 281 0 6 -7 10 -15 10 -14 0 -113 77 -276 216 -46 39 -151 140 -233 225 -82 85 -147 149 -145 143z"/>
<path d="M7295 1114 c-83 -73 -103 -90 -140 -119 -21 -16 -59 -47 -84 -67 -25 -21 -50 -38 -55 -38 -5 0 -16 -8 -25 -18 -20 -23 -292 -204 -379 -252 -34 -19 -86 -50 -115 -68 -28 -18 -64 -36 -79 -39 -16 -3 -28 -9 -28 -14 0 -5 -7 -9 -16 -9 -9 0 -28 -9 -43 -19 -15 -11 -52 -29 -82 -41 -30 -11 -72 -29 -94 -40 -104 -49 -247 -107 -286 -115 -19 -4 -38 -11 -44 -14 -9 -7 -91 -33 -190 -61 -16 -5 -62 -18 -100 -29 -39 -12 -81 -21 -93 -21 -13 0 -32 -4 -42 -10 -10 -5 -58 -17 -106 -26 -49 -9 -123 -22 -164 -30 -41 -7 -96 -14 -121 -14 -30 0 -51 -6 -60 -16 -11 -13 -9 -15 12 -10 13 3 74 12 134 21 492 72 1021 258 1490 523 142 80 416 268 550 376 158 127 223 185 210 185 -5 0 -28 -15 -50 -35z"/>
<path d="M3650 80 c26 -10 302 -50 346 -50 56 0 10 18 -63 24 -43 4 -105 11 -138 15 -126 18 -171 22 -145 11z"/>
<path d="M4155 19 c51 -10 436 -10 495 0 27 5 -69 9 -245 9 -178 0 -275 -3 -250 -9z"/>
</g>
<g id="layer105" fill="#b55c29" stroke="none">
<path d="M4165 8760 c-27 -4 83 -7 245 -7 182 0 272 3 235 7 -71 10 -409 9 -480 0z"/>
<path d="M4055 8750 c-3 -5 3 -10 14 -10 11 0 23 5 26 10 3 6 -3 10 -14 10 -11 0 -23 -4 -26 -10z"/>
<path d="M4715 8750 c3 -5 25 -10 48 -9 36 1 38 2 17 9 -36 12 -72 12 -65 0z"/>
<path d="M3905 8743 c-22 -3 -44 -8 -49 -13 -12 -12 136 0 149 11 9 9 -22 9 -100 2z"/>
<path d="M4830 8740 c0 -5 17 -10 38 -10 27 0 33 3 22 10 -20 13 -60 13 -60 0z"/>
<path d="M4961 8723 c6 -7 30 -13 52 -13 40 0 129 -14 197 -30 51 -13 121 -19 115 -11 -4 7 -103 28 -177 37 -18 2 -70 10 -115 17 -69 11 -81 11 -72 0z"/>
<path d="M3717 8715 c-91 -15 -119 -31 -37 -21 106 14 165 23 153 25 -6 0 -17 3 -25 5 -7 2 -48 -2 -91 -9z"/>
<path d="M3470 8668 c-74 -16 -139 -34 -144 -38 -12 -12 57 -2 113 16 24 8 70 18 103 23 32 4 64 13 70 19 15 15 16 16 -142 -20z"/>
<path d="M5350 8661 c0 -4 26 -14 58 -20 31 -7 64 -16 72 -19 8 -3 26 -7 40 -8 14 -2 34 -8 45 -13 11 -5 45 -15 75 -22 30 -6 60 -15 65 -19 15 -11 65 -18 59 -9 -6 10 -136 50 -167 51 -12 1 -26 5 -32 9 -5 4 -48 17 -95 28 -119 30 -120 30 -120 22z"/>
<path d="M3270 8617 c-14 -7 -35 -13 -47 -14 -29 -2 -192 -52 -218 -66 -11 -6 -30 -12 -42 -14 -30 -2 -84 -32 -60 -33 9 0 25 4 35 9 15 9 223 75 325 104 20 5 37 14 37 19 0 10 0 10 -30 -5z"/>
<path d="M5786 8541 c-3 -5 5 -11 19 -13 30 -6 32 -2 6 12 -11 6 -22 6 -25 1z"/>
<path d="M5845 8520 c-2 -4 21 -15 53 -25 31 -10 77 -27 102 -37 31 -13 40 -15 30 -5 -20 19 -179 77 -185 67z"/>
<path d="M2844 8475 c-18 -13 -18 -14 4 -8 12 3 25 9 28 14 8 14 -10 11 -32 -6z"/>
<path d="M2708 8426 c-54 -23 -103 -47 -110 -54 -7 -7 -19 -12 -27 -12 -20 0 -232 -108 -251 -127 -8 -9 34 10 93 41 60 31 115 56 123 56 8 0 14 5 14 10 0 6 11 10 24 10 13 0 26 5 28 10 2 6 52 30 112 54 59 24 104 46 100 49 -5 2 -53 -14 -106 -37z"/>
<path d="M6055 8441 c-2 -5 7 -12 22 -16 15 -3 53 -20 86 -36 32 -16 61 -29 64 -29 11 0 -11 22 -30 30 -12 4 -48 20 -79 34 -32 14 -60 22 -63 17z"/>
<path d="M6374 8290 c76 -38 143 -73 150 -78 6 -5 31 -21 56 -34 25 -14 62 -35 83 -47 48 -27 220 -142 227 -151 3 -4 14 -10 25 -14 12 -3 38 -22 58 -41 20 -19 39 -35 42 -35 4 0 180 -135 195 -150 3 -3 20 -18 39 -35 26 -23 31 -25 23 -9 -13 25 -147 135 -155 128 -3 -3 -12 3 -19 15 -7 12 -18 21 -25 21 -7 0 -17 9 -23 20 -6 11 -17 20 -25 20 -8 0 -18 6 -22 13 -7 11 -89 71 -154 112 -8 6 -47 31 -85 56 -38 25 -81 52 -95 60 -15 8 -58 33 -95 55 -91 55 -308 164 -325 164 -8 0 48 -32 125 -70z"/>
<path d="M2259 8199 c-19 -16 -20 -18 -4 -10 34 17 51 31 39 31 -7 0 -22 -9 -35 -21z"/>
<path d="M2154 8144 c-32 -20 -71 -44 -86 -53 -16 -9 -28 -19 -28 -23 0 -13 10 -9 43 16 18 13 55 36 82 51 55 30 75 45 59 45 -6 0 -37 -16 -70 -36z"/>
<path d="M1995 8040 c-10 -11 -22 -20 -27 -20 -14 0 -128 -81 -128 -91 0 -4 43 22 95 57 52 36 95 67 95 70 0 10 -18 2 -35 -16z"/>
<path d="M1814 7908 c-4 -7 -3 -8 4 -4 12 7 16 16 8 16 -3 0 -8 -5 -12 -12z"/>
<path d="M1711 7839 c-41 -33 -79 -66 -85 -73 -6 -8 -16 -15 -23 -17 -25 -8 -284 -252 -396 -374 -133 -144 -313 -363 -305 -371 5 -4 23 16 85 96 128 165 418 469 558 584 39 31 81 67 95 80 14 12 41 34 60 48 58 44 106 87 95 87 -5 0 -43 -27 -84 -60z"/>
<path d="M6295 7730 c-4 -6 17 -10 55 -10 38 0 59 4 55 10 -3 6 -28 10 -55 10 -27 0 -52 -4 -55 -10z"/>
<path d="M6165 7720 c-11 -5 -33 -9 -50 -9 -21 -1 -26 -4 -16 -10 8 -5 27 -5 45 1 17 5 43 11 59 12 15 2 30 6 34 9 9 10 -48 7 -72 -3z"/>
<path d="M6451 7725 c3 -2 39 -11 81 -19 115 -22 222 -61 345 -127 61 -32 115 -59 119 -59 16 0 -13 19 -91 60 -44 24 -89 48 -101 55 -11 7 -52 23 -90 34 -38 12 -78 25 -89 30 -44 19 -188 41 -174 26z"/>
<path d="M6055 7693 c-44 -9 -178 -67 -166 -71 7 -2 18 1 24 7 6 6 18 11 27 11 9 0 33 9 55 20 22 11 50 20 62 20 13 0 23 5 23 10 0 6 -1 9 -2 9 -2 -1 -12 -3 -23 -6z"/>
<path d="M7315 7650 c10 -11 23 -20 28 -20 6 0 2 9 -8 20 -10 11 -23 20 -28 20 -6 0 -2 -9 8 -20z"/>
<path d="M5830 7602 c-31 -15 -68 -42 -58 -42 11 0 88 41 93 50 8 12 8 12 -35 -8z"/>
<path d="M7420 7555 c13 -14 26 -23 28 -20 7 7 -29 45 -41 45 -6 0 0 -11 13 -25z"/>
<path d="M5740 7550 c-9 -6 -10 -10 -3 -10 6 0 15 5 18 10 8 12 4 12 -15 0z"/>
<path d="M5590 7446 c-137 -102 -293 -246 -266 -246 2 0 41 37 87 82 46 45 86 82 89 83 5 0 84 60 152 115 20 17 41 30 46 30 6 0 12 7 16 15 3 8 4 15 3 15 -1 0 -58 -42 -127 -94z"/>
<path d="M6297 7509 c-10 -6 -25 -8 -32 -5 -8 3 -16 2 -19 -2 -2 -4 46 -7 107 -7 107 -1 115 -2 172 -34 147 -80 223 -202 226 -361 1 -67 2 -72 11 -42 16 47 -5 153 -43 229 -35 70 -113 149 -177 182 -85 43 -206 63 -245 40z"/>
<path d="M7016 7508 c3 -7 47 -43 97 -80 103 -76 236 -198 263 -241 9 -15 19 -25 21 -23 8 8 -34 68 -74 107 -110 104 -320 266 -307 237z"/>
<path d="M7541 7433 c48 -49 97 -101 110 -117 46 -58 99 -111 99 -101 0 15 -269 305 -283 305 -6 0 27 -39 74 -87z"/>
<path d="M6144 7460 c-53 -31 -85 -60 -66 -60 6 0 25 12 43 28 18 15 51 35 73 44 25 10 33 17 21 17 -11 0 -43 -13 -71 -29z"/>
<path d="M6764 7439 c-3 -5 8 -32 25 -59 17 -27 40 -80 52 -117 33 -101 40 -115 33 -63 -6 51 -9 60 -53 149 -17 35 -29 66 -27 69 3 2 17 -5 32 -17 15 -11 30 -21 35 -21 13 0 137 -89 141 -101 2 -6 12 -10 23 -8 14 3 -1 18 -58 57 -107 74 -196 122 -203 111z"/>
<path d="M5883 7420 c-18 -11 -33 -22 -33 -26 0 -3 16 3 35 15 35 20 48 15 20 -9 -8 -7 -15 -17 -15 -23 0 -6 11 0 25 13 48 45 26 66 -32 30z"/>
<path d="M5810 7375 c-7 -8 -18 -15 -25 -15 -6 0 -20 -9 -30 -20 -10 -11 -24 -20 -30 -20 -7 0 -28 -15 -48 -32 -20 -18 -54 -46 -76 -62 -68 -49 -107 -94 -93 -108 9 -9 12 -9 12 3 0 16 52 68 120 120 25 19 47 36 50 39 3 3 38 28 78 55 39 26 72 50 72 52 0 9 -19 1 -30 -12z"/>
<path d="M6035 7367 c-17 -14 -37 -45 -71 -117 -24 -50 -37 -151 -25 -191 8 -31 9 -27 10 34 1 91 23 163 71 231 22 31 38 56 37 56 -2 0 -11 -6 -22 -13z"/>
<path d="M6255 7355 c-40 -19 -3 -19 45 0 30 12 32 13 10 13 -14 0 -38 -6 -55 -13z"/>
<path d="M6362 7365 c2 -3 18 -6 34 -8 63 -6 151 -72 183 -137 42 -85 45 -112 21 -186 -39 -117 -138 -194 -250 -194 -116 0 -213 78 -252 202 -16 52 -24 66 -26 49 -2 -13 1 -33 6 -45 6 -12 16 -37 23 -56 7 -19 17 -38 23 -42 19 -13 -23 -20 -84 -16 -71 5 -74 -2 -31 -66 65 -95 162 -155 285 -177 158 -29 343 67 424 220 12 24 22 51 22 61 0 11 5 22 10 25 6 3 10 11 10 16 0 23 -20 -4 -30 -40 l-10 -38 -79 1 -78 1 22 30 c34 47 51 135 35 188 -30 100 -76 156 -159 196 -39 18 -114 30 -99 16z"/>
<path d="M5873 7340 c-3 -11 -9 -20 -14 -20 -5 0 -9 -10 -9 -23 0 -13 -5 -28 -11 -34 -6 -6 -9 -21 -7 -34 3 -19 7 -14 22 26 27 74 35 105 29 105 -3 0 -7 -9 -10 -20z"/>
<path d="M6180 7317 c-16 -13 -61 -71 -74 -97 -5 -8 13 9 38 37 26 29 55 57 64 63 14 7 14 9 2 9 -8 0 -22 -5 -30 -12z"/>
<path d="M7121 7188 c35 -35 66 -59 68 -54 4 10 -107 115 -123 116 -4 0 20 -28 55 -62z"/>
<path d="M5827 7193 c-4 -3 -7 -13 -7 -22 1 -13 3 -13 11 2 11 19 8 33 -4 20z"/>
<path d="M6086 7164 c-4 -20 -5 -38 -2 -41 2 -3 8 11 12 31 3 21 4 39 1 42 -2 3 -8 -11 -11 -32z"/>
<path d="M5306 7175 c-9 -26 -7 -32 5 -12 6 10 9 21 6 23 -2 3 -7 -2 -11 -11z"/>
<path d="M7784 7161 c21 -23 26 -26 26 -11 0 5 -10 15 -22 21 -23 12 -23 12 -4 -10z"/>
<path d="M5811 7110 c0 -40 2 -42 11 -22 8 16 8 28 0 45 -9 19 -11 17 -11 -23z"/>
<path d="M6876 7128 c-4 -15 -5 -36 -1 -47 3 -11 1 -29 -4 -40 -6 -10 -12 -34 -13 -52 -2 -34 -48 -136 -89 -197 l-22 -33 38 21 c54 30 183 118 189 129 10 16 -15 24 -72 23 -40 0 -51 3 -43 11 6 6 11 22 11 35 0 13 5 32 10 43 6 11 10 45 8 77 -3 47 -5 52 -12 30z"/>
<path d="M7401 7133 c0 -12 -5 -25 -11 -28 -5 -3 -10 -13 -10 -22 0 -9 -10 -25 -22 -37 -13 -12 -46 -47 -73 -76 -169 -183 -418 -359 -605 -429 -205 -76 -418 -82 -616 -15 -177 59 -397 198 -554 351 l-56 53 -1984 0 c-1092 0 -1991 0 -1997 0 -10 0 -13 -290 -13 -1415 l0 -1414 -72 -3 -73 -3 0 -140 0 -140 1078 -3 1077 -2 0 -113 0 -112 443 -443 c243 -243 447 -442 452 -442 6 0 209 199 453 443 l442 442 0 113 0 112 1080 0 1080 0 0 145 0 144 -72 3 -73 3 -5 1411 -5 1412 58 63 c60 65 91 121 84 149 -3 9 -5 7 -6 -7z m-2741 -1018 l0 -525 -295 0 -295 0 0 525 0 525 295 0 295 0 0 -525z m-2452 3 l-3 -223 -222 -3 -223 -2 0 225 0 225 225 0 225 0 -2 -222z m742 -3 l0 -225 -222 2 -223 3 -3 223 -2 222 225 0 225 0 0 -225z m747 3 l-2 -223 -222 -3 -223 -2 0 225 0 225 224 0 225 0 -2 -222z m1783 -3 l0 -225 -220 0 -220 0 0 225 0 225 220 0 220 0 0 -225z m750 0 l0 -225 -225 0 -225 0 0 225 0 225 225 0 225 0 0 -225z m740 0 l0 -225 -219 0 c-218 0 -219 0 -225 23 -8 29 -8 221 0 335 l7 92 218 0 219 0 0 -225z m-4760 -746 l0 -219 -225 0 -225 0 0 220 0 220 218 2 c119 2 220 2 225 0 4 -2 7 -102 7 -223z m740 4 l0 -223 -225 0 -225 0 0 220 0 220 213 2 c116 2 218 3 225 4 9 0 12 -50 12 -223z m747 -3 l3 -220 -225 0 -225 0 0 223 0 222 222 -2 223 -2 2 -221z m1783 3 l0 -223 -220 0 -220 0 0 220 0 220 208 2 c114 2 213 3 220 4 9 0 12 -50 12 -223z m1490 -3 l0 -220 -220 0 -220 0 -1 43 c-4 98 -4 354 -1 377 l4 25 219 -3 219 -3 0 -219z m-740 0 l0 -220 -225 0 -225 0 0 220 0 220 225 0 225 0 0 -220z m-4022 -742 l-3 -223 -222 -3 -223 -2 0 225 0 225 225 0 225 0 -2 -222z m742 -3 l0 -225 -222 2 -223 3 -3 223 -2 222 225 0 225 0 0 -225z m745 0 l0 -220 -222 -3 -223 -2 0 225 0 225 223 -2 222 -3 0 -220z m1785 0 l0 -225 -220 0 -220 0 0 225 0 225 220 0 220 0 0 -225z m750 0 l0 -225 -225 0 -225 0 0 225 0 225 225 0 225 0 0 -225z m740 0 l0 -225 -219 0 -218 0 -8 82 c-7 82 -5 318 3 351 4 16 23 17 223 17 l219 0 0 -225z m-2467 -157 c2 -7 4 -66 3 -130 -1 -144 -4 -143 141 -59 l102 59 66 -116 c36 -63 64 -120 63 -124 -2 -5 -48 -35 -103 -67 -70 -40 -100 -63 -100 -76 0 -13 28 -34 94 -71 52 -29 98 -57 104 -63 6 -6 -12 -47 -53 -120 -34 -61 -66 -114 -71 -117 -5 -3 -56 22 -113 55 -58 34 -109 61 -115 61 -11 0 -13 -35 -11 -174 1 -43 -3 -82 -8 -85 -6 -3 -69 -5 -141 -3 l-131 3 0 130 c0 111 -2 129 -16 129 -8 0 -63 -28 -121 -62 -123 -71 -101 -80 -190 75 -66 116 -74 96 74 180 51 29 93 57 93 62 0 6 -49 39 -110 74 -60 34 -110 65 -110 69 0 3 30 58 66 123 l67 117 110 -64 c60 -35 113 -64 117 -64 14 0 20 45 20 158 l0 112 134 0 c98 0 135 -3 139 -12z"/>
<path d="M7820 7122 c0 -5 16 -27 35 -49 19 -23 35 -45 35 -51 0 -5 16 -26 35 -46 56 -60 41 -26 -31 68 -65 85 -74 94 -74 78z"/>
<path d="M5300 7104 c0 -12 55 -94 62 -94 4 0 -7 23 -24 50 -30 48 -38 57 -38 44z"/>
<path d="M7122 7059 c-54 -50 -65 -67 -34 -50 23 13 97 89 91 95 -2 3 -28 -18 -57 -45z"/>
<path d="M5541 7081 c38 -64 399 -342 399 -307 0 2 -16 30 -35 62 -20 33 -43 84 -51 114 -23 82 -34 104 -27 50 3 -25 10 -50 15 -57 7 -8 -9 -12 -57 -15 l-65 -3 -48 46 c-99 95 -145 134 -131 110z"/>
<path d="M5945 7000 c12 -41 27 -60 20 -25 -4 17 -11 35 -17 40 -7 7 -8 2 -3 -15z"/>
<path d="M5380 6993 c0 -12 38 -48 45 -41 3 2 -6 15 -20 28 -14 13 -25 19 -25 13z"/>
<path d="M885 6979 c-4 -6 -5 -12 -2 -15 2 -3 7 2 10 11 7 17 1 20 -8 4z"/>
<path d="M7004 6949 c-19 -22 -19 -22 4 -10 12 6 22 16 22 21 0 15 -5 12 -26 -11z"/>
<path d="M824 6903 c-21 -32 -43 -65 -49 -74 -5 -9 -36 -55 -67 -102 -64 -97 -92 -147 -85 -153 4 -5 26 30 55 87 8 14 25 39 38 54 13 15 24 31 24 36 0 4 30 50 66 104 36 53 64 98 62 101 -3 2 -22 -22 -44 -53z"/>
<path d="M8060 6782 c98 -148 136 -213 208 -352 22 -41 48 -93 60 -115 12 -22 31 -62 43 -90 12 -27 32 -72 44 -100 70 -152 175 -442 175 -483 0 -12 4 -30 10 -40 15 -28 50 -152 50 -181 0 -19 3 -22 9 -12 24 38 -198 702 -264 791 -6 8 -17 33 -24 55 -8 22 -27 59 -42 83 -16 24 -29 47 -29 53 0 14 -48 108 -74 144 -11 16 -28 46 -37 65 -9 20 -43 76 -75 125 -32 49 -68 103 -79 120 -28 45 -48 70 -61 78 -5 3 33 -60 86 -141z"/>
<path d="M594 6535 c-9 -14 -15 -28 -12 -30 2 -2 12 9 22 25 21 36 13 40 -10 5z"/>
<path d="M562 6478 c-14 -18 -134 -259 -170 -343 -49 -114 -82 -198 -82 -209 0 -20 17 10 39 69 29 76 33 86 70 166 17 37 31 72 31 78 0 6 5 11 10 11 6 0 10 7 10 15 0 17 41 99 52 103 4 2 8 9 8 15 0 7 11 33 25 60 25 46 28 60 7 35z"/>
<path d="M283 5860 c-33 -88 -84 -256 -85 -282 -1 -13 -5 -27 -8 -33 -13 -19 -19 -45 -11 -45 4 0 13 17 18 38 27 93 96 309 105 329 6 11 8 27 6 35 -3 7 -14 -12 -25 -42z"/>
<path d="M164 5466 c-3 -9 -7 -29 -9 -44 -1 -15 -5 -34 -8 -42 -13 -29 -36 -144 -31 -151 2 -5 0 -16 -5 -26 -17 -30 -41 -214 -31 -232 7 -12 9 -5 10 26 0 23 5 65 11 95 6 29 14 76 19 103 5 28 17 82 25 120 23 100 33 159 29 164 -2 2 -6 -4 -10 -13z"/>
<path d="M8663 5375 c3 -11 13 -56 22 -100 9 -44 21 -84 27 -90 7 -7 9 -4 5 10 -3 11 -13 56 -22 100 -9 44 -22 85 -27 90 -7 7 -8 3 -5 -10z"/>
<path d="M8716 5120 c3 -30 10 -82 15 -115 4 -33 11 -95 15 -138 7 -77 18 -110 20 -59 2 41 -35 314 -46 342 -8 19 -9 11 -4 -30z"/>
<path d="M67 4943 c-10 -17 -17 -132 -9 -137 5 -3 12 27 15 67 5 71 4 86 -6 70z"/>
<path d="M48 4747 c-12 -29 -10 -63 3 -50 6 6 9 23 7 39 -2 24 -4 26 -10 11z"/>
<path d="M8760 4738 c0 -15 5 -30 10 -33 13 -8 13 25 0 45 -8 12 -10 9 -10 -12z"/>
<path d="M8772 4395 c0 -185 3 -270 9 -235 10 71 10 399 0 470 -6 35 -9 -49 -9 -235z"/>
<path d="M36 4598 c-8 -102 -6 -371 4 -443 5 -40 8 38 9 228 0 158 -1 287 -3 287 -2 0 -6 -33 -10 -72z"/>
<path d="M41 4068 c1 -13 5 -34 9 -48 7 -21 8 -19 9 17 1 23 -3 45 -9 48 -6 3 -10 -4 -9 -17z"/>
<path d="M8766 4079 c-8 -26 -12 -88 -5 -83 10 6 23 84 15 91 -3 3 -8 0 -10 -8z"/>
<path d="M8751 3933 c0 -36 3 -43 9 -28 12 28 12 63 0 70 -6 4 -10 -12 -9 -42z"/>
<path d="M53 3954 c-3 -8 -1 -25 5 -37 10 -20 11 -18 11 16 1 39 -5 48 -16 21z"/>
<path d="M8743 3848 c-6 -7 -13 -49 -16 -93 -4 -56 -3 -75 4 -62 6 10 11 43 13 75 1 31 5 63 10 70 11 18 2 26 -11 10z"/>
<path d="M71 3799 c5 -28 11 -54 15 -58 11 -10 -3 90 -13 100 -7 7 -7 -8 -2 -42z"/>
<path d="M80 3713 c0 -5 5 -15 10 -23 8 -12 10 -11 10 8 0 12 -4 22 -10 22 -5 0 -10 -3 -10 -7z"/>
<path d="M98 3665 c-7 -7 -2 -56 9 -85 4 -8 8 -33 10 -54 1 -22 7 -44 12 -49 11 -11 5 59 -9 113 -5 19 -11 46 -12 58 -2 13 -6 21 -10 17z"/>
<path d="M8710 3646 c0 -14 -4 -45 -10 -68 -5 -24 -19 -88 -31 -143 -36 -176 -134 -497 -194 -640 -40 -94 -48 -113 -69 -160 -13 -27 -33 -76 -46 -107 -12 -32 -28 -62 -36 -69 -8 -6 -14 -19 -15 -28 -1 -9 -15 -41 -32 -73 -18 -31 -42 -76 -55 -100 -22 -42 -22 -42 -1 -18 23 27 105 184 182 350 55 120 178 444 180 474 0 12 4 26 8 31 12 17 38 113 32 119 -3 3 -1 12 6 20 14 17 82 306 75 318 -3 5 -1 14 4 21 14 18 22 86 11 92 -5 4 -9 -5 -9 -19z"/>
<path d="M134 3438 c3 -7 14 -55 26 -106 12 -51 25 -94 29 -97 9 -5 3 53 -9 80 -4 11 -14 46 -21 78 -7 31 -16 57 -20 57 -5 0 -7 -6 -5 -12z"/>
<path d="M198 3215 c-13 -22 110 -380 199 -580 62 -137 171 -354 197 -390 12 -16 27 -41 34 -55 46 -95 232 -378 258 -393 8 -4 14 -14 14 -21 0 -8 18 -32 40 -55 22 -22 40 -44 40 -47 0 -13 100 -129 122 -143 18 -10 15 -5 -8 20 -36 38 -184 227 -184 234 0 3 -16 22 -35 42 -19 20 -38 46 -41 58 -4 11 -10 22 -14 25 -4 3 -38 53 -76 111 -73 111 -81 125 -122 198 -14 25 -35 62 -47 81 -49 81 -165 330 -225 485 -23 61 -46 119 -50 130 -17 44 -86 262 -94 300 -2 6 -4 6 -8 0z"/>
<path d="M8170 2167 c-40 -70 -222 -341 -242 -358 -10 -9 -18 -20 -18 -24 0 -4 -14 -25 -31 -47 -17 -21 -29 -41 -26 -45 6 -5 142 175 182 240 11 18 45 71 76 118 61 92 93 149 87 155 -3 2 -15 -15 -28 -39z"/>
<path d="M7794 1633 c-16 -20 -41 -50 -56 -67 -15 -16 -25 -32 -22 -35 6 -6 39 30 91 97 14 18 24 35 21 37 -2 3 -18 -12 -34 -32z"/>
<path d="M7668 1485 c-16 -18 -28 -36 -28 -41 0 -10 49 37 61 59 16 28 -4 18 -33 -18z"/>
<path d="M1130 1492 c0 -16 301 -315 415 -413 127 -109 293 -239 306 -239 6 0 -6 16 -27 35 -20 19 -41 35 -45 35 -9 0 -131 98 -270 216 -46 39 -150 140 -231 223 -82 84 -148 148 -148 143z"/>
<path d="M7487 1297 c-70 -71 -126 -131 -124 -133 6 -6 202 182 238 227 56 71 16 38 -114 -94z"/>
<path d="M7295 1114 c-82 -72 -103 -90 -139 -118 -20 -16 -34 -31 -32 -34 3 -2 36 20 73 51 107 88 159 136 148 136 -5 0 -28 -15 -50 -35z"/>
<path d="M7081 937 c-12 -13 -34 -30 -49 -38 -15 -8 -34 -21 -42 -30 -20 -21 -299 -205 -378 -249 -34 -19 -86 -50 -115 -68 -28 -18 -64 -36 -79 -39 -16 -3 -28 -9 -28 -14 0 -5 -7 -9 -16 -9 -9 0 -28 -9 -43 -19 -14 -10 -42 -26 -61 -34 -19 -9 -29 -16 -21 -16 30 -2 351 170 500 268 47 31 92 60 100 66 77 49 239 169 249 185 16 26 11 25 -17 -3z"/>
<path d="M1885 821 c24 -29 242 -175 305 -205 25 -11 59 -31 75 -42 45 -32 135 -76 147 -72 6 2 -20 19 -58 37 -38 18 -71 36 -74 40 -3 3 -34 22 -70 40 -61 32 -280 173 -325 210 l-20 16 20 -24z"/>
<path d="M2439 486 c12 -14 114 -66 131 -66 5 0 34 -13 63 -29 153 -86 721 -273 758 -250 10 6 7 9 -11 9 -21 0 -131 29 -180 48 -8 3 -25 7 -38 8 -55 7 -353 116 -490 180 -40 19 -92 42 -115 51 -23 9 -62 27 -86 40 -23 12 -38 17 -32 9z"/>
<path d="M6165 396 c-109 -53 -254 -112 -296 -121 -19 -4 -38 -10 -44 -14 -5 -3 -32 -13 -59 -22 -27 -9 -45 -18 -40 -21 19 -12 504 177 504 197 0 9 -14 5 -65 -19z"/>
<path d="M5650 205 c-137 -41 -187 -55 -203 -55 -24 0 -97 -24 -97 -31 0 -8 1 -8 120 22 47 11 91 25 98 31 7 6 15 8 18 5 7 -7 105 21 119 34 12 12 0 11 -55 -6z"/>
<path d="M3410 132 c0 -4 39 -16 88 -26 48 -9 95 -20 106 -23 12 -3 16 -1 12 6 -4 5 -23 13 -44 16 -20 4 -50 10 -67 15 -53 14 -95 20 -95 12z"/>
<path d="M5260 109 c-25 -5 -64 -12 -87 -15 -24 -4 -40 -10 -37 -15 5 -8 53 -3 84 8 8 4 33 8 54 10 22 1 44 7 50 13 12 12 1 11 -64 -1z"/>
<path d="M3653 78 c21 -7 32 -7 40 1 8 8 0 11 -28 10 -40 -1 -40 -1 -12 -11z"/>
<path d="M3716 70 c5 -5 36 -12 69 -15 33 -3 85 -9 115 -14 75 -13 123 -13 115 -1 -3 6 -28 10 -55 10 -27 0 -71 4 -97 9 -79 16 -157 21 -147 11z"/>
<path d="M5023 73 c-41 -3 -66 -9 -75 -20 -11 -14 -10 -15 7 -10 11 3 47 9 80 13 56 6 119 26 70 22 -11 -1 -48 -3 -82 -5z"/>
<path d="M4765 43 c-22 -3 -44 -8 -49 -13 -11 -11 149 -1 179 11 21 8 -54 9 -130 2z"/>
<path d="M4050 30 c20 -13 53 -13 45 0 -3 6 -18 10 -33 10 -21 0 -24 -2 -12 -10z"/>
<path d="M4155 20 c51 -11 435 -10 495 0 26 4 -77 8 -245 8 -172 0 -274 -4 -250 -8z"/>
</g>
<g id="layer106" fill="#febf01" stroke="none">
<path d="M1470 6932 c-7 -3 -10 -484 -10 -1417 l0 -1414 -72 -3 -73 -3 0 -140 0 -140 1078 -3 1077 -2 0 -113 0 -112 443 -443 c243 -243 447 -442 452 -442 6 0 209 199 453 443 l442 442 0 113 0 112 1080 0 1080 0 0 145 0 144 -72 3 -73 3 -3 1405 c-1 831 -6 1408 -11 1413 -6 6 -28 -8 -58 -35 -26 -24 -59 -55 -73 -67 -110 -100 -323 -233 -450 -280 -205 -76 -418 -82 -616 -15 -177 59 -397 198 -554 351 l-56 53 -1987 3 c-1093 1 -1992 1 -1997 -1z m3190 -817 l0 -525 -295 0 -295 0 0 525 0 525 295 0 295 0 0 -525z m-2452 3 l-3 -223 -222 -3 -223 -2 0 225 0 225 225 0 225 0 -2 -222z m742 -3 l0 -225 -222 2 -223 3 -3 223 -2 222 225 0 225 0 0 -225z m747 3 l-2 -223 -222 -3 -223 -2 0 225 0 225 224 0 225 0 -2 -222z m1783 -3 l0 -225 -220 0 -220 0 0 225 0 225 220 0 220 0 0 -225z m750 0 l0 -225 -225 0 -225 0 0 225 0 225 225 0 225 0 0 -225z m740 0 l0 -225 -219 0 c-218 0 -219 0 -225 23 -8 29 -8 221 0 335 l7 92 218 0 219 0 0 -225z m-4760 -746 l0 -219 -225 0 -225 0 0 220 0 220 218 2 c119 2 220 2 225 0 4 -2 7 -102 7 -223z m740 4 l0 -223 -225 0 -225 0 0 220 0 220 213 2 c116 2 218 3 225 4 9 0 12 -50 12 -223z m747 -3 l3 -220 -225 0 -225 0 0 223 0 222 222 -2 223 -2 2 -221z m1783 3 l0 -223 -220 0 -220 0 0 220 0 220 208 2 c114 2 213 3 220 4 9 0 12 -50 12 -223z m1490 -3 l0 -220 -220 0 -220 0 -1 43 c-4 98 -4 354 -1 377 l4 25 219 -3 219 -3 0 -219z m-740 0 l0 -220 -225 0 -225 0 0 220 0 220 225 0 225 0 0 -220z m-4022 -742 l-3 -223 -222 -3 -223 -2 0 225 0 225 225 0 225 0 -2 -222z m742 -3 l0 -225 -222 2 -223 3 -3 223 -2 222 225 0 225 0 0 -225z m745 0 l0 -220 -222 -3 -223 -2 0 225 0 225 223 -2 222 -3 0 -220z m1785 0 l0 -225 -220 0 -220 0 0 225 0 225 220 0 220 0 0 -225z m750 0 l0 -225 -225 0 -225 0 0 225 0 225 225 0 225 0 0 -225z m740 0 l0 -225 -219 0 -218 0 -8 82 c-7 82 -5 318 3 351 4 16 23 17 223 17 l219 0 0 -225z m-2467 -157 c2 -7 4 -66 3 -130 -1 -144 -4 -143 141 -59 l102 59 66 -116 c36 -63 64 -120 63 -124 -2 -5 -48 -35 -103 -67 -70 -40 -100 -63 -100 -76 0 -13 28 -34 94 -71 52 -29 98 -57 104 -63 6 -6 -12 -47 -53 -120 -34 -61 -66 -114 -71 -117 -5 -3 -56 22 -113 55 -58 34 -109 61 -115 61 -11 0 -13 -35 -11 -174 1 -43 -3 -82 -8 -85 -6 -3 -69 -5 -141 -3 l-131 3 0 130 c0 111 -2 129 -16 129 -8 0 -63 -28 -121 -62 -123 -71 -101 -80 -190 75 -66 116 -74 96 74 180 51 29 93 57 93 62 0 6 -49 39 -110 74 -60 34 -110 65 -110 69 0 3 30 58 66 123 l67 117 110 -64 c60 -35 113 -64 117 -64 14 0 20 45 20 158 l0 112 134 0 c98 0 135 -3 139 -12z"/>
<path d="M5980 6922 c0 -21 54 -94 99 -135 86 -77 235 -120 338 -98 125 28 242 110 293 205 19 37 8 42 -85 40 -68 -1 -79 -4 -104 -28 -35 -34 -119 -66 -171 -66 -52 0 -136 32 -171 66 -25 24 -35 26 -113 28 -65 1 -86 -2 -86 -12z"/>
<path d="M6858 6932 c-8 -1 -26 -26 -41 -55 -14 -29 -36 -67 -48 -85 l-22 -33 38 21 c54 30 183 118 189 129 4 5 1 13 -5 17 -12 7 -85 11 -111 6z"/>
<path d="M5740 6898 c63 -53 200 -138 200 -124 0 2 -16 30 -35 61 -19 32 -37 67 -41 77 -5 17 -15 19 -82 17 l-76 -2 34 -29z"/>
<path d="M3172 3287 c-50 -51 -92 -97 -92 -103 0 -13 1274 -1294 1286 -1294 16 0 1284 1276 1284 1291 0 19 -185 203 -199 198 -6 -2 -251 -244 -546 -538 l-535 -534 -52 50 c-29 27 -272 269 -539 537 -268 267 -493 486 -501 486 -7 0 -55 -42 -106 -93z"/>
</g>


</svg>