<!DOCTYPE svg PUBLIC "-//W3C//DTD SVG 20010904//EN" "http://www.w3.org/TR/2001/REC-SVG-20010904/DTD/svg10.dtd">
<svg version="1.0" xmlns="http://www.w3.org/2000/svg" width="881px" height="881px" viewBox="0 0 8810 8810" preserveAspectRatio="xMidYMid meet">
<g id="layer101" fill="#10799a" stroke="none">
 <path d="M4065 8765 c-995 -84 -1894 -482 -2635 -1167 -243 -225 -476 -501 -665 -788 -128 -196 -185 -295 -290 -512 -128 -264 -207 -475 -280 -748 -251 -932 -194 -1890 165 -2795 42 -105 186 -402 251 -518 81 -143 268 -420 373 -550 708 -889 1694 -1457 2809 -1622 685 -101 1439 -26 2089 206 898 322 1661 918 2182 1704 129 195 176 274 274 470 255 511 399 1030 447 1615 65 782 -92 1588 -447 2295 -100 198 -145 277 -274 470 -420 631 -986 1136 -1655 1475 -201 102 -299 145 -500 218 -573 210 -1234 298 -1844 247z"/>
 </g>
<g id="layer102" fill="#04829f" stroke="none">
 <path d="M4285 8763 c-16 -1 -100 -8 -185 -13 -85 -6 -186 -15 -225 -19 -38 -5 -98 -12 -133 -16 -34 -5 -65 -12 -68 -16 -3 -5 -21 -9 -39 -9 -19 0 -54 -4 -77 -10 -24 -5 -86 -19 -138 -31 -124 -28 -300 -77 -322 -89 -10 -6 -25 -10 -33 -10 -8 0 -23 -4 -33 -9 -9 -5 -35 -14 -57 -20 -43 -13 -54 -18 -127 -50 -26 -12 -52 -21 -58 -21 -6 0 -18 -4 -28 -9 -9 -5 -38 -18 -64 -30 -27 -12 -67 -30 -90 -40 -86 -38 -294 -144 -320 -162 -14 -10 -29 -19 -32 -19 -8 0 -218 -129 -236 -145 -9 -8 -20 -15 -25 -15 -4 0 -31 -17 -59 -38 -28 -21 -73 -54 -99 -73 -217 -156 -465 -383 -695 -636 -75 -82 -332 -415 -332 -429 0 -4 -13 -23 -28 -43 -36 -45 -189 -305 -228 -386 -16 -33 -31 -62 -34 -65 -8 -7 -140 -295 -140 -304 0 -4 -6 -22 -14 -39 -27 -62 -96 -255 -96 -270 0 -9 -4 -18 -8 -21 -5 -3 -14 -31 -22 -63 -7 -32 -21 -83 -31 -114 -11 -30 -19 -67 -19 -82 0 -14 -4 -28 -9 -31 -5 -3 -11 -20 -14 -38 -2 -18 -14 -80 -26 -138 -39 -187 -56 -321 -72 -560 -27 -396 -2 -801 72 -1160 12 -58 23 -116 26 -130 2 -14 8 -34 13 -45 5 -11 11 -33 13 -50 3 -16 10 -46 15 -65 6 -19 18 -64 27 -100 10 -36 21 -69 26 -75 5 -5 9 -15 9 -23 0 -15 70 -210 96 -269 8 -17 14 -35 14 -39 0 -9 132 -297 140 -304 3 -3 18 -32 34 -65 39 -81 192 -341 228 -386 15 -20 28 -40 28 -43 0 -12 221 -303 275 -362 5 -6 39 -44 74 -85 156 -179 494 -488 672 -614 23 -16 61 -44 83 -60 23 -17 59 -42 81 -55 22 -13 42 -27 45 -30 7 -8 210 -130 216 -130 3 0 18 -9 34 -20 28 -20 195 -105 305 -154 33 -15 68 -32 77 -37 10 -5 25 -9 33 -9 8 0 15 -4 15 -10 0 -5 9 -10 19 -10 11 0 22 -4 25 -9 3 -5 18 -12 33 -16 16 -3 44 -13 63 -22 62 -27 74 -31 115 -44 22 -6 48 -15 57 -20 10 -5 26 -9 36 -9 10 0 22 -4 27 -9 6 -4 33 -14 60 -21 28 -7 77 -21 110 -30 33 -10 103 -27 155 -39 52 -12 114 -26 138 -31 23 -6 58 -10 77 -10 18 0 36 -4 39 -9 3 -4 34 -11 68 -16 35 -4 95 -11 133 -16 382 -48 903 -39 1235 21 36 7 88 16 115 20 28 5 70 13 95 19 25 6 70 15 100 20 63 12 158 39 182 52 10 5 25 9 34 9 23 0 217 61 229 71 5 5 19 9 31 9 13 0 26 5 29 10 3 6 13 10 21 10 8 0 36 9 62 21 26 12 56 24 67 29 11 4 49 21 85 37 36 16 90 40 120 53 30 14 67 32 82 42 14 10 29 18 32 18 11 0 100 43 116 55 8 7 47 30 85 51 99 54 261 158 403 261 57 41 239 188 307 247 90 79 317 305 383 381 24 28 54 61 66 75 130 145 420 570 506 745 19 39 37 72 41 75 12 11 89 177 89 192 0 9 3 18 8 20 9 4 52 94 52 110 0 6 14 40 30 75 17 34 30 70 30 78 0 9 8 32 18 53 10 20 24 57 31 82 7 25 17 54 22 65 4 11 13 40 20 65 6 25 15 54 19 65 5 11 11 34 15 50 3 17 10 48 15 70 4 22 13 56 19 75 6 19 16 60 21 90 5 30 15 78 20 105 94 455 94 1155 0 1610 -5 28 -15 75 -20 105 -5 30 -15 71 -21 90 -6 19 -15 53 -19 75 -5 22 -12 54 -15 70 -4 17 -10 39 -15 50 -4 11 -13 40 -19 65 -7 25 -16 54 -20 65 -5 11 -15 40 -22 65 -7 25 -21 62 -31 82 -10 21 -18 45 -18 55 0 10 -14 45 -30 78 -16 33 -30 66 -30 72 0 17 -43 107 -52 111 -5 2 -8 11 -8 20 0 15 -77 181 -89 192 -4 3 -22 37 -41 75 -86 175 -376 600 -506 745 -12 14 -42 48 -66 75 -62 73 -291 300 -378 377 -62 54 -249 205 -312 251 -128 93 -306 209 -413 267 -44 23 -92 51 -107 61 -14 11 -29 19 -32 19 -3 0 -72 32 -154 71 -140 67 -171 82 -217 99 -11 5 -41 17 -67 29 -26 12 -54 21 -62 21 -8 0 -18 5 -21 10 -3 6 -16 10 -29 10 -12 0 -26 4 -31 9 -12 10 -206 71 -229 71 -9 0 -24 4 -34 9 -24 13 -119 40 -182 52 -30 5 -75 14 -100 20 -25 6 -67 14 -95 19 -27 4 -79 13 -115 20 -190 34 -702 67 -825 53z"/>
 </g>
<g id="layer103" fill="#017fa7" stroke="none">
 <path d="M4365 8763 c-11 -2 -105 -8 -210 -13 -104 -6 -226 -15 -270 -21 -44 -5 -106 -12 -137 -15 -32 -3 -58 -10 -58 -15 0 -5 -25 -9 -56 -9 -46 0 -54 -2 -45 -13 9 -11 3 -13 -33 -10 -24 2 -70 -3 -102 -13 -33 -9 -76 -18 -97 -21 -20 -3 -40 -9 -43 -14 -3 -5 -19 -9 -35 -9 -19 0 -28 -4 -23 -11 3 -6 16 -8 28 -5 20 5 20 5 2 -9 -22 -17 -50 -20 -41 -5 8 13 -49 13 -73 1 -9 -5 -37 -14 -62 -21 -25 -7 -53 -16 -62 -21 -10 -5 -24 -9 -31 -9 -7 0 -32 -9 -55 -20 -22 -11 -50 -20 -62 -20 -11 0 -20 -4 -20 -10 0 -5 -12 -10 -27 -10 -26 0 -26 -1 -7 -16 18 -14 16 -15 -23 -10 -29 4 -52 1 -80 -13 -21 -10 -67 -32 -103 -49 -140 -64 -287 -138 -325 -163 -22 -14 -62 -36 -88 -48 -44 -21 -58 -44 -29 -47 25 -3 26 -4 13 -16 -10 -11 -14 -10 -22 5 -13 23 -35 22 -56 -3 -10 -11 -25 -20 -33 -20 -9 0 -26 -9 -38 -20 -12 -11 -25 -20 -29 -20 -5 0 -24 -13 -43 -30 -19 -16 -38 -29 -42 -30 -4 0 -16 -6 -25 -14 -31 -25 -106 -81 -156 -115 -40 -27 -46 -35 -36 -47 11 -13 9 -14 -12 -9 -17 4 -33 -2 -54 -19 -26 -21 -28 -26 -16 -40 18 -22 5 -34 -19 -18 -17 10 -27 5 -82 -45 -35 -32 -76 -69 -91 -83 -64 -57 -234 -229 -267 -269 -19 -24 -45 -53 -56 -64 -59 -60 -145 -170 -147 -187 -1 -10 -5 -17 -9 -14 -4 3 -15 -8 -24 -23 -10 -15 -23 -32 -29 -38 -24 -22 -56 -75 -50 -85 3 -6 -1 -7 -9 -4 -10 4 -16 1 -16 -8 0 -8 -9 -23 -20 -33 -11 -10 -20 -24 -20 -32 0 -7 -5 -13 -10 -13 -7 0 -8 -13 -5 -34 5 -22 3 -36 -6 -41 -9 -6 -11 -1 -7 19 7 38 -14 28 -28 -13 -6 -18 -16 -36 -23 -40 -15 -10 -41 -58 -41 -78 0 -8 -5 -11 -11 -8 -6 4 -10 1 -8 -6 1 -8 1 -21 0 -29 -1 -13 -2 -13 -11 0 -8 13 -10 12 -10 -3 0 -10 -7 -25 -15 -33 -8 -9 -15 -26 -15 -39 0 -18 -4 -23 -15 -19 -10 4 -15 0 -15 -15 0 -12 -4 -21 -10 -21 -5 0 -10 -8 -10 -17 0 -10 -9 -29 -20 -43 -11 -14 -20 -32 -20 -42 0 -9 -4 -18 -10 -20 -5 -1 -29 -46 -54 -98 -38 -80 -42 -97 -30 -106 16 -13 19 -40 4 -49 -6 -4 -10 5 -10 19 0 43 -17 29 -35 -26 -10 -29 -23 -66 -30 -83 -8 -16 -23 -59 -35 -95 -12 -36 -26 -69 -31 -74 -5 -6 -9 -23 -9 -38 0 -15 -4 -28 -10 -28 -5 0 -10 -11 -10 -24 0 -14 -4 -28 -10 -31 -5 -3 -10 -19 -10 -36 0 -16 -4 -29 -10 -29 -5 0 -10 -15 -10 -33 0 -18 -9 -52 -20 -75 -11 -22 -20 -54 -20 -70 0 -15 -4 -32 -9 -37 -5 -6 -11 -28 -15 -50 -3 -22 -10 -67 -16 -100 -6 -33 -14 -84 -17 -112 -2 -29 -9 -53 -14 -53 -5 0 -9 -26 -9 -58 0 -32 -4 -62 -9 -67 -12 -12 -21 -111 -26 -275 -2 -69 -9 -169 -16 -222 -8 -75 -8 -121 0 -195 7 -54 14 -154 16 -223 5 -164 14 -263 26 -274 5 -6 9 -36 9 -68 0 -32 4 -58 9 -58 5 0 12 -24 14 -53 3 -28 11 -79 17 -112 6 -33 13 -78 16 -100 4 -22 10 -44 15 -49 5 -6 9 -23 9 -38 0 -16 9 -48 20 -70 11 -23 20 -57 20 -75 0 -18 5 -33 10 -33 6 0 10 -13 10 -29 0 -17 5 -33 10 -36 5 -3 10 -17 10 -31 0 -13 5 -24 10 -24 6 0 10 -13 10 -28 0 -15 4 -32 9 -37 5 -6 19 -39 31 -75 12 -36 27 -78 34 -95 8 -16 22 -54 32 -82 19 -57 34 -69 34 -27 0 14 4 23 10 19 15 -9 12 -36 -4 -49 -12 -9 -8 -26 30 -106 25 -52 49 -96 54 -98 6 -2 10 -11 10 -20 0 -9 9 -28 20 -42 11 -14 20 -33 20 -42 0 -10 5 -18 10 -18 6 0 10 -9 10 -21 0 -15 5 -19 15 -15 11 4 15 -1 15 -19 0 -13 7 -30 15 -39 8 -8 15 -23 15 -33 0 -15 2 -16 10 -3 9 13 10 13 11 0 1 -8 1 -21 0 -29 -2 -7 2 -10 8 -6 6 3 11 0 11 -8 0 -20 26 -68 41 -78 7 -4 17 -22 23 -40 12 -36 38 -54 29 -20 -3 13 -1 21 7 21 9 0 10 -10 6 -35 -4 -22 -3 -35 4 -35 5 0 10 -6 10 -13 0 -8 9 -22 20 -32 11 -10 20 -25 20 -33 0 -9 6 -12 16 -8 8 3 12 2 9 -4 -5 -9 26 -61 51 -85 6 -5 18 -23 28 -38 9 -15 21 -25 26 -22 6 4 10 -3 10 -15 0 -18 80 -122 144 -187 11 -11 37 -40 56 -64 78 -97 384 -385 406 -383 7 1 12 -2 11 -6 -3 -10 8 -11 28 -3 23 8 30 -4 14 -23 -12 -14 -10 -19 16 -40 21 -17 37 -23 54 -19 20 5 23 4 13 -8 -15 -18 7 -40 31 -31 16 6 42 -28 30 -40 -3 -3 -1 -6 6 -6 9 0 71 -43 128 -90 7 -6 16 -10 20 -10 4 -1 24 -14 43 -30 19 -17 38 -30 43 -30 4 0 17 -9 29 -20 12 -11 29 -20 38 -20 8 0 23 -9 33 -20 21 -25 43 -26 56 -3 8 15 12 16 22 5 13 -12 12 -13 -13 -16 -32 -3 -12 -27 49 -57 37 -18 73 -38 79 -44 11 -11 176 -93 314 -157 36 -17 84 -39 106 -50 23 -11 52 -19 65 -18 37 3 45 1 29 -10 -12 -8 -9 -10 13 -10 15 0 27 -4 27 -10 0 -5 9 -10 20 -10 12 0 40 -9 62 -20 23 -11 48 -20 55 -20 7 0 21 -4 31 -9 9 -5 37 -14 62 -21 25 -7 53 -16 62 -21 24 -12 81 -12 73 1 -3 6 3 10 14 10 29 0 34 -16 8 -25 -20 -7 -20 -8 8 -12 17 -3 34 -9 40 -14 5 -5 26 -9 46 -9 21 0 40 -4 43 -9 9 -13 117 -33 159 -28 30 3 35 2 26 -9 -9 -12 -2 -14 45 -14 31 0 56 -4 56 -9 0 -5 26 -12 58 -15 31 -3 93 -10 137 -16 44 -5 170 -14 280 -20 110 -5 210 -12 223 -14 13 -3 22 0 22 7 0 8 3 9 8 1 4 -6 21 -9 37 -7 17 2 111 6 210 9 99 4 188 10 197 15 9 5 45 9 80 9 35 0 68 4 73 9 6 5 39 12 75 15 82 6 191 23 168 25 -10 0 -18 5 -18 10 0 5 27 7 60 4 41 -4 60 -2 60 6 0 6 17 11 40 11 22 0 40 4 40 9 0 5 19 11 43 14 77 10 112 20 119 32 5 7 17 11 29 8 11 -3 30 -1 42 4 12 6 56 21 97 34 41 12 79 26 85 31 5 4 22 8 37 8 15 0 28 3 28 8 0 4 15 12 33 18 96 34 125 46 252 104 137 64 154 73 159 86 3 8 15 14 27 14 26 0 129 49 129 61 0 5 9 9 20 9 11 0 20 5 20 10 0 6 5 10 12 10 11 0 178 96 188 109 3 3 21 15 40 25 52 28 130 86 130 97 0 5 9 9 21 9 11 0 18 4 15 9 -3 5 4 11 15 14 16 4 20 11 16 26 -5 22 3 27 18 12 10 -9 166 102 191 134 6 8 16 15 22 15 6 0 15 6 19 13 4 6 46 46 93 87 47 41 96 88 110 105 26 31 48 53 96 96 16 14 67 67 114 119 47 52 93 102 103 112 9 10 17 21 17 24 0 4 16 27 36 50 19 24 32 48 29 54 -3 5 0 7 7 5 8 -3 24 8 36 25 20 26 21 31 7 36 -17 7 -21 34 -5 34 6 0 10 -4 10 -10 0 -20 31 -9 42 15 6 14 15 25 21 25 5 0 6 12 3 26 -6 21 -4 25 8 21 11 -4 35 24 86 98 38 57 70 106 70 109 0 3 14 26 31 51 17 25 45 74 62 108 17 34 33 64 36 67 5 4 39 70 123 242 4 10 8 25 8 33 0 8 5 15 11 15 7 0 9 11 6 30 -4 17 -2 30 3 30 6 0 10 -6 10 -12 0 -7 7 0 15 16 9 16 13 38 9 48 -4 13 1 27 15 40 12 11 24 33 28 49 3 16 10 32 14 35 5 3 9 16 9 30 0 13 5 34 12 47 25 49 28 58 28 82 0 15 4 24 10 20 6 -3 10 4 10 17 0 13 4 28 8 34 17 19 34 93 28 118 -4 15 -1 28 6 33 15 10 38 70 38 101 0 12 4 30 9 40 19 36 34 133 28 184 -6 50 -5 52 9 28 14 -24 15 -22 11 33 -3 40 0 57 8 57 8 0 15 24 19 63 4 34 11 98 17 142 11 97 32 425 32 515 0 90 -21 418 -32 515 -6 44 -13 108 -17 143 -4 38 -11 62 -19 62 -8 0 -11 17 -8 58 4 54 3 56 -11 32 -14 -24 -15 -22 -9 28 6 51 -9 148 -28 184 -5 10 -9 28 -9 40 0 30 -22 91 -37 101 -7 5 -10 19 -7 35 6 30 -38 177 -49 165 -4 -3 -7 6 -7 20 0 15 -4 36 -10 47 -5 11 -14 29 -20 40 -5 11 -10 31 -10 44 0 14 -4 27 -9 30 -4 3 -11 19 -14 35 -4 16 -16 38 -28 49 -14 13 -19 27 -15 40 4 10 0 32 -9 48 -8 16 -15 23 -15 17 0 -7 -4 -13 -10 -13 -5 0 -7 13 -3 30 3 19 1 30 -6 30 -6 0 -11 7 -11 15 0 8 -4 23 -8 33 -82 168 -118 238 -122 242 -3 3 -21 34 -39 70 -19 36 -47 84 -62 108 -16 24 -29 45 -29 48 0 3 -32 52 -70 109 -51 74 -75 102 -86 98 -12 -4 -14 0 -8 21 3 14 2 26 -3 26 -6 0 -15 11 -21 25 -11 24 -42 35 -42 15 0 -5 -4 -10 -10 -10 -16 0 -12 27 5 34 14 5 13 10 -7 36 -12 17 -28 28 -36 25 -7 -2 -10 0 -7 5 3 6 -10 30 -29 54 -20 23 -36 46 -36 50 0 3 -8 14 -17 24 -10 10 -56 60 -103 112 -47 51 -98 105 -115 119 -16 14 -40 37 -53 51 -82 87 -147 150 -154 150 -3 0 -28 22 -55 50 -26 27 -52 50 -57 50 -5 0 -14 7 -20 15 -25 32 -181 143 -190 134 -16 -15 -24 -10 -19 12 4 15 0 22 -16 26 -11 3 -18 9 -15 14 3 5 -4 9 -14 9 -11 0 -22 6 -25 14 -6 15 -139 106 -156 106 -6 0 -11 4 -11 8 0 5 -17 17 -37 28 -21 10 -58 34 -84 52 -25 17 -54 32 -63 32 -9 0 -16 5 -16 10 0 6 -9 10 -20 10 -11 0 -20 4 -20 9 0 12 -103 61 -129 61 -12 0 -24 6 -27 14 -5 13 -22 22 -159 86 -127 58 -156 70 -252 104 -18 6 -33 14 -33 18 0 5 -11 8 -25 8 -14 0 -33 4 -43 10 -38 21 -206 71 -223 67 -11 -3 -22 1 -27 8 -7 12 -42 22 -119 32 -24 3 -43 9 -43 14 0 5 -18 9 -40 9 -23 0 -40 5 -40 11 0 8 -19 10 -60 6 -33 -3 -60 -1 -60 4 0 5 8 10 18 10 23 2 -86 19 -168 25 -36 3 -69 10 -74 15 -6 5 -39 9 -74 9 -35 0 -71 4 -80 9 -9 5 -98 11 -197 15 -99 3 -195 7 -212 10 -20 2 -33 -1 -33 -8 0 -7 -3 -7 -8 -1 -8 11 -18 13 -47 8z m1165 -173 c12 -8 11 -10 -7 -10 -13 0 -23 5 -23 10 0 13 11 13 30 0z m-2213 -57 c-4 -3 -10 -3 -14 0 -3 4 0 7 7 7 7 0 10 -3 7 -7z m2386 0 c-7 -2 -19 -2 -25 0 -7 3 -2 5 12 5 14 0 19 -2 13 -5z m-2416 -10 c-4 -3 -10 -3 -14 0 -3 4 0 7 7 7 7 0 10 -3 7 -7z m2493 -13 c0 -5 -4 -10 -9 -10 -6 0 -13 5 -16 10 -3 6 1 10 9 10 9 0 16 -4 16 -10z m157 -117 c-4 -3 -10 -3 -14 0 -3 4 0 7 7 7 7 0 10 -3 7 -7z m160 -20 c-4 -3 -7 0 -7 7 0 7 3 10 7 7 3 -4 3 -10 0 -14z m-3592 -123 c-3 -5 -10 -10 -16 -10 -5 0 -9 5 -9 10 0 6 7 10 16 10 8 0 12 -4 9 -10z m3915 0 c0 -5 -2 -10 -4 -10 -3 0 -8 5 -11 10 -3 6 -1 10 4 10 6 0 11 -4 11 -10z m37 -47 c-4 -3 -7 0 -7 7 0 7 3 10 7 7 3 -4 3 -10 0 -14z m-4220 -80 c-4 -3 -7 0 -7 7 0 7 3 10 7 7 3 -4 3 -10 0 -14z m4383 7 c0 -5 -4 -10 -9 -10 -6 0 -13 5 -16 10 -3 6 1 10 9 10 9 0 16 -4 16 -10z m70 -55 c0 -12 -29 -3 -34 10 -4 13 -2 14 14 5 11 -6 20 -13 20 -15z m-110 -5 c0 -5 -4 -10 -10 -10 -5 0 -10 5 -10 10 0 6 5 10 10 10 6 0 10 -4 10 -10z m-4343 -47 c-4 -3 -10 -3 -14 0 -3 4 0 7 7 7 7 0 10 -3 7 -7z m-340 -110 c-4 -3 -10 -3 -14 0 -3 4 0 7 7 7 7 0 10 -3 7 -7z m-7 -63 c0 -5 -7 -10 -16 -10 -8 0 -12 5 -9 10 3 6 10 10 16 10 5 0 9 -4 9 -10z m5007 -7 c-4 -3 -10 -3 -14 0 -3 4 0 7 7 7 7 0 10 -3 7 -7z m221 -52 c3 -8 -1 -12 -9 -9 -7 2 -15 10 -17 17 -3 8 1 12 9 9 7 -2 15 -10 17 -17z m32 -75 c0 -9 -30 -14 -35 -6 -4 6 3 10 14 10 12 0 21 -2 21 -4z m70 -20 c0 -3 -5 -8 -12 -12 -7 -4 -8 -3 -4 4 7 12 16 16 16 8z m-5620 -45 c0 -6 -4 -13 -10 -16 -5 -3 -10 1 -10 9 0 9 5 16 10 16 6 0 10 -4 10 -9z m5745 -59 c-2 -2 -16 -2 -30 2 -16 4 -25 13 -25 26 0 20 1 20 30 -1 16 -13 28 -25 25 -27z m-5807 17 c-2 -6 -8 -10 -13 -10 -5 0 -11 4 -13 10 -2 6 4 11 13 11 9 0 15 -5 13 -11z m27 -49 c-3 -5 -11 -10 -16 -10 -6 0 -7 5 -4 10 3 6 11 10 16 10 6 0 7 -4 4 -10z m-125 -24 c0 -3 -4 -8 -10 -11 -5 -3 -10 -1 -10 4 0 6 5 11 10 11 6 0 10 -2 10 -4z m0 -126 c0 -5 -4 -10 -10 -10 -5 0 -10 5 -10 10 0 6 5 10 10 10 6 0 10 -4 10 -10z m-168 -42 c-7 -7 -12 -8 -12 -2 0 14 12 26 19 19 2 -3 -1 -11 -7 -17z m6268 -48 c0 -5 -4 -10 -10 -10 -5 0 -10 5 -10 10 0 6 5 10 10 10 6 0 10 -4 10 -10z m116 -57 c-8 -9 -37 18 -30 28 3 5 12 2 21 -6 8 -9 13 -19 9 -22z m-86 -18 c0 -8 -7 -15 -15 -15 -8 0 -15 7 -15 15 0 8 7 15 15 15 8 0 15 -7 15 -15z m-6400 -30 c0 -8 -7 -15 -15 -15 -26 0 -18 20 13 29 1 1 2 -6 2 -14z m6562 -27 c-7 -7 -12 -8 -12 -2 0 14 12 26 19 19 2 -3 -1 -11 -7 -17z m-6672 -78 c0 -5 -4 -10 -10 -10 -5 0 -10 -7 -10 -16 0 -8 -4 -12 -10 -9 -6 4 -5 13 3 25 13 21 27 26 27 10z m6677 -7 c-4 -3 -7 0 -7 7 0 7 3 10 7 7 3 -4 3 -10 0 -14z m70 0 c-4 -3 -7 0 -7 7 0 7 3 10 7 7 3 -4 3 -10 0 -14z m-5707 -302 c0 -6 -4 -13 -10 -16 -5 -3 -10 1 -10 9 0 9 5 16 10 16 6 0 10 -4 10 -9z m5964 -57 c9 -24 7 -27 -9 -10 -17 17 -19 26 -6 26 5 0 12 -7 15 -16z m42 -92 c2 -10 -1 -11 -12 -1 -8 6 -14 21 -14 33 1 21 1 21 12 1 7 -11 13 -26 14 -33z m38 -37 c3 -8 1 -15 -4 -15 -6 0 -10 7 -10 15 0 8 2 15 4 15 2 0 6 -7 10 -15z m-7427 -22 c-4 -3 -7 0 -7 7 0 7 3 10 7 7 3 -4 3 -10 0 -14z m7363 -24 c0 -5 -4 -9 -10 -9 -5 0 -10 7 -10 16 0 8 5 12 10 9 6 -3 10 -10 10 -16z m120 -95 c0 -8 -4 -12 -10 -9 -5 3 -10 10 -10 16 0 5 5 9 10 9 6 0 10 -7 10 -16z m16 -41 c-10 -10 -19 5 -10 18 6 11 8 11 12 0 2 -7 1 -15 -2 -18z m-7636 -47 c0 -3 -4 -8 -10 -11 -5 -3 -10 -1 -10 4 0 6 5 11 10 11 6 0 10 -2 10 -4z m7747 -133 c-4 -3 -7 0 -7 7 0 7 3 10 7 7 3 -4 3 -10 0 -14z m0 -130 c-4 -3 -7 0 -7 7 0 7 3 10 7 7 3 -4 3 -10 0 -14z m-7900 -60 c-4 -3 -7 0 -7 7 0 7 3 10 7 7 3 -4 3 -10 0 -14z m29 -40 c-10 -10 -19 5 -10 18 6 11 8 11 12 0 2 -7 1 -15 -2 -18z m1894 -1918 c11 -13 10 -14 -4 -9 -9 3 -16 10 -16 15 0 13 6 11 20 -6z m45 -15 c3 -5 4 -10 1 -10 -3 0 -8 5 -11 10 -3 6 -4 10 -1 10 3 0 8 -4 11 -10z m2030 0 c3 -5 -1 -10 -9 -10 -9 0 -16 5 -16 10 0 6 4 10 9 10 6 0 13 -4 16 -10z m-1965 -40 c0 -5 -4 -10 -10 -10 -5 0 -10 5 -10 10 0 6 5 10 10 10 6 0 10 -4 10 -10z m3010 -16 c0 -2 -7 -4 -15 -4 -8 0 -15 4 -15 10 0 5 7 7 15 4 8 -4 15 -8 15 -10z m1350 -44 c0 -5 -5 -10 -11 -10 -5 0 -7 5 -4 10 3 6 8 10 11 10 2 0 4 -4 4 -10z m-577 -27 c-7 -2 -21 -2 -30 0 -10 3 -4 5 12 5 17 0 24 -2 18 -5z m637 -3 c0 -5 -4 -10 -10 -10 -5 0 -10 5 -10 10 0 6 5 10 10 10 6 0 10 -4 10 -10z m-4290 -24 c0 -11 -19 -15 -25 -6 -3 5 1 10 9 10 9 0 16 -2 16 -4z m1990 -6 c0 -5 -4 -10 -10 -10 -5 0 -10 5 -10 10 0 6 5 10 10 10 6 0 10 -4 10 -10z m-1863 -6 c-3 -3 -12 -4 -19 -1 -8 3 -5 6 6 6 11 1 17 -2 13 -5z m3478 -34 c-3 -5 -12 -10 -18 -10 -7 0 -6 4 3 10 19 12 23 12 15 0z m-365 -60 c0 -5 -2 -10 -4 -10 -3 0 -8 5 -11 10 -3 6 -1 10 4 10 6 0 11 -4 11 -10z m-1085 -68 c-8 -8 -25 10 -19 20 4 6 9 5 15 -3 4 -7 6 -15 4 -17z m52 -39 c-4 -3 -10 -3 -14 0 -3 4 0 7 7 7 7 0 10 -3 7 -7z m400 0 c-4 -3 -10 -3 -14 0 -3 4 0 7 7 7 7 0 10 -3 7 -7z m-107 -48 c-7 -8 -19 -15 -27 -15 -13 0 -13 3 -3 15 7 8 19 15 27 15 13 0 13 -3 3 -15z m184 -27 c-3 -4 -12 -8 -20 -8 -8 0 -13 4 -10 8 3 5 12 9 20 9 8 0 13 -4 10 -9z m-2694 -12 c0 -9 -40 -13 -46 -5 -3 5 6 9 20 9 14 0 26 -2 26 -4z m2470 -20 c0 -3 -4 -8 -10 -11 -5 -3 -10 -1 -10 4 0 6 5 11 10 11 6 0 10 -2 10 -4z m87 -2 c-3 -3 -12 -4 -19 -1 -8 3 -5 6 6 6 11 1 17 -2 13 -5z m-1620 -101 c-4 -3 -10 -3 -14 0 -3 4 0 7 7 7 7 0 10 -3 7 -7z m990 -39 c-3 -3 -12 -4 -19 -1 -8 3 -5 6 6 6 11 1 17 -2 13 -5z m-160 -40 c-3 -3 -12 -4 -19 -1 -8 3 -5 6 6 6 11 1 17 -2 13 -5z m-2107 -78 c0 -3 -4 -8 -10 -11 -5 -3 -10 -1 -10 4 0 6 5 11 10 11 6 0 10 -2 10 -4z m1800 0 c0 -3 -4 -8 -10 -11 -5 -3 -10 -1 -10 4 0 6 5 11 10 11 6 0 10 -2 10 -4z m-1853 -73 c-4 -3 -7 0 -7 7 0 7 3 10 7 7 3 -4 3 -10 0 -14z m1612 -245 c0 -31 -1 -31 -10 -10 -5 13 -7 28 -3 33 10 16 14 9 13 -23z m-3339 -274 c0 -8 -4 -12 -10 -9 -5 3 -10 10 -10 16 0 5 5 9 10 9 6 0 10 -7 10 -16z m-33 -41 c-4 -3 -7 0 -7 7 0 7 3 10 7 7 3 -4 3 -10 0 -14z m7900 -60 c-4 -3 -7 0 -7 7 0 7 3 10 7 7 3 -4 3 -10 0 -14z m-3670 -40 c-4 -3 -10 -3 -14 0 -3 4 0 7 7 7 7 0 10 -3 7 -7z m-187 -23 c0 -5 -8 -10 -17 -10 -15 0 -16 2 -3 10 19 12 20 12 20 0z m-686 -55 c-6 -16 -24 -21 -24 -7 0 11 11 22 21 22 5 0 6 -7 3 -15z m-1657 -2 c-4 -3 -10 -3 -14 0 -3 4 0 7 7 7 7 0 10 -3 7 -7z m6200 -10 c-4 -3 -7 0 -7 7 0 7 3 10 7 7 3 -4 3 -10 0 -14z m-7810 -15 c-3 -8 -6 -5 -6 6 -1 11 2 17 5 13 3 -3 4 -12 1 -19z m4780 -55 c-4 -3 -10 -3 -14 0 -3 4 0 7 7 7 7 0 10 -3 7 -7z m-187 -23 c0 -5 -8 -10 -17 -10 -15 0 -16 2 -3 10 19 12 20 12 20 0z m-4535 -20 c3 -5 1 -10 -4 -10 -6 0 -11 5 -11 10 0 6 2 10 4 10 3 0 8 -4 11 -10z m4878 3 c-7 -2 -19 -2 -25 0 -7 3 -2 5 12 5 14 0 19 -2 13 -5z m-4813 -33 c0 -5 -2 -10 -4 -10 -3 0 -8 5 -11 10 -3 6 -1 10 4 10 6 0 11 -4 11 -10z m7580 -36 c0 -8 -4 -12 -10 -9 -5 3 -10 10 -10 16 0 5 5 9 10 9 6 0 10 -7 10 -16z m-2493 -11 c-4 -3 -10 -3 -14 0 -3 4 0 7 7 7 7 0 10 -3 7 -7z m2469 -30 c-10 -10 -19 5 -10 18 6 11 8 11 12 0 2 -7 1 -15 -2 -18z m-5913 -28 c-3 -9 -8 -14 -10 -11 -3 3 -2 9 2 15 9 16 15 13 8 -4z m3470 -12 c-7 -2 -19 -2 -25 0 -7 3 -2 5 12 5 14 0 19 -2 13 -5z m1104 -50 c-4 -3 -7 0 -7 7 0 7 3 10 7 7 3 -4 3 -10 0 -14z m1223 8 c0 -6 -4 -13 -10 -16 -5 -3 -10 1 -10 9 0 9 5 16 10 16 6 0 10 -4 10 -9z m87 -18 c-4 -3 -7 0 -7 7 0 7 3 10 7 7 3 -4 3 -10 0 -14z m-7447 -9 c0 -8 -5 -12 -10 -9 -6 4 -8 11 -5 16 9 14 15 11 15 -7z m1630 -8 c0 -3 -5 -8 -12 -12 -7 -4 -8 -3 -4 4 7 12 16 16 16 8z m5794 -11 c-4 -8 -8 -15 -10 -15 -2 0 -4 7 -4 15 0 8 4 15 10 15 5 0 7 -7 4 -15z m-1777 -1 c-3 -3 -12 -4 -19 -1 -8 3 -5 6 6 6 11 1 17 -2 13 -5z m1739 -36 c-1 -7 -7 -22 -14 -33 -11 -20 -11 -20 -12 1 0 11 5 25 12 32 15 15 17 15 14 0z m-5645 -21 c-1 -12 -15 -9 -19 4 -3 6 1 10 8 8 6 -3 11 -8 11 -12z m979 -1 c0 -3 -5 -8 -12 -12 -7 -4 -8 -3 -4 4 7 12 16 16 16 8z m-60 -36 c0 -5 -5 -10 -11 -10 -5 0 -7 5 -4 10 3 6 8 10 11 10 2 0 4 -4 4 -10z m4684 -34 c-6 -15 -24 -23 -24 -11 0 8 24 34 28 30 1 -1 0 -10 -4 -19z m-7010 -358 c6 -4 7 -11 2 -15 -10 -11 -37 27 -29 40 4 7 8 6 11 -3 3 -8 10 -18 16 -22z m6683 -15 c-4 -3 -7 0 -7 7 0 7 3 10 7 7 3 -4 3 -10 0 -14z m70 0 c-4 -3 -7 0 -7 7 0 7 3 10 7 7 3 -4 3 -10 0 -14z m-67 -84 c0 -6 -4 -7 -10 -4 -5 3 -10 11 -10 16 0 6 5 7 10 4 6 -3 10 -11 10 -16z m-6570 -14 c0 -9 -6 -12 -15 -9 -8 4 -15 10 -15 15 0 5 7 9 15 9 8 0 15 -7 15 -15z m6400 -30 c0 -8 -7 -15 -15 -15 -8 0 -15 7 -15 15 0 8 7 15 15 15 8 0 15 -7 15 -15z m90 -21 c0 -3 -6 -12 -14 -19 -17 -17 -30 -7 -15 12 12 13 29 18 29 7z m-120 -54 c0 -5 -4 -10 -10 -10 -5 0 -10 5 -10 10 0 6 5 10 10 10 6 0 10 -4 10 -10z m-6265 -50 c3 -5 1 -10 -4 -10 -6 0 -11 5 -11 10 0 6 2 10 4 10 3 0 8 -4 11 -10z m6140 0 c3 -5 1 -10 -4 -10 -6 0 -11 5 -11 10 0 6 2 10 4 10 3 0 8 -4 11 -10z m85 -35 c0 -8 -7 -15 -15 -15 -8 0 -15 7 -15 15 0 8 7 15 15 15 8 0 15 -7 15 -15z m-6060 -5 c0 -5 -4 -10 -10 -10 -5 0 -10 5 -10 10 0 6 5 10 10 10 6 0 10 -4 10 -10z m6020 -34 c0 -3 -5 -8 -12 -12 -7 -4 -8 -3 -4 4 7 12 16 16 16 8z m-6025 -86 c3 -5 1 -10 -4 -10 -6 0 -11 5 -11 10 0 6 2 10 4 10 3 0 8 -4 11 -10z m5900 0 c-3 -5 -10 -10 -16 -10 -5 0 -9 5 -9 10 0 6 7 10 16 10 8 0 12 -4 9 -10z m-5770 -30 c3 -5 2 -10 -4 -10 -5 0 -13 5 -16 10 -3 6 -2 10 4 10 5 0 13 -4 16 -10z m-28 -56 c-9 -9 -28 6 -21 18 4 6 10 6 17 -1 6 -6 8 -13 4 -17z m5808 16 c-3 -5 -13 -10 -21 -10 -8 0 -14 -4 -14 -10 0 -5 -9 -14 -20 -20 -17 -9 -19 -8 -13 7 3 10 13 24 21 31 19 14 56 16 47 2z m-5745 -51 c0 -5 -4 -9 -10 -9 -5 0 -10 7 -10 16 0 8 5 12 10 9 6 -3 10 -10 10 -16z m5620 -39 c0 -5 -2 -10 -4 -10 -3 0 -8 5 -11 10 -3 6 -1 10 4 10 6 0 11 -4 11 -10z m-70 -26 c0 -2 -9 -4 -21 -4 -11 0 -18 4 -14 10 5 8 35 3 35 -6z m-30 -74 c0 -5 -4 -10 -10 -10 -5 0 -10 5 -10 10 0 6 5 10 10 10 6 0 10 -4 10 -10z m-5230 -60 c0 -5 -4 -10 -10 -10 -5 0 -10 5 -10 10 0 6 5 10 10 10 6 0 10 -4 10 -10z m5007 3 c-4 -3 -10 -3 -14 0 -3 4 0 7 7 7 7 0 10 -3 7 -7z m80 -30 c-4 -3 -7 0 -7 7 0 7 3 10 7 7 3 -4 3 -10 0 -14z m-5077 -33 c0 -5 -2 -10 -4 -10 -3 0 -8 5 -11 10 -3 6 -1 10 4 10 6 0 11 -4 11 -10z m337 -117 c-4 -3 -10 -3 -14 0 -3 4 0 7 7 7 7 0 10 -3 7 -7z m4343 -43 c0 -5 -4 -10 -10 -10 -5 0 -10 5 -10 10 0 6 5 10 10 10 6 0 10 -4 10 -10z m110 -5 c0 -2 -9 -9 -20 -15 -16 -9 -18 -8 -14 5 5 13 34 22 34 10z m-4453 -62 c-4 -3 -7 0 -7 7 0 7 3 10 7 7 3 -4 3 -10 0 -14z m4383 7 c0 -5 -7 -10 -16 -10 -8 0 -12 5 -9 10 3 6 10 10 16 10 5 0 9 -4 9 -10z m-163 -87 c-4 -3 -7 0 -7 7 0 7 3 10 7 7 3 -4 3 -10 0 -14z m-3952 -33 c3 -5 -1 -10 -9 -10 -9 0 -16 5 -16 10 0 6 4 10 9 10 6 0 13 -4 16 -10z m3915 0 c0 -5 -5 -10 -11 -10 -5 0 -7 5 -4 10 3 6 8 10 11 10 2 0 4 -4 4 -10z m-3583 -96 c-3 -3 -12 -4 -19 -1 -8 3 -5 6 6 6 11 1 17 -2 13 -5z m40 -21 c-4 -3 -10 -3 -14 0 -3 4 0 7 7 7 7 0 10 -3 7 -7z m3220 -20 c-4 -3 -7 0 -7 7 0 7 3 10 7 7 3 -4 3 -10 0 -14z m-160 -10 c-4 -3 -10 -3 -14 0 -3 4 0 7 7 7 7 0 10 -3 7 -7z m-157 -113 c0 -5 -4 -10 -9 -10 -6 0 -13 5 -16 10 -3 6 1 10 9 10 9 0 16 -4 16 -10z m-2493 -17 c-4 -3 -10 -3 -14 0 -3 4 0 7 7 7 7 0 10 -3 7 -7z m30 -10 c-4 -3 -10 -3 -14 0 -3 4 0 7 7 7 7 0 10 -3 7 -7z m2213 -53 c-19 -13 -30 -13 -30 0 0 6 10 10 23 10 18 0 19 -2 7 -10z"/>
 </g>
<g id="layer104" fill="#12c4fc" stroke="none">
 <path d="M2102 5708 l3 -1073 23 -80 c86 -305 305 -524 607 -606 123 -34 318 -31 440 5 216 65 382 192 493 377 21 35 44 80 52 99 23 61 20 60 183 60 l151 0 361 -359 c242 -241 375 -366 406 -382 l46 -24 -26 -105 -26 -104 -205 -51 c-113 -28 -217 -55 -232 -58 l-28 -7 0 -338 0 -337 1193 -298 c759 -190 1200 -296 1212 -291 11 4 28 14 38 22 16 14 17 69 17 892 0 872 0 877 -21 904 -14 18 -30 26 -51 26 -17 0 -222 -48 -455 -106 -233 -58 -430 -103 -437 -101 -8 3 -55 55 -105 115 -50 60 -103 114 -116 120 -37 17 -77 14 -187 -12 l-96 -23 -4 91 c-5 152 5 139 -490 632 -238 238 -449 440 -468 449 -75 38 -129 45 -362 45 l-228 0 0 795 0 795 -845 0 -846 0 3 -1072z m3522 -1912 c31 -36 52 -67 47 -70 -8 -5 -571 -145 -654 -163 -28 -6 -28 -5 -21 33 17 95 25 106 84 121 30 7 75 26 100 41 43 26 305 99 361 101 21 1 39 -13 83 -63z"/>
 <path d="M2831 3680 c-422 -59 -731 -413 -731 -837 0 -322 188 -619 481 -758 121 -57 215 -77 359 -78 137 0 211 14 333 64 221 91 401 294 478 539 21 66 24 95 24 235 0 140 -3 169 -23 235 -110 348 -409 585 -763 604 -52 2 -123 1 -158 -4z"/>
 <path d="M4047 3329 c-43 -33 -49 -74 -45 -316 l3 -222 29 -30 c50 -52 132 -39 165 26 7 14 11 104 11 258 l0 237 -34 34 c-41 41 -89 46 -129 13z"/>
 </g>

</svg>