<!DOCTYPE svg PUBLIC "-//W3C//DTD SVG 20010904//EN" "http://www.w3.org/TR/2001/REC-SVG-20010904/DTD/svg10.dtd">
<svg version="1.0" xmlns="http://www.w3.org/2000/svg" width="499px" height="501px" viewBox="0 0 4990 5010" preserveAspectRatio="xMidYMid meet">
<g id="layer101" fill="#ab0106" stroke="none">
<path d="M2425 4963 c-265 -16 -665 -97 -830 -168 -291 -126 -327 -144 -468 -239 -118 -79 -181 -130 -295 -240 -168 -163 -228 -234 -342 -405 -149 -223 -259 -450 -339 -702 -51 -159 -97 -543 -87 -734 25 -522 211 -1017 533 -1424 117 -148 316 -337 467 -443 132 -93 446 -262 543 -292 26 -8 95 -31 152 -50 153 -52 325 -86 501 -98 196 -13 178 -13 355 -4 163 8 208 15 552 92 88 19 203 65 378 148 372 179 643 401 883 726 106 143 237 389 311 585 74 195 130 455 140 655 8 134 -10 532 -28 640 -43 255 -190 628 -331 836 -128 189 -218 300 -356 436 -98 97 -135 128 -225 193 -15 11 -56 41 -91 66 -34 25 -108 70 -163 99 -55 29 -122 65 -150 81 -123 69 -366 161 -510 193 -159 35 -441 58 -600 49z m395 -749 c132 -24 470 -147 470 -172 0 -4 -40 -44 -89 -89 -80 -75 -92 -82 -132 -84 -27 -1 -81 10 -139 29 -155 51 -208 62 -340 73 -136 11 -238 6 -370 -17 -92 -17 -284 -76 -341 -104 -23 -12 -55 -18 -91 -17 -69 1 -105 -19 -113 -67 -8 -40 -74 -100 -123 -110 -20 -5 -43 -22 -63 -47 -17 -21 -38 -39 -48 -39 -27 0 -97 -66 -120 -113 -12 -25 -21 -63 -21 -91 0 -31 -7 -57 -19 -74 -30 -43 -89 -176 -97 -218 -4 -22 -21 -58 -37 -82 -30 -41 -31 -48 -35 -160 -8 -260 -1 -393 24 -494 5 -23 2 -29 -18 -37 -39 -15 -58 -40 -58 -75 0 -45 48 -90 97 -91 34 0 37 -3 51 -45 8 -25 23 -56 32 -70 9 -14 23 -42 29 -62 7 -20 19 -42 27 -48 26 -23 20 -35 -70 -135 -20 -22 -60 -68 -88 -102 -28 -35 -55 -63 -59 -63 -8 0 -21 19 -67 95 -71 119 -161 350 -190 490 -6 28 -17 77 -24 110 -16 75 -15 446 2 525 56 263 86 348 182 528 69 129 93 167 185 285 106 138 371 341 558 427 112 52 311 115 430 136 197 34 496 38 665 8z m1114 -793 c76 -135 109 -211 155 -359 100 -323 102 -679 4 -987 -63 -200 -139 -353 -263 -529 -77 -109 -231 -254 -368 -347 -168 -114 -245 -153 -482 -239 -54 -20 -148 -42 -215 -50 -38 -5 -104 -14 -145 -20 -111 -16 -351 0 -526 35 -118 24 -429 142 -429 162 0 7 36 49 80 96 44 46 102 110 129 141 44 52 50 56 65 42 10 -9 43 -25 74 -35 62 -22 243 -61 279 -61 32 0 48 -18 48 -51 0 -36 56 -109 100 -131 38 -19 123 -24 163 -9 47 18 95 79 108 137 7 30 17 58 23 63 6 5 37 14 68 20 31 5 74 19 95 30 34 17 41 17 58 5 42 -31 121 -10 138 37 8 20 36 46 85 80 69 46 74 48 95 34 44 -31 131 -7 143 40 3 13 0 40 -6 60 -19 56 1 70 98 70 91 0 131 19 175 82 42 59 46 116 14 187 l-26 56 25 54 c19 41 31 56 52 61 53 13 72 33 72 74 0 23 -8 48 -20 64 -21 26 -21 27 -3 109 14 65 18 127 17 283 0 173 -4 211 -23 285 -34 131 -50 179 -88 262 -34 74 -35 78 -19 102 9 14 16 37 16 51 0 27 141 195 165 195 7 0 38 -44 69 -99z"/>
</g>
<g id="layer102" fill="#049c3b" stroke="none">
<path d="M2375 4958 c-49 -4 -135 -14 -190 -23 -97 -14 -98 -14 -25 -10 359 23 560 14 815 -34 128 -24 318 -84 432 -136 17 -8 34 -15 38 -15 28 0 405 -209 445 -246 14 -13 54 -45 90 -71 129 -94 344 -324 469 -503 89 -126 196 -314 216 -381 4 -13 13 -37 20 -54 44 -108 55 -136 73 -185 28 -79 60 -200 67 -251 4 -24 14 -87 22 -139 12 -69 16 -165 16 -350 0 -248 -6 -325 -38 -465 -8 -33 -21 -96 -31 -140 -45 -210 -229 -596 -383 -805 -70 -95 -83 -110 -93 -110 -5 0 -30 19 -56 43 -26 24 -76 63 -112 88 -112 76 -154 111 -177 143 -19 29 -73 56 -112 56 -16 0 -91 51 -91 61 0 5 26 46 57 92 172 248 198 300 268 517 43 134 61 219 75 350 19 166 -1 455 -40 585 -41 135 -97 289 -121 331 -15 27 -43 79 -61 115 -18 36 -43 78 -55 93 l-22 28 -30 -22 c-17 -11 -36 -29 -43 -39 -7 -10 -51 -60 -98 -111 -47 -51 -89 -98 -95 -104 -5 -6 -32 -38 -60 -71 -40 -47 -296 -332 -378 -420 -10 -11 -49 -54 -85 -95 -37 -41 -93 -102 -124 -135 -32 -34 -58 -67 -58 -73 0 -6 -18 -26 -40 -43 -22 -18 -40 -38 -40 -45 0 -7 -10 -18 -21 -25 -28 -14 -68 -60 -69 -76 0 -7 -4 -13 -9 -13 -4 0 -22 -15 -39 -32 -123 -131 -150 -158 -175 -173 -27 -17 -29 -17 -100 14 -40 18 -81 37 -92 41 -32 14 -225 81 -275 95 -113 32 -227 78 -249 99 -24 24 -24 24 -5 54 15 24 123 146 204 232 8 8 55 60 104 115 49 55 92 102 95 105 3 3 24 25 45 50 21 25 66 74 100 110 82 86 146 165 146 179 0 6 5 11 11 11 12 0 172 160 209 210 14 18 52 63 85 100 131 145 232 255 262 287 17 18 34 42 38 52 3 11 16 22 28 26 23 7 187 186 187 204 0 21 -221 111 -395 160 -102 29 -227 42 -417 42 -109 0 -201 -2 -206 -5 -4 -2 -57 -10 -118 -16 -64 -7 -125 -20 -148 -31 -22 -10 -47 -19 -57 -19 -24 0 -147 -49 -254 -101 -183 -90 -444 -292 -546 -423 -52 -67 -119 -168 -158 -236 -54 -97 -111 -212 -111 -226 0 -7 32 48 71 124 165 318 310 475 628 679 128 83 381 176 561 208 213 37 541 37 713 0 122 -26 427 -142 427 -163 0 -4 -40 -44 -89 -89 -80 -75 -92 -82 -132 -84 -27 -1 -81 10 -139 29 -155 51 -208 62 -340 73 -136 11 -238 6 -370 -17 -92 -17 -284 -76 -341 -104 -23 -12 -55 -18 -91 -17 -69 1 -105 -19 -113 -67 -8 -40 -74 -100 -123 -110 -20 -5 -43 -22 -63 -47 -17 -21 -38 -39 -48 -39 -27 0 -97 -66 -120 -113 -12 -25 -21 -63 -21 -91 0 -31 -7 -57 -19 -74 -30 -43 -89 -176 -97 -218 -4 -22 -21 -58 -37 -82 -30 -41 -31 -48 -35 -160 -8 -260 -1 -393 24 -494 5 -23 2 -29 -18 -37 -39 -15 -58 -40 -58 -75 0 -45 48 -90 97 -91 34 0 37 -3 51 -45 8 -25 23 -56 32 -70 9 -14 23 -42 29 -62 7 -20 19 -42 27 -48 26 -23 20 -35 -70 -135 -20 -22 -60 -68 -88 -102 -28 -35 -55 -63 -59 -63 -8 0 -21 19 -67 95 -71 119 -161 350 -190 490 -6 28 -17 77 -24 110 -16 75 -15 447 2 525 38 178 59 258 85 323 4 9 3 17 -2 17 -8 0 -21 -39 -69 -204 -8 -26 -14 -62 -14 -78 0 -16 -5 -39 -11 -50 -11 -20 -14 -56 -24 -278 l-5 -85 -102 -7 c-104 -7 -516 -12 -553 -6 -28 4 -34 56 -24 194 9 123 44 384 60 454 20 81 50 172 114 340 41 108 109 242 175 345 11 17 23 37 27 45 9 17 105 162 113 170 3 3 27 32 55 65 84 102 257 274 330 329 92 69 255 186 259 186 2 0 33 17 67 38 102 60 294 146 414 185 28 9 77 25 110 36 33 11 96 27 140 35 44 9 94 20 110 26 l30 10 -30 -5 c-16 -3 -55 -9 -85 -14 -101 -16 -307 -75 -385 -110 -11 -5 -85 -38 -164 -72 -214 -93 -400 -221 -589 -403 -168 -163 -228 -234 -342 -405 -149 -223 -259 -450 -339 -702 -51 -159 -97 -543 -87 -734 25 -522 211 -1017 533 -1424 117 -148 316 -337 467 -443 132 -93 446 -262 543 -292 26 -8 95 -31 152 -50 153 -52 325 -86 501 -98 196 -13 178 -13 355 -4 163 8 208 15 552 92 88 19 203 65 378 148 372 179 643 401 883 726 106 143 237 389 311 585 74 195 130 455 140 655 8 134 -10 532 -28 640 -43 255 -190 628 -331 836 -128 189 -218 300 -356 436 -98 97 -135 128 -225 193 -15 11 -56 41 -91 66 -34 25 -108 70 -163 99 -55 29 -122 65 -150 81 -123 69 -366 161 -510 193 -184 41 -460 59 -650 44z m95 -1134 c17 -10 18 -13 5 -9 -48 17 -55 16 -80 -9 -30 -30 -27 -60 9 -88 l21 -17 -22 5 c-25 7 -44 52 -36 84 5 19 46 49 68 49 6 0 21 -7 35 -15z m-628 -86 c-9 -9 -12 -7 -12 12 0 19 3 21 12 12 9 -9 9 -15 0 -24z m150 16 c-12 -8 -22 -23 -23 -32 0 -11 -2 -13 -6 -4 -6 14 24 52 41 52 6 0 0 -7 -12 -16z m-162 -38 c0 -3 -14 -14 -31 -27 -23 -16 -33 -19 -42 -10 -8 8 -6 11 9 11 11 0 29 7 40 15 21 16 24 17 24 11z m173 -75 c-4 -6 -43 30 -43 40 0 5 10 -2 23 -14 13 -12 22 -24 20 -26z m1931 -220 c76 -135 109 -211 155 -359 100 -323 102 -679 4 -987 -63 -200 -139 -353 -263 -529 -77 -109 -231 -254 -368 -347 -168 -114 -245 -153 -482 -239 -54 -20 -148 -42 -215 -50 -38 -5 -104 -14 -145 -20 -111 -16 -351 0 -526 35 -118 24 -429 142 -429 162 0 7 36 49 80 96 44 46 102 110 129 141 44 52 50 56 65 42 10 -9 43 -25 74 -35 62 -22 243 -61 279 -61 32 0 48 -18 48 -51 0 -36 56 -109 100 -131 38 -19 123 -24 163 -9 47 18 95 79 108 137 7 30 17 58 23 63 6 5 37 14 68 20 31 5 74 19 95 30 34 17 41 17 58 5 42 -31 121 -10 138 37 8 20 36 46 85 80 69 46 74 48 95 34 44 -31 131 -7 143 40 3 13 0 40 -6 60 -19 56 1 70 98 70 91 0 131 19 175 82 42 59 46 116 14 187 l-26 56 25 54 c19 41 31 56 52 61 53 13 72 33 72 74 0 23 -8 48 -20 64 -21 26 -21 27 -3 109 14 65 18 127 17 283 0 173 -4 211 -23 285 -34 131 -50 179 -88 262 -34 74 -35 78 -19 102 9 14 16 37 16 51 0 27 141 195 165 195 7 0 38 -44 69 -99z m-1354 69 c11 -7 4 -10 -25 -10 -29 0 -36 3 -25 10 8 5 20 10 25 10 6 0 17 -5 25 -10z m-81 -14 c-3 -3 -22 -17 -44 -32 -35 -23 -38 -24 -20 -4 11 12 29 26 40 31 24 9 30 11 24 5z m-504 -114 c-26 -5 -45 -21 -55 -47 -7 -15 -9 -16 -9 -3 -1 21 57 70 72 61 8 -5 5 -9 -8 -11z m398 -15 c-4 -19 -8 -25 -13 -16 -5 7 -3 20 3 30 15 23 16 20 10 -14z m-1003 -95 c0 -3 -11 7 -25 22 -14 15 -25 32 -25 38 0 7 11 -3 25 -22 14 -19 25 -36 25 -38z m1016 -9 c7 -18 11 -33 9 -33 -9 0 -43 79 -37 85 4 3 8 0 11 -7 2 -7 10 -28 17 -45z m-412 -3 c17 0 37 4 44 10 7 5 6 3 -2 -6 -8 -9 -26 -16 -40 -16 -27 0 -66 27 -66 46 0 6 7 0 16 -12 10 -15 25 -22 48 -22z m-482 -32 c-17 -8 -26 -8 -34 0 -9 9 -4 12 23 11 32 0 33 -1 11 -11z m2108 -240 c0 -4 -4 -9 -8 -12 -4 -2 -13 12 -19 32 l-11 36 19 -24 c10 -14 19 -28 19 -32z m-1710 -49 c24 -20 24 -20 2 -9 -13 7 -35 9 -50 5 -22 -5 -24 -4 -13 9 18 21 31 20 61 -5z m-86 -20 c-11 -18 -7 -69 7 -87 12 -15 11 -16 -4 -2 -23 21 -28 100 -6 100 5 0 7 -5 3 -11z m-594 -39 c-28 -22 -46 -25 -55 -10 -3 6 4 10 17 10 13 0 30 5 38 10 26 17 26 10 0 -10z m664 -71 c-3 -5 -11 -9 -19 -9 -8 0 -16 4 -19 9 -3 5 5 9 19 9 14 0 22 -4 19 -9z m-425 -63 c-2 -2 -22 -6 -44 -9 -28 -5 -34 -4 -20 3 19 8 73 14 64 6z m96 -17 c11 -17 2 -18 -19 -3 -17 12 -17 14 -4 14 9 0 20 -5 23 -11z m45 -50 c12 -16 20 -32 17 -35 -2 -3 -14 11 -25 31 -26 43 -21 46 8 4z m1855 5 l30 -26 -35 23 c-45 29 -45 29 -34 29 5 0 23 -12 39 -26z m-226 -22 c-19 -21 -36 -37 -38 -35 -5 3 59 73 67 73 2 0 -11 -17 -29 -38z m-1940 -89 c0 -34 -1 -36 -11 -16 -6 12 -8 29 -5 37 11 27 17 18 16 -21z m1888 -45 c-3 -20 -4 -21 -11 -5 -5 9 -5 29 0 45 7 25 8 26 11 5 3 -13 3 -33 0 -45z m340 -10 c-2 -13 -4 -5 -4 17 -1 22 1 32 4 23 2 -10 2 -28 0 -40z m-2131 -95 c11 -6 14 -12 8 -12 -6 -1 -28 15 -50 35 -26 24 -28 28 -8 12 17 -12 40 -28 50 -35z m189 27 c-16 -16 -32 -30 -37 -30 -8 0 53 59 61 60 3 0 -8 -13 -24 -30z m1918 -10 c-4 -15 -52 -50 -69 -50 -3 0 69 69 73 70 0 0 -1 -9 -4 -20z m-218 -43 c17 -9 26 -16 22 -17 -16 0 -63 29 -82 51 l-20 24 25 -21 c14 -12 39 -29 55 -37z m-1785 3 c-20 -13 -47 -13 -55 0 -4 6 9 10 32 10 28 0 34 -3 23 -10z m1885 -30 c-3 -5 -15 -10 -25 -10 -10 0 -22 5 -25 10 -4 6 7 10 25 10 18 0 29 -4 25 -10z m-481 -99 c3 -5 -8 -11 -24 -13 -24 -4 -27 -2 -19 9 13 15 35 17 43 4z m-1682 -33 c-9 -9 -12 -7 -12 12 0 19 3 21 12 12 9 -9 9 -15 0 -24z m1743 -45 c-8 -16 -9 -15 -13 7 -2 14 -11 34 -20 45 -9 11 -3 8 12 -7 22 -19 27 -31 21 -45z m728 47 c-10 -11 -18 -20 -19 -20 -1 0 0 9 3 20 3 11 12 20 19 20 11 0 10 -5 -3 -20z m-863 -47 c0 -20 -3 -24 -11 -16 -7 7 -9 19 -6 27 10 24 17 19 17 -11z m93 -54 c-15 -16 -27 -19 -40 -14 -16 8 -15 9 7 13 14 2 29 8 35 13 20 19 18 8 -2 -12z m674 -115 c-1 -1 -18 1 -37 4 -28 4 -31 6 -15 12 16 5 61 -8 52 -16z m-1029 -159 c0 -16 -2 -15 -8 5 -4 14 -8 34 -8 45 0 16 2 15 8 -5 4 -14 8 -34 8 -45z m414 -35 c-4 -28 -22 -33 -22 -6 0 9 19 36 25 36 1 0 0 -13 -3 -30z m134 -16 c-8 -21 -11 -17 -20 21 -7 28 -6 29 10 13 10 -10 14 -23 10 -34z m278 -54 c6 -9 1 -5 -11 8 -13 13 -23 28 -23 35 0 7 6 3 12 -8 6 -11 16 -27 22 -35z m-979 -70 c-3 -5 -15 -10 -25 -10 -10 0 -22 5 -25 10 -4 6 7 10 25 10 18 0 29 -4 25 -10z m934 -44 c9 -11 6 -12 -14 -8 -14 2 -22 8 -19 13 8 13 20 11 33 -5z m-298 -163 l24 -26 -25 16 c-13 9 -33 17 -43 17 -10 0 -15 5 -12 10 11 17 31 11 56 -17z m-592 -45 c-2 -2 -17 -14 -34 -28 l-30 -25 24 28 c14 15 29 27 34 27 6 0 8 -1 6 -2z m191 -23 c20 -24 5 -28 -21 -6 -19 16 -20 20 -8 21 9 0 22 -7 29 -15z m-272 -62 c-16 -39 -32 -54 -18 -19 12 33 19 46 25 46 3 0 -1 -12 -7 -27z"/>
</g>
<g id="layer103" fill="#377a37" stroke="none">
<path d="M2375 4958 c-49 -4 -135 -14 -190 -23 -97 -14 -98 -14 -25 -10 359 23 560 14 815 -34 128 -24 318 -84 432 -136 17 -8 34 -15 38 -15 28 0 405 -209 445 -246 14 -13 54 -45 90 -71 129 -94 344 -324 469 -503 89 -126 196 -314 216 -381 4 -13 13 -37 20 -54 44 -108 55 -136 73 -185 28 -79 60 -200 67 -251 4 -24 14 -87 22 -139 12 -69 16 -165 16 -350 0 -248 -6 -325 -38 -465 -8 -33 -21 -96 -31 -140 -45 -210 -229 -596 -383 -805 -70 -95 -83 -110 -93 -110 -5 0 -30 19 -56 43 -26 24 -76 63 -112 88 -112 76 -154 111 -177 143 -19 29 -73 56 -112 56 -16 0 -91 51 -91 61 0 5 26 46 57 92 172 248 198 300 268 517 43 134 61 219 75 350 19 166 -1 455 -40 585 -41 135 -97 289 -121 331 -15 27 -43 79 -61 115 -18 36 -43 78 -55 93 l-22 28 -30 -22 c-17 -11 -36 -29 -43 -39 -7 -10 -51 -60 -98 -111 -47 -51 -98 -109 -115 -128 -39 -47 -189 -216 -287 -324 -43 -47 -78 -90 -78 -97 0 -6 -5 -11 -11 -11 -7 0 -21 -11 -33 -24 -70 -80 -169 -188 -218 -241 -32 -34 -58 -67 -58 -73 0 -6 -18 -26 -40 -43 -22 -18 -40 -38 -40 -45 0 -7 -10 -18 -21 -25 -28 -14 -68 -60 -69 -76 0 -7 -4 -13 -9 -13 -4 0 -22 -15 -39 -32 -123 -131 -150 -158 -175 -173 -27 -17 -29 -17 -100 14 -40 18 -81 37 -92 41 -32 14 -225 81 -275 95 -113 32 -227 78 -249 99 -24 24 -24 24 -5 54 15 24 123 146 204 232 8 8 55 60 104 115 49 55 92 102 95 105 3 3 24 25 45 50 21 25 66 74 100 110 82 86 146 165 146 179 0 6 5 11 11 11 12 0 172 160 209 210 14 18 52 63 85 100 131 145 232 255 262 287 17 18 34 42 38 52 3 11 16 22 28 26 23 7 187 186 187 204 0 21 -221 111 -395 160 -102 29 -227 42 -417 42 -109 0 -201 -2 -206 -5 -4 -2 -57 -10 -118 -16 -64 -7 -125 -20 -148 -31 -22 -10 -47 -19 -57 -19 -24 0 -147 -49 -254 -101 -183 -90 -444 -292 -546 -423 -52 -67 -119 -168 -158 -236 -54 -97 -111 -212 -111 -226 0 -7 32 48 71 124 165 318 310 475 628 679 128 83 381 176 561 208 213 37 541 37 713 0 122 -26 427 -142 427 -163 0 -4 -40 -44 -89 -89 -80 -75 -92 -82 -132 -84 -27 -1 -81 10 -139 29 -152 50 -210 63 -295 67 -44 2 -66 2 -50 -1 167 -23 299 -55 391 -94 36 -16 45 -23 34 -30 -9 -6 -15 -28 -16 -60 -2 -44 -7 -56 -43 -95 -23 -25 -41 -50 -41 -56 0 -7 -3 -10 -6 -6 -3 3 -44 -37 -91 -89 -47 -52 -87 -94 -89 -94 -2 0 -24 14 -49 32 -37 26 -57 33 -110 36 -55 4 -70 1 -107 -21 -117 -69 -139 -212 -47 -312 l38 -41 -57 -60 c-31 -32 -57 -62 -57 -65 0 -3 -28 -31 -62 -63 -35 -32 -63 -64 -63 -72 0 -8 -4 -14 -10 -14 -5 0 -10 -4 -10 -10 0 -10 -36 -50 -45 -50 -3 0 -5 -2 -5 -5 0 -2 -12 -16 -25 -29 -14 -14 -25 -30 -25 -36 0 -6 -4 -8 -10 -5 -5 3 -10 -1 -10 -9 0 -9 -5 -15 -12 -14 -7 2 -12 -1 -13 -7 0 -5 -9 -19 -20 -31 -11 -11 -31 -34 -45 -50 -14 -16 -70 -77 -123 -137 -53 -59 -97 -112 -97 -119 0 -6 -3 -8 -7 -5 -7 8 -53 -39 -53 -54 0 -6 -4 -8 -9 -5 -4 3 -17 -4 -27 -17 -19 -21 -19 -21 1 -8 11 8 8 2 -7 -13 -16 -15 -28 -31 -28 -37 0 -6 -3 -8 -7 -6 -5 2 -24 -12 -43 -31 -19 -19 -28 -31 -20 -26 8 4 -14 -24 -50 -62 -81 -85 -132 -141 -157 -173 -24 -29 -36 -23 -64 31 -11 22 -23 38 -25 35 -7 -7 22 -73 35 -81 24 -15 14 -34 -73 -131 -20 -22 -60 -68 -88 -102 -28 -35 -55 -63 -59 -63 -8 0 -21 19 -67 95 -71 119 -161 350 -190 490 -6 28 -17 77 -24 110 -16 75 -15 447 2 525 38 178 59 258 85 323 4 9 3 17 -2 17 -8 0 -21 -39 -69 -204 -8 -26 -14 -62 -14 -78 0 -16 -5 -39 -11 -50 -11 -20 -14 -56 -24 -278 l-5 -85 -102 -7 c-104 -7 -516 -12 -553 -6 -28 4 -34 56 -24 194 9 123 44 384 60 454 20 81 50 172 114 340 41 108 109 242 175 345 11 17 23 37 27 45 9 17 105 162 113 170 3 3 27 32 55 65 84 102 257 274 330 329 92 69 255 186 259 186 2 0 33 17 67 38 102 60 294 146 414 185 28 9 77 25 110 36 33 11 96 27 140 35 44 9 94 20 110 26 l30 10 -30 -5 c-16 -3 -55 -9 -85 -14 -101 -16 -307 -75 -385 -110 -11 -5 -85 -38 -164 -72 -214 -93 -400 -221 -589 -403 -168 -163 -228 -234 -342 -405 -149 -223 -259 -450 -339 -702 -51 -159 -97 -543 -87 -734 25 -522 211 -1017 533 -1424 117 -148 316 -337 467 -443 132 -93 446 -262 543 -292 26 -8 95 -31 152 -50 153 -52 325 -86 501 -98 196 -13 178 -13 355 -4 163 8 208 15 552 92 88 19 203 65 378 148 372 179 643 401 883 726 106 143 237 389 311 585 74 195 130 455 140 655 8 134 -10 532 -28 640 -43 255 -190 628 -331 836 -128 189 -218 300 -356 436 -98 97 -135 128 -225 193 -15 11 -56 41 -91 66 -34 25 -108 70 -163 99 -55 29 -122 65 -150 81 -123 69 -366 161 -510 193 -184 41 -460 59 -650 44z m1559 -1537 c76 -135 109 -211 155 -359 100 -323 102 -679 4 -987 -63 -200 -139 -353 -263 -529 -77 -109 -231 -254 -368 -347 -168 -114 -245 -153 -482 -239 -54 -20 -148 -42 -215 -50 -38 -5 -104 -14 -145 -20 -111 -16 -351 0 -526 35 -118 24 -429 142 -429 162 0 7 36 49 80 96 44 46 102 109 128 140 l48 57 27 -19 c29 -21 165 -65 182 -59 6 2 -32 16 -85 32 -55 17 -99 36 -103 44 -8 22 26 42 70 42 64 0 111 64 89 120 -8 22 -4 30 43 75 28 28 42 43 31 35 -11 -8 -3 3 17 25 l37 39 38 -26 c74 -51 165 -55 233 -11 103 68 121 214 36 306 l-34 38 24 15 c13 9 24 21 24 26 0 14 62 88 70 83 9 -6 42 30 38 41 -2 5 1 9 5 9 5 0 15 11 22 25 8 14 14 21 15 16 0 -15 50 36 50 51 0 8 7 16 15 19 8 4 13 9 11 13 -2 3 2 12 10 19 8 7 14 10 14 6 0 -4 9 1 20 11 11 10 17 22 14 26 -3 5 3 12 13 16 10 4 23 12 28 18 43 47 58 67 45 60 -13 -8 -13 -7 0 11 8 10 22 25 32 31 15 12 212 226 327 357 30 33 95 106 146 161 50 55 109 120 131 145 49 56 52 59 75 53 11 -3 19 0 19 8 0 7 3 9 7 6 10 -10 43 50 43 78 0 27 142 195 165 195 7 0 38 -44 69 -99z m-1354 69 c11 -7 4 -10 -25 -10 -29 0 -36 3 -25 10 8 5 20 10 25 10 6 0 17 -5 25 -10z m-81 -14 c-3 -3 -22 -17 -44 -32 -35 -23 -38 -24 -20 -4 11 12 29 26 40 31 24 9 30 11 24 5z m-106 -129 c-4 -19 -8 -25 -13 -16 -5 7 -3 20 3 30 15 23 16 20 10 -14z m13 -104 c7 -18 11 -33 9 -33 -9 0 -43 79 -37 85 4 3 8 0 11 -7 2 -7 10 -28 17 -45z m162 -1398 c0 -16 -2 -15 -8 5 -4 14 -8 34 -8 45 0 16 2 15 8 -5 4 -14 8 -34 8 -45z m-153 -175 c-3 -5 -15 -10 -25 -10 -10 0 -22 5 -25 10 -4 6 7 10 25 10 18 0 29 -4 25 -10z"/>
<path d="M3488 3045 c-38 -21 -53 -73 -34 -118 17 -41 41 -57 88 -57 56 0 105 61 90 112 -20 67 -86 96 -144 63z m132 -77 c0 -4 -4 -9 -8 -12 -4 -2 -13 12 -19 32 l-11 36 19 -24 c10 -14 19 -28 19 -32z"/>
<path d="M3271 2708 c-25 -13 -58 -41 -75 -61 -26 -32 -31 -48 -34 -105 -3 -56 0 -74 21 -112 81 -153 320 -129 367 38 16 58 12 94 -16 150 -48 97 -172 139 -263 90z m194 -44 l30 -26 -35 23 c-45 29 -45 29 -34 29 5 0 23 -12 39 -26z m-226 -22 c-19 -21 -36 -37 -38 -35 -5 3 59 73 67 73 2 0 -11 -17 -29 -38z m-52 -134 c-3 -20 -4 -21 -11 -5 -5 9 -5 29 0 45 7 25 8 26 11 5 3 -13 3 -33 0 -45z m340 -10 c-2 -13 -4 -5 -4 17 -1 22 1 32 4 23 2 -10 2 -28 0 -40z m-24 -78 c-4 -15 -52 -50 -69 -50 -3 0 69 69 73 70 0 0 -1 -9 -4 -20z m-218 -43 c17 -9 26 -16 22 -17 -16 0 -63 29 -82 51 l-20 24 25 -21 c14 -12 39 -29 55 -37z m100 -27 c-3 -5 -15 -10 -25 -10 -10 0 -22 5 -25 10 -4 6 7 10 25 10 18 0 29 -4 25 -10z"/>
<path d="M2848 2264 c-91 -49 -58 -180 45 -178 54 2 87 38 87 95 0 42 -34 89 -64 89 -8 0 -20 2 -28 5 -7 2 -25 -2 -40 -11z m56 -13 c3 -5 -8 -11 -24 -13 -24 -4 -27 -2 -19 9 13 15 35 17 43 4z m61 -78 c-8 -16 -9 -15 -13 7 -2 14 -11 34 -20 45 -9 11 -3 8 12 -7 22 -19 27 -31 21 -45z m-135 0 c0 -20 -3 -24 -11 -16 -7 7 -9 19 -6 27 10 24 17 19 17 -11z m93 -54 c-15 -16 -27 -19 -40 -14 -16 8 -15 9 7 13 14 2 29 8 35 13 20 19 18 8 -2 -12z"/>
<path d="M3720 2273 c-62 -20 -87 -59 -76 -118 7 -35 41 -69 59 -58 13 8 -1 -35 -25 -74 -19 -31 -19 -32 -38 -13 -19 19 -79 40 -115 40 -52 0 -102 -24 -146 -70 -39 -39 -48 -56 -54 -97 -4 -29 -2 -68 5 -92 12 -47 76 -124 94 -114 6 3 1 -5 -12 -19 -22 -24 -25 -25 -52 -12 -37 19 -74 9 -105 -28 -25 -29 -34 -83 -15 -90 16 -5 -2 -23 -65 -61 -59 -36 -93 -47 -80 -27 12 19 -42 60 -80 60 -49 0 -74 -15 -91 -56 -14 -33 -10 -89 6 -79 4 3 10 -4 13 -15 6 -24 50 -35 96 -24 27 7 41 18 56 46 12 22 46 54 88 83 64 43 69 45 90 30 44 -31 131 -7 143 40 3 13 0 40 -6 60 -19 56 1 70 98 70 91 0 131 19 175 82 42 59 46 116 14 187 l-26 56 25 54 c19 41 31 56 52 61 53 13 72 33 72 74 0 23 -8 48 -20 64 -11 14 -20 31 -20 39 0 11 -2 11 -9 -1 -6 -9 -11 -10 -15 -2 -8 12 -12 12 -36 4z m-27 -53 c-10 -11 -18 -20 -19 -20 -1 0 0 9 3 20 3 11 12 20 19 20 11 0 10 -5 -3 -20z m-96 -216 c-1 -1 -18 1 -37 4 -28 4 -31 6 -15 12 16 5 61 -8 52 -16z m-203 -264 c6 -9 1 -5 -11 8 -13 13 -23 28 -23 35 0 7 6 3 12 -8 6 -11 16 -27 22 -35z m-45 -114 c9 -11 6 -12 -14 -8 -14 2 -22 8 -19 13 8 13 20 11 33 -5z m-298 -163 l24 -26 -25 16 c-13 9 -33 17 -43 17 -10 0 -15 5 -12 10 11 17 31 11 56 -17z"/>
<path d="M3005 1891 c-78 -33 -78 -144 0 -176 30 -13 40 -13 68 -2 45 19 60 41 60 88 0 66 -70 115 -128 90z m-23 -81 c-4 -28 -22 -33 -22 -6 0 9 19 36 25 36 1 0 0 -13 -3 -30z m134 -16 c-8 -21 -11 -17 -20 21 -7 28 -6 29 10 13 10 -10 14 -23 10 -34z"/>
<path d="M2456 1445 c-66 -23 -134 -104 -123 -146 4 -16 -1 -19 -41 -21 -41 -1 -43 -2 -12 -5 45 -6 60 -19 60 -53 0 -37 55 -110 100 -132 38 -19 123 -24 163 -9 47 18 95 79 108 137 12 54 21 68 49 77 8 2 3 3 -11 1 -22 -3 -28 2 -32 26 -8 39 -64 99 -112 121 -47 22 -96 23 -149 4z m3 -27 c-2 -2 -17 -14 -34 -28 l-30 -25 24 28 c14 15 29 27 34 27 6 0 8 -1 6 -2z m191 -23 c20 -24 5 -28 -21 -6 -19 16 -20 20 -8 21 9 0 22 -7 29 -15z m-272 -62 c-16 -39 -32 -54 -18 -19 12 33 19 46 25 46 3 0 -1 -12 -7 -27z"/>
<path d="M1893 3856 c-37 -17 -68 -24 -106 -23 -68 1 -104 -20 -112 -67 -8 -40 -74 -100 -123 -110 -20 -5 -43 -22 -63 -47 -17 -21 -38 -39 -48 -39 -27 0 -97 -66 -120 -113 -12 -25 -21 -63 -21 -91 0 -31 -7 -57 -19 -74 -28 -41 -88 -173 -95 -212 -4 -24 1 -17 17 25 35 87 94 202 109 211 7 4 10 4 6 -1 -12 -13 24 -63 65 -92 106 -73 267 -20 307 103 15 44 7 127 -15 160 -10 16 -13 36 -9 66 5 35 2 48 -16 71 -12 15 -26 25 -31 22 -23 -15 -6 26 19 43 42 29 56 36 49 25 -9 -14 32 -50 64 -58 33 -8 84 16 100 47 14 27 14 87 -1 102 -7 7 9 20 52 43 74 37 67 44 -9 9z m-51 -118 c-9 -9 -12 -7 -12 12 0 19 3 21 12 12 9 -9 9 -15 0 -24z m-12 -22 c0 -3 -14 -14 -31 -27 -23 -16 -33 -19 -42 -10 -8 8 -6 11 9 11 11 0 29 7 40 15 21 16 24 17 24 11z m-440 -464 c0 -3 -11 7 -25 22 -14 15 -25 32 -25 38 0 7 11 -3 25 -22 14 -19 25 -36 25 -38z m122 -44 c-17 -8 -26 -8 -34 0 -9 9 -4 12 23 11 32 0 33 -1 11 -11z"/>
<path d="M2389 3853 c-8 -2 -23 -17 -32 -32 -39 -67 -6 -138 70 -148 37 -5 45 -2 73 25 41 42 42 92 1 133 -29 28 -64 35 -112 22z m81 -29 c17 -10 18 -13 5 -9 -48 17 -55 16 -80 -9 -30 -30 -27 -60 9 -88 l21 -17 -22 5 c-25 7 -44 52 -36 84 5 19 46 49 68 49 6 0 21 -7 35 -15z"/>
<path d="M1963 3776 c-23 -20 -28 -32 -28 -70 0 -57 26 -85 83 -93 36 -5 45 -2 72 25 86 87 -34 218 -127 138z m29 -22 c-12 -8 -22 -23 -23 -32 0 -11 -2 -13 -6 -4 -6 14 24 52 41 52 6 0 0 -7 -12 -16z m11 -113 c-4 -6 -43 30 -43 40 0 5 10 -2 23 -14 13 -12 22 -24 20 -26z"/>
<path d="M1937 3370 c-76 -60 -13 -189 80 -165 64 15 90 76 62 138 -22 48 -97 62 -142 27z m58 -8 c-26 -5 -45 -21 -55 -47 -7 -15 -9 -16 -9 -3 -1 21 57 70 72 61 8 -5 5 -9 -8 -11z m-1 -122 c17 0 37 4 44 10 7 5 6 3 -2 -6 -8 -9 -26 -16 -40 -16 -27 0 -66 27 -66 46 0 6 7 0 16 -12 10 -15 25 -22 48 -22z"/>
<path d="M1140 2981 c-29 -43 -31 -50 -24 -111 6 -65 14 -92 14 -52 0 11 5 24 10 27 6 3 10 2 10 -3 0 -16 46 -22 79 -11 34 12 61 53 61 93 0 34 -38 75 -83 91 l-37 13 -30 -47z m90 -121 c-28 -22 -46 -25 -55 -10 -3 6 4 10 17 10 13 0 30 5 38 10 26 17 26 10 0 -10z"/>
<path d="M1812 2930 c-40 -37 -41 -94 -4 -140 15 -19 29 -23 67 -23 40 0 52 4 72 27 35 41 28 109 -16 143 -26 20 -94 16 -119 -7z m98 -11 c24 -20 24 -20 2 -9 -13 7 -35 9 -50 5 -22 -5 -24 -4 -13 9 18 21 31 20 61 -5z m-86 -20 c-11 -18 -7 -69 7 -87 12 -15 11 -16 -4 -2 -23 21 -28 100 -6 100 5 0 7 -5 3 -11z m70 -110 c-3 -5 -11 -9 -19 -9 -8 0 -16 4 -19 9 -3 5 5 9 19 9 14 0 22 -4 19 -9z"/>
<path d="M1395 2744 c-79 -29 -126 -101 -126 -191 0 -182 229 -265 350 -127 52 58 64 140 32 210 -46 101 -152 146 -256 108z m74 -18 c-2 -2 -22 -6 -44 -9 -28 -5 -34 -4 -20 3 19 8 73 14 64 6z m96 -17 c11 -17 2 -18 -19 -3 -17 12 -17 14 -4 14 9 0 20 -5 23 -11z m45 -50 c12 -16 20 -32 17 -35 -2 -3 -14 11 -25 31 -26 43 -21 46 8 4z m-311 -106 c0 -34 -1 -36 -11 -16 -6 12 -8 29 -5 37 11 27 17 18 16 -21z m97 -150 c11 -6 14 -12 8 -12 -6 -1 -28 15 -50 35 -26 24 -28 28 -8 12 17 -12 40 -28 50 -35z m189 27 c-16 -16 -32 -30 -37 -30 -8 0 53 59 61 60 3 0 -8 -13 -24 -30z m-85 -50 c-20 -13 -47 -13 -55 0 -4 6 9 10 32 10 28 0 34 -3 23 -10z"/>
<path d="M1136 2315 c-3 -8 -11 -15 -19 -15 -7 0 -23 -9 -35 -20 -52 -49 -3 -144 75 -145 34 0 37 -3 52 -45 18 -50 41 -94 46 -88 2 2 -7 26 -20 53 -29 61 -42 111 -28 102 6 -4 18 9 27 28 24 49 8 98 -41 123 -28 15 -36 15 -28 0 4 -7 0 -5 -8 5 -13 15 -15 16 -21 2z m86 -97 c-9 -9 -12 -7 -12 12 0 19 3 21 12 12 9 -9 9 -15 0 -24z"/>
</g>
<g id="layer104" fill="#ea1e33" stroke="none">
<path d="M2375 4958 c-49 -4 -135 -14 -190 -23 -97 -14 -98 -14 -25 -10 359 23 560 14 815 -34 128 -24 318 -84 432 -136 17 -8 34 -15 38 -15 28 0 405 -209 445 -246 14 -13 54 -45 90 -71 129 -94 344 -324 469 -503 89 -126 196 -314 216 -381 4 -13 13 -37 20 -54 44 -108 55 -136 73 -185 28 -79 60 -200 67 -251 4 -24 14 -87 22 -139 12 -69 16 -165 16 -350 0 -248 -6 -325 -38 -465 -8 -33 -21 -96 -31 -140 -45 -210 -229 -596 -383 -805 -70 -95 -83 -110 -93 -110 -5 0 -30 19 -56 43 -26 24 -76 63 -112 88 -112 76 -154 111 -177 143 -19 29 -73 56 -112 56 -16 0 -91 51 -91 61 0 5 26 46 57 92 172 248 198 300 268 517 43 134 61 219 75 350 19 166 -1 455 -40 585 -41 135 -97 289 -121 331 -15 27 -43 79 -61 115 -18 36 -43 78 -55 93 l-22 28 -30 -22 c-17 -11 -36 -29 -43 -39 -7 -10 -50 -58 -94 -107 -122 -133 -153 -168 -149 -172 1 -2 20 9 41 23 21 14 45 24 53 23 20 -4 51 44 51 77 0 27 142 195 165 195 14 0 107 -159 155 -265 48 -107 107 -311 125 -433 68 -460 -36 -880 -315 -1276 -77 -109 -231 -254 -368 -347 -168 -114 -245 -153 -482 -239 -54 -20 -148 -42 -215 -50 -38 -5 -104 -14 -145 -20 -111 -16 -351 0 -526 35 -118 24 -429 142 -429 162 0 7 36 49 80 96 44 46 102 109 128 140 l48 57 27 -19 c29 -21 165 -65 182 -59 6 2 -32 16 -85 32 -56 17 -99 36 -103 44 -3 10 7 26 29 44 18 16 35 24 37 19 4 -12 62 7 62 21 0 6 -8 4 -17 -3 -16 -13 -17 -12 -5 3 8 10 19 16 25 15 7 -1 13 16 15 42 3 39 12 54 74 123 62 69 74 78 98 74 16 -2 36 -9 47 -15 23 -13 8 -14 -18 -1 -10 6 -19 8 -19 6 0 -7 47 -31 79 -41 16 -5 21 -4 17 4 -5 7 4 11 24 11 20 0 29 -4 24 -11 -4 -8 1 -9 17 -4 47 14 80 36 73 47 -4 6 -3 8 3 5 16 -10 34 18 27 39 -4 14 -3 15 4 5 7 -10 11 -10 17 -1 12 19 24 81 15 75 -9 -6 -24 64 -16 73 3 3 7 -6 7 -19 1 -16 3 -18 6 -7 5 18 -20 73 -38 84 -8 4 -9 3 -5 -4 11 -18 0 -14 -15 5 -10 11 -10 14 -1 9 6 -4 12 -2 12 3 0 6 -4 11 -10 11 -5 0 -10 5 -10 10 0 12 93 128 118 147 8 7 13 16 9 19 -4 4 -26 -13 -49 -38 -24 -26 -56 -54 -71 -63 -27 -17 -29 -17 -100 14 -40 18 -81 37 -92 41 -32 14 -225 81 -275 95 -176 50 -278 101 -266 132 12 29 -19 10 -68 -43 -28 -31 -82 -88 -120 -127 -37 -40 -80 -90 -94 -112 -28 -44 -148 -165 -163 -165 -6 0 -18 14 -27 31 -9 17 -23 38 -30 47 -11 15 -12 14 -7 -8 4 -14 15 -37 26 -52 10 -15 19 -31 19 -36 0 -10 -25 -41 -84 -107 -20 -22 -60 -68 -88 -102 -28 -35 -55 -63 -59 -63 -8 0 -21 19 -67 95 -71 119 -161 350 -190 490 -6 28 -17 77 -24 110 -16 75 -15 447 2 525 38 178 59 258 85 323 4 9 3 17 -2 17 -8 0 -21 -39 -69 -204 -8 -26 -14 -62 -14 -78 0 -16 -5 -39 -11 -50 -11 -20 -14 -56 -24 -278 l-5 -85 -102 -7 c-104 -7 -516 -12 -553 -6 -28 4 -34 56 -24 194 9 123 44 384 60 454 20 81 50 172 114 340 41 108 109 242 175 345 11 17 23 37 27 45 9 17 105 162 113 170 3 3 27 32 55 65 84 102 257 274 330 329 92 69 255 186 259 186 2 0 33 17 67 38 102 60 294 146 414 185 28 9 77 25 110 36 33 11 96 27 140 35 44 9 94 20 110 26 l30 10 -30 -5 c-16 -3 -55 -9 -85 -14 -101 -16 -307 -75 -385 -110 -11 -5 -85 -38 -164 -72 -214 -93 -400 -221 -589 -403 -168 -163 -228 -234 -342 -405 -149 -223 -259 -450 -339 -702 -51 -159 -97 -543 -87 -734 25 -522 211 -1017 533 -1424 117 -148 316 -337 467 -443 132 -93 446 -262 543 -292 26 -8 95 -31 152 -50 153 -52 325 -86 501 -98 196 -13 178 -13 355 -4 163 8 208 15 552 92 88 19 203 65 378 148 372 179 643 401 883 726 106 143 237 389 311 585 74 195 130 455 140 655 8 134 -10 532 -28 640 -43 255 -190 628 -331 836 -128 189 -218 300 -356 436 -98 97 -135 128 -225 193 -15 11 -56 41 -91 66 -34 25 -108 70 -163 99 -55 29 -122 65 -150 81 -123 69 -366 161 -510 193 -184 41 -460 59 -650 44z"/>
<path d="M2360 4249 c-167 -11 -304 -31 -344 -50 -22 -10 -47 -19 -57 -19 -24 0 -147 -49 -254 -101 -183 -90 -444 -292 -546 -423 -52 -67 -119 -168 -158 -236 -54 -97 -111 -212 -111 -226 0 -7 32 48 71 124 165 318 310 475 628 679 128 83 381 176 561 208 213 37 541 37 713 0 122 -26 427 -142 427 -163 0 -4 -40 -44 -89 -89 -80 -75 -92 -82 -132 -84 -27 -1 -81 10 -139 29 -151 50 -210 63 -290 66 -41 2 -59 2 -40 -1 131 -15 364 -77 404 -106 24 -17 5 -112 -29 -147 -14 -14 -25 -30 -25 -36 0 -13 128 124 135 146 3 10 16 21 28 25 23 7 187 186 187 204 0 22 -229 114 -410 164 -121 33 -339 48 -530 36z"/>
<path d="M1893 3856 c-37 -17 -68 -24 -106 -23 -68 1 -104 -20 -112 -67 -8 -40 -74 -100 -123 -110 -20 -5 -43 -22 -63 -47 -17 -21 -38 -39 -48 -39 -27 0 -97 -66 -120 -113 -12 -25 -21 -63 -21 -91 0 -31 -7 -57 -19 -74 -28 -41 -88 -173 -95 -212 -4 -24 1 -17 17 25 27 67 84 183 99 203 8 9 14 9 24 1 11 -9 14 -8 14 2 0 7 11 -2 25 -21 14 -19 25 -36 24 -39 0 -3 -7 4 -16 17 -8 12 -20 22 -26 22 -6 0 2 -14 18 -30 16 -17 35 -28 43 -25 7 2 10 0 7 -5 -3 -6 -5 -10 -3 -10 2 0 18 -4 36 -9 20 -6 30 -6 27 0 -4 5 16 8 47 6 42 -1 60 3 86 22 19 13 31 29 28 37 -3 7 0 16 6 20 7 4 8 3 4 -4 -4 -7 -5 -12 -2 -12 3 0 12 13 21 30 19 37 19 110 0 157 -8 19 -15 57 -15 83 0 32 -6 55 -20 73 -27 34 -25 42 10 67 39 27 76 32 92 11 12 -14 11 -15 -6 -1 -16 12 -18 12 -15 1 3 -8 15 -18 28 -22 14 -6 20 -5 16 1 -3 6 2 10 12 10 10 0 30 7 43 16 18 11 17 8 -5 -10 -26 -22 -27 -25 -7 -19 13 3 30 19 38 35 9 17 11 27 5 24 -7 -4 -11 1 -11 14 0 12 4 18 10 15 6 -4 8 5 4 22 -5 26 -1 30 58 60 74 37 67 44 -9 9z"/>
<path d="M2388 3828 c-9 -6 -6 -7 10 -3 l23 7 -23 -24 c-13 -13 -26 -19 -30 -14 -3 5 -5 -10 -4 -34 3 -50 24 -70 73 -70 60 0 96 75 60 124 -15 21 -86 30 -109 14z m16 -111 c20 -16 20 -17 1 -10 -24 8 -35 22 -34 43 1 13 1 13 6 0 3 -8 15 -23 27 -33z"/>
<path d="M1971 3761 c-46 -46 -11 -131 53 -131 38 0 61 15 75 48 13 32 -1 88 -19 77 -6 -4 -9 -1 -8 7 2 9 -11 14 -39 16 -32 2 -47 -2 -62 -17z m21 -7 c-12 -8 -22 -23 -23 -32 0 -11 -2 -13 -6 -4 -6 14 24 52 41 52 6 0 0 -7 -12 -16z m11 -113 c-4 -6 -43 30 -43 40 0 5 10 -2 23 -14 13 -12 22 -24 20 -26z"/>
<path d="M2911 3633 c-13 -28 -13 -28 8 -9 22 20 27 36 13 36 -5 0 -14 -12 -21 -27z"/>
<path d="M2478 3480 c-26 -10 -58 -35 -58 -44 0 -5 10 0 23 11 20 19 57 37 57 29 0 -5 -73 -50 -82 -50 -11 -1 -23 -18 -36 -51 -12 -29 -12 -29 4 -10 15 18 16 18 10 2 -3 -10 -6 -26 -6 -35 0 -15 -2 -15 -10 -2 -8 12 -10 9 -10 -13 0 -16 4 -26 8 -23 4 2 15 -17 24 -42 13 -37 14 -43 2 -28 -7 11 -14 25 -14 32 0 7 -4 16 -10 19 -16 10 9 -46 37 -83 19 -26 28 -31 34 -21 8 13 10 12 13 -10 2 -18 16 -24 16 -8 0 10 5 17 10 17 16 0 209 198 234 239 7 11 4 13 -12 9 -14 -4 -28 2 -43 18 -12 13 -19 24 -14 24 5 0 4 5 -3 12 -12 12 -149 19 -174 8z"/>
<path d="M2675 3440 c10 -11 20 -20 22 -20 2 0 -1 9 -7 20 -6 11 -16 20 -22 20 -6 0 -3 -9 7 -20z"/>
<path d="M2006 3368 c5 -8 -2 -9 -24 -5 -25 5 -34 2 -47 -16 -18 -26 -21 -82 -3 -71 8 5 9 2 5 -9 -3 -9 -1 -20 6 -24 17 -10 79 -3 96 10 8 7 15 10 17 7 1 -3 6 -2 10 3 4 4 2 7 -4 7 -6 0 -9 7 -6 15 4 8 10 12 15 9 16 -9 10 7 -9 24 -10 10 -12 13 -5 8 20 -13 16 8 -4 26 -24 20 -56 32 -47 16z m-49 -26 c-10 -10 -17 -25 -18 -33 0 -11 -2 -11 -6 -1 -5 12 23 52 35 52 3 0 -2 -8 -11 -18z"/>
<path d="M2020 3233 c-14 -7 -18 -13 -10 -13 17 0 47 17 40 23 -3 2 -16 -2 -30 -10z"/>
<path d="M2348 3018 c-23 -29 -69 -80 -100 -113 -32 -33 -58 -66 -58 -73 0 -7 18 8 41 35 23 26 69 77 103 113 68 71 82 90 68 90 -6 0 -30 -24 -54 -52z"/>
<path d="M3480 3013 c-26 -33 -25 -63 1 -97 16 -21 29 -26 62 -26 31 0 38 3 27 10 -10 7 -11 10 -2 11 6 1 17 2 23 3 7 0 16 11 20 24 6 16 5 21 -3 16 -8 -5 -9 2 -5 24 8 38 -9 53 -63 58 -32 3 -43 -1 -60 -23z"/>
<path d="M1141 2984 c-28 -43 -32 -55 -27 -93 3 -24 6 -56 7 -70 l1 -26 7 25 c5 17 14 25 29 24 11 0 19 3 16 8 -3 4 4 8 16 8 12 0 31 5 43 11 19 9 19 8 -3 -11 -20 -17 -21 -19 -4 -11 11 5 25 16 31 23 16 18 11 94 -4 91 -7 -2 -12 2 -10 8 1 6 -8 15 -21 20 -15 6 -21 5 -17 -1 3 -6 -1 -10 -10 -10 -9 0 -14 3 -12 8 3 4 1 16 -2 26 -6 16 -12 11 -40 -30z"/>
<path d="M1910 2920 c24 -21 24 -21 2 -10 -13 7 -35 9 -49 5 -17 -4 -23 -2 -17 6 4 7 2 10 -7 7 -8 -3 -15 -10 -15 -16 -1 -7 -2 -20 -3 -29 -1 -16 -3 -16 -11 -3 -5 8 -10 12 -10 7 0 -7 5 -18 32 -69 10 -21 10 -22 -5 -9 -10 7 -17 21 -18 30 0 11 -2 12 -6 3 -3 -7 1 -20 8 -28 15 -18 54 -41 45 -26 -3 5 5 10 19 10 14 0 22 -5 18 -11 -4 -6 -1 -7 8 -2 37 21 49 40 49 75 0 36 -14 57 -50 74 -8 4 -4 -2 10 -14z"/>
<path d="M2148 2793 c-29 -34 -30 -48 -2 -21 15 15 26 30 23 33 -3 3 -13 -3 -21 -12z"/>
<path d="M1384 2721 c-23 -10 -51 -32 -62 -49 -23 -32 -28 -47 -13 -38 5 4 7 -3 4 -15 -4 -13 -8 -17 -13 -9 -5 8 -9 4 -13 -9 -3 -13 -1 -19 5 -15 8 5 9 -9 5 -42 -7 -63 22 -117 78 -146 11 -6 4 5 -16 23 -19 19 -26 27 -15 18 12 -9 31 -22 44 -28 12 -7 20 -16 17 -22 -4 -5 -2 -9 4 -9 5 0 17 -3 27 -7 12 -4 15 -3 10 5 -5 8 4 12 29 12 22 0 34 -4 30 -10 -9 -14 41 6 77 31 61 44 87 152 52 224 -17 36 -64 85 -64 67 0 -9 -5 -9 -19 0 -11 7 -18 15 -15 19 15 25 -98 25 -152 0z m85 5 c-2 -2 -22 -6 -44 -9 -28 -5 -34 -4 -20 3 19 8 73 14 64 6z m141 -67 c12 -16 20 -32 17 -35 -2 -3 -14 11 -25 31 -26 43 -21 46 8 4z m-25 -229 c-16 -16 -32 -30 -37 -30 -8 0 53 59 61 60 3 0 -8 -13 -24 -30z"/>
<path d="M2048 2685 c-39 -46 -35 -55 7 -15 33 32 44 51 28 49 -5 0 -20 -15 -35 -34z"/>
<path d="M3261 2682 c-64 -43 -80 -74 -74 -140 5 -42 3 -53 -6 -48 -18 12 16 -65 42 -92 32 -35 129 -80 113 -53 -5 7 4 11 24 11 17 0 29 -4 25 -9 -3 -6 6 -6 23 -1 40 11 75 30 68 37 -3 3 -12 0 -21 -7 -9 -7 -17 -11 -19 -9 -1 2 15 19 36 38 28 25 37 29 33 15 -4 -11 4 -1 15 20 43 77 10 200 -63 237 -16 8 -14 3 8 -16 l30 -26 -37 23 c-20 12 -34 26 -32 29 7 11 -25 19 -75 19 -36 0 -59 -7 -90 -28z m-22 -40 c-19 -21 -36 -37 -38 -35 -5 3 59 73 67 73 2 0 -11 -17 -29 -38z m288 -144 c-2 -13 -4 -5 -4 17 -1 22 1 32 4 23 2 -10 2 -28 0 -40z m-242 -121 c17 -9 26 -16 22 -17 -16 0 -63 29 -82 51 l-20 24 25 -21 c14 -12 39 -29 55 -37z"/>
<path d="M2917 2502 c-19 -20 -23 -37 -7 -27 10 6 33 45 27 45 -2 0 -11 -8 -20 -18z"/>
<path d="M2830 2405 c-7 -9 -11 -18 -8 -20 3 -3 11 1 18 10 7 9 11 18 8 20 -3 3 -11 -1 -18 -10z"/>
<path d="M2761 2328 c-17 -18 -31 -37 -31 -43 0 -9 70 62 70 71 0 10 -11 2 -39 -28z"/>
<path d="M1137 2317 c-3 -9 -12 -17 -20 -17 -7 0 -23 -9 -35 -20 -52 -49 -3 -144 75 -145 34 0 37 -3 52 -45 18 -50 41 -94 46 -88 2 2 -8 28 -22 58 -24 51 -40 135 -23 125 5 -3 11 2 14 11 8 22 8 26 -4 19 -5 -3 -10 3 -10 15 0 13 4 19 11 14 8 -4 7 0 -1 15 -6 12 -16 18 -22 15 -7 -4 -8 -3 -4 4 4 7 -2 16 -17 21 -14 6 -27 15 -29 22 -3 9 -6 8 -11 -4z"/>
<path d="M3771 2273 c-1 -7 -8 -13 -17 -13 -8 0 -12 -4 -9 -10 3 -5 -1 -10 -10 -10 -9 0 -14 4 -11 9 4 5 -3 7 -15 4 -11 -3 -16 -9 -11 -12 5 -3 0 -15 -10 -26 -19 -20 -19 -20 -13 0 6 16 5 17 -4 5 -16 -23 -13 -76 6 -91 15 -12 16 -12 8 1 -5 9 -5 12 1 7 5 -5 9 -12 9 -15 0 -4 4 -13 9 -20 12 -20 -36 -107 -58 -105 -12 1 -15 -4 -11 -14 4 -13 3 -14 -10 -3 -8 7 -13 16 -10 20 3 4 -2 11 -11 14 -24 9 -31 7 -14 -5 12 -9 12 -10 -3 -5 -10 3 -28 6 -40 7 -21 0 -21 1 -2 9 15 7 10 9 -23 9 -45 1 -92 -18 -129 -52 -25 -22 -31 -43 -10 -31 7 4 9 3 4 -2 -5 -5 -14 -9 -20 -9 -16 0 -30 -64 -24 -113 5 -48 52 -126 71 -119 19 8 13 -29 -9 -53 -13 -14 -28 -20 -42 -17 -17 3 -21 1 -13 -8 8 -9 4 -11 -15 -7 -14 2 -22 9 -18 14 3 6 0 9 -8 6 -8 -3 -14 -10 -14 -16 0 -5 -4 -14 -9 -19 -5 -5 -6 -3 -2 5 4 6 3 12 -3 12 -15 0 -31 -34 -31 -67 0 -15 -4 -33 -8 -39 -9 -13 -124 -84 -137 -84 -5 0 -22 12 -38 28 -17 15 -26 21 -22 13 6 -11 4 -13 -9 -8 -10 4 -24 7 -32 7 -9 0 -12 5 -9 10 4 6 -5 5 -19 -2 -14 -6 -26 -16 -26 -21 0 -5 8 -3 18 4 15 13 16 12 4 -3 -8 -10 -19 -16 -25 -15 -20 4 -12 -95 9 -110 41 -30 120 -8 137 38 8 20 36 46 85 80 69 46 74 48 95 34 44 -31 131 -7 143 40 3 13 0 40 -6 60 -19 56 1 70 98 70 91 0 131 19 175 82 42 59 46 116 14 187 l-26 56 25 54 c19 41 31 56 52 61 53 13 72 33 72 74 0 22 -8 48 -19 62 -10 13 -21 31 -24 39 -3 9 -6 10 -6 3z m-377 -533 c6 -9 1 -5 -11 8 -13 13 -23 28 -23 35 0 7 6 3 12 -8 6 -11 16 -27 22 -35z"/>
<path d="M2677 2233 c-20 -20 -37 -40 -37 -44 0 -9 32 21 64 59 30 34 13 26 -27 -15z"/>
<path d="M2904 2251 c3 -5 -7 -11 -24 -13 -16 -2 -27 -1 -24 4 12 19 -16 6 -30 -14 -18 -25 -21 -42 -6 -33 6 4 10 -5 10 -20 0 -16 -4 -24 -11 -19 -8 4 -8 0 0 -15 6 -11 20 -25 31 -31 24 -13 33 -13 25 0 -4 6 5 10 20 10 16 0 24 -4 20 -11 -4 -6 2 -5 13 2 11 7 25 24 31 37 8 17 8 21 0 17 -7 -5 -10 3 -9 21 3 46 1 50 -26 62 -14 7 -23 8 -20 3z"/>
<path d="M2992 1864 c-20 -14 -33 -42 -14 -30 5 3 6 -8 4 -24 -2 -17 -8 -27 -13 -24 -5 3 -4 -6 2 -19 6 -14 22 -30 36 -36 15 -7 22 -7 18 -1 -3 5 1 10 10 10 9 0 13 -4 10 -10 -9 -15 3 -12 35 7 16 9 31 25 33 35 3 10 1 16 -4 12 -5 -3 -9 1 -9 10 0 8 -3 23 -7 33 -6 16 -5 17 12 3 17 -14 18 -14 6 7 -22 43 -78 56 -119 27z"/>
<path d="M2462 1433 c-6 -2 -10 -8 -8 -11 2 -4 -11 -18 -28 -31 l-31 -25 25 28 c23 27 23 28 3 17 -29 -15 -59 -55 -73 -97 -11 -32 -14 -34 -58 -36 -41 -1 -42 -2 -12 -5 45 -6 60 -19 60 -53 0 -37 55 -110 100 -132 38 -19 123 -24 163 -9 47 18 95 79 108 137 13 57 21 68 54 77 11 3 4 5 -14 4 -31 -2 -38 3 -57 37 -12 22 -30 41 -39 42 -22 3 -46 24 -39 35 13 21 -112 39 -154 22z m-84 -100 c-16 -39 -32 -54 -18 -19 12 33 19 46 25 46 3 0 -1 -12 -7 -27z"/>
</g>
<g id="layer105" fill="#9e664c" stroke="none">
<path d="M3930 4473 c0 -4 11 -13 25 -20 14 -6 23 -7 19 -2 -8 13 -44 31 -44 22z"/>
<path d="M2139 4216 c-3 -3 -23 -6 -46 -7 -22 -2 -49 -9 -59 -17 -18 -13 -17 -14 6 -9 14 3 51 11 83 17 31 6 57 13 57 16 0 5 -35 5 -41 0z"/>
<path d="M2600 3963 c147 -17 378 -81 410 -113 17 -17 18 -17 33 1 14 16 14 18 -1 17 -9 -1 -60 13 -112 30 -150 49 -210 63 -290 66 -41 2 -59 2 -40 -1z"/>
<path d="M1677 3773 c-4 -3 -7 -14 -7 -23 0 -20 -83 -90 -106 -90 -23 0 -15 -6 19 -14 20 -5 27 -3 27 8 0 19 70 67 83 59 7 -4 7 1 2 13 -4 10 -8 27 -9 37 0 19 0 19 -9 10z"/>
<path d="M3000 3747 c0 -8 -11 -24 -25 -37 -14 -13 -25 -28 -25 -34 1 -6 12 3 26 19 35 42 47 65 34 65 -5 0 -10 -6 -10 -13z"/>
<path d="M1295 3321 c-63 -122 -104 -212 -109 -241 -4 -20 7 -1 26 45 47 112 92 191 107 187 7 -1 11 3 9 10 -7 20 -23 19 -33 -1z"/>
<path d="M3587 3234 c-21 -14 -36 -28 -34 -30 3 -3 22 7 43 21 21 14 46 24 56 22 10 -3 18 -1 18 4 0 18 -46 9 -83 -17z"/>
<path d="M2349 3018 l-43 -53 52 50 c55 52 57 55 43 55 -5 0 -28 -24 -52 -52z"/>
<path d="M1160 3010 c-9 -17 -8 -20 9 -20 14 0 18 5 14 20 -3 11 -7 20 -9 20 -2 0 -8 -9 -14 -20z"/>
<path d="M2245 2903 c-30 -32 -55 -62 -55 -67 0 -6 3 -6 8 0 5 5 32 35 62 67 29 31 50 57 46 57 -3 0 -31 -26 -61 -57z"/>
<path d="M1121 2833 c1 -22 3 -30 6 -18 3 11 9 25 14 31 5 6 6 14 2 17 -15 16 -23 5 -22 -30z"/>
<path d="M2046 2684 c-16 -19 -27 -36 -25 -39 2 -2 19 14 37 36 18 21 30 39 25 38 -4 0 -21 -16 -37 -35z"/>
<path d="M1722 2322 c-52 -54 -76 -82 -70 -82 2 0 30 27 61 60 32 33 55 60 52 60 -3 0 -22 -17 -43 -38z"/>
<path d="M2760 2318 l-32 -43 36 39 c20 21 36 40 36 42 0 11 -11 0 -40 -38z"/>
<path d="M3762 2264 c-10 -11 -10 -14 -1 -14 7 0 22 -8 33 -17 21 -18 21 -18 5 2 -9 11 -18 25 -20 32 -3 8 -8 7 -17 -3z"/>
<path d="M1573 2163 c-35 -38 -69 -77 -75 -88 -8 -15 -4 -13 12 5 13 14 50 53 84 88 33 34 57 62 52 62 -4 0 -37 -30 -73 -67z"/>
<path d="M1191 2156 c-7 -8 -8 -17 -3 -20 5 -3 15 -25 21 -48 7 -24 21 -54 32 -68 23 -28 22 -25 -10 45 -13 28 -24 62 -25 77 -1 33 0 32 -15 14z"/>
<path d="M2569 2108 c-30 -35 -60 -69 -66 -76 -7 -7 -13 -21 -12 -30 0 -14 2 -14 6 -2 8 18 99 130 121 147 8 7 13 15 10 18 -3 3 -30 -23 -59 -57z"/>
<path d="M3705 2100 c8 -13 -19 -74 -43 -98 -19 -19 -19 -19 1 -31 10 -7 16 -8 13 -2 -4 5 7 37 23 70 16 33 26 62 23 65 -9 10 -24 7 -17 -4z"/>
<path d="M2194 1688 c-77 -83 -98 -113 -29 -42 39 40 77 75 85 77 13 5 13 6 0 6 -9 1 -34 -18 -56 -41z"/>
<path d="M3423 1683 c10 -9 -33 -53 -52 -53 -14 -1 -14 -2 1 -10 13 -8 23 -3 47 21 30 29 33 49 9 49 -6 0 -8 -3 -5 -7z"/>
<path d="M3247 1525 c-9 -25 -132 -99 -152 -92 -11 5 -13 0 -8 -26 7 -36 13 -48 13 -25 0 9 34 39 76 67 65 45 78 50 92 39 15 -11 15 -11 6 2 -7 8 -14 24 -16 35 l-4 20 -7 -20z"/>
<path d="M1947 1412 c-27 -28 -27 -29 -8 -46 20 -18 159 -67 189 -65 9 0 -28 15 -83 32 -110 36 -124 51 -79 86 15 11 22 21 17 21 -5 0 -21 -13 -36 -28z"/>
<path d="M2700 1305 c1 -23 18 -39 32 -28 7 6 20 13 28 16 8 2 3 3 -11 1 -14 -1 -31 2 -38 9 -6 6 -11 7 -11 2z"/>
</g>
<g id="layer106" fill="#8c8a5e" stroke="none">
<path d="M2695 4945 c131 -13 269 -34 380 -59 55 -13 263 -83 310 -105 74 -35 139 -61 142 -57 5 5 -189 90 -292 128 -166 61 -428 109 -585 107 l-85 -2 130 -12z"/>
<path d="M1270 4649 c-30 -16 -62 -37 -70 -46 -12 -13 -8 -12 15 2 17 11 49 30 73 43 23 13 42 26 42 28 0 6 -1 6 -60 -27z"/>
<path d="M1058 4512 c-37 -26 -67 -50 -68 -55 0 -4 30 14 68 39 78 54 90 64 77 64 -6 -1 -40 -22 -77 -48z"/>
<path d="M2388 4233 c23 -2 61 -2 85 0 23 2 4 4 -43 4 -47 0 -66 -2 -42 -4z"/>
<path d="M2098 4210 c-25 -5 -55 -13 -65 -20 -16 -10 -15 -11 7 -6 98 18 140 28 140 32 0 5 -24 4 -82 -6z"/>
<path d="M1895 4145 c-39 -17 -21 -18 25 0 19 7 28 14 20 14 -8 0 -28 -6 -45 -14z"/>
<path d="M2418 3973 c23 -2 59 -2 80 0 20 2 1 4 -43 4 -44 0 -61 -2 -37 -4z"/>
<path d="M2303 3963 c15 -2 37 -2 50 0 12 2 0 4 -28 4 -27 0 -38 -2 -22 -4z"/>
<path d="M2590 3964 c149 -18 363 -74 415 -108 17 -12 24 -12 39 0 18 12 18 13 0 12 -11 -1 -62 13 -114 30 -151 50 -210 63 -295 67 -44 2 -64 1 -45 -1z"/>
<path d="M2060 3915 c-19 -7 -28 -13 -20 -13 8 0 31 6 50 13 19 7 28 13 20 13 -8 0 -31 -6 -50 -13z"/>
<path d="M1892 3855 c-30 -14 -61 -25 -69 -25 -13 0 -13 -3 -3 -15 7 -9 16 -12 19 -7 3 5 33 23 66 40 72 37 62 42 -13 7z"/>
<path d="M1677 3773 c-4 -3 -7 -14 -7 -23 0 -18 -72 -81 -105 -92 -15 -4 -12 -6 13 -7 17 -1 32 3 32 9 0 5 18 21 40 36 32 21 39 31 37 55 -1 16 -2 29 -3 29 0 0 -4 -3 -7 -7z"/>
<path d="M1295 3321 c-64 -123 -104 -212 -109 -241 -5 -25 1 -18 17 25 32 80 94 202 107 210 5 3 10 10 10 16 0 16 -15 10 -25 -10z"/>
<path d="M1160 3010 c-9 -16 -8 -18 5 -14 8 4 15 12 15 20 0 20 -7 17 -20 -6z"/>
<path d="M1121 2835 c1 -40 1 -40 10 -10 5 18 5 33 -1 39 -7 7 -10 -4 -9 -29z"/>
<path d="M3802 2820 c0 -19 2 -27 5 -17 2 9 2 25 0 35 -3 9 -5 1 -5 -18z"/>
<path d="M1112 2765 c-1 -16 -5 -48 -8 -70 -4 -32 -3 -36 6 -22 6 9 9 41 7 70 -2 28 -4 39 -5 22z"/>
<path d="M1108 2538 c-2 -13 -1 -39 3 -58 5 -30 7 -26 8 23 1 58 -4 74 -11 35z"/>
<path d="M4882 2500 c0 -19 2 -27 5 -17 2 9 2 25 0 35 -3 9 -5 1 -5 -18z"/>
<path d="M1120 2409 c0 -19 5 -41 10 -49 7 -10 8 -1 4 30 -8 56 -14 64 -14 19z"/>
<path d="M3771 2269 c-1 -9 9 -24 22 -35 22 -19 22 -19 6 1 -9 11 -19 27 -22 35 -5 13 -6 13 -6 -1z"/>
<path d="M1187 2138 c6 -7 16 -31 23 -53 14 -44 40 -88 47 -81 3 2 -2 15 -10 28 -8 12 -22 44 -32 71 -10 26 -22 47 -28 47 -6 0 -6 -4 0 -12z"/>
<path d="M3686 2039 c-24 -49 -27 -62 -16 -72 10 -9 11 -9 6 0 -3 6 7 39 23 72 16 34 26 61 23 61 -4 0 -20 -27 -36 -61z"/>
<path d="M1265 1968 c4 -13 16 -36 27 -51 11 -16 17 -35 13 -45 -3 -9 10 -1 29 17 37 36 50 57 17 27 -24 -22 -36 -16 -61 35 -22 43 -35 52 -25 17z"/>
<path d="M3407 1652 c-37 -38 -24 -47 13 -10 17 16 30 31 30 34 0 12 -19 1 -43 -24z"/>
<path d="M4657 1545 c-24 -50 -20 -58 4 -12 11 22 19 41 17 43 -3 2 -12 -12 -21 -31z"/>
<path d="M3402 1518 c-10 -30 -10 -31 3 -14 13 17 21 46 12 46 -1 0 -8 -15 -15 -32z"/>
<path d="M3238 1512 c-4 -12 -121 -82 -136 -82 -7 0 -12 -13 -11 -32 1 -18 3 -25 6 -16 2 9 38 40 80 68 63 43 77 49 91 38 14 -12 14 -11 1 10 -14 23 -25 28 -31 14z"/>
<path d="M4599 1428 c-143 -283 -403 -592 -654 -775 -67 -48 -132 -96 -145 -105 -14 -9 -22 -17 -19 -17 4 -1 67 42 140 94 286 204 529 487 684 796 20 38 33 69 30 69 -2 0 -19 -28 -36 -62z"/>
<path d="M1939 1404 c-9 -11 -10 -20 -2 -32 11 -19 111 -58 170 -66 21 -4 -5 8 -57 25 -110 36 -119 42 -102 69 15 24 10 26 -9 4z"/>
<path d="M2840 1320 c-36 -12 -46 -19 -30 -19 14 0 43 8 65 18 50 24 36 24 -35 1z"/>
<path d="M2170 1290 c14 -4 36 -8 50 -8 22 0 22 1 -5 8 -16 4 -39 8 -50 8 -16 0 -15 -2 5 -8z"/>
<path d="M2710 1283 c0 -15 12 -17 26 -4 5 5 18 11 29 14 11 3 3 4 -17 3 -23 0 -38 -6 -38 -13z"/>
<path d="M2280 1273 c19 -3 41 -9 47 -15 10 -8 13 -6 13 6 0 13 -10 16 -47 14 -41 -1 -43 -2 -13 -5z"/>
</g>


</svg>